<svg width="1080" height="720" viewBox="0 0 1080 720" fill="none" xmlns="http://www.w3.org/2000/svg">
<rect width="1080" height="720" fill="#F0F0F0"/>
<path d="M11.4517 709.181C10.9332 709.181 10.4645 709.085 10.0455 708.893C9.62642 708.698 9.29439 708.416 9.04936 708.047C8.80788 707.677 8.68714 707.224 8.68714 706.688C8.68714 706.227 8.77592 705.847 8.95348 705.548C9.13104 705.25 9.37074 705.014 9.67259 704.84C9.97443 704.666 10.3118 704.534 10.6847 704.446C11.0575 704.357 11.4375 704.289 11.8246 704.243C12.3146 704.186 12.7124 704.14 13.0178 704.105C13.3232 704.066 13.5451 704.004 13.6836 703.918C13.8221 703.833 13.8913 703.695 13.8913 703.503V703.466C13.8913 703 13.7599 702.64 13.4972 702.384C13.2379 702.129 12.8509 702.001 12.3359 702.001C11.7997 702.001 11.3771 702.12 11.0682 702.358C10.7628 702.592 10.5515 702.853 10.4343 703.141L8.9375 702.8C9.11506 702.303 9.37429 701.901 9.7152 701.596C10.0597 701.287 10.4556 701.063 10.9031 700.925C11.3505 700.783 11.821 700.712 12.3146 700.712C12.6413 700.712 12.9876 700.751 13.3533 700.829C13.7227 700.903 14.0671 701.042 14.3867 701.244C14.7099 701.447 14.9744 701.736 15.1804 702.113C15.3864 702.485 15.4893 702.97 15.4893 703.567V709H13.9339V707.881H13.87C13.767 708.087 13.6126 708.29 13.4066 708.489C13.2006 708.687 12.9361 708.853 12.6129 708.984C12.2898 709.115 11.9027 709.181 11.4517 709.181ZM11.7979 707.903C12.2383 707.903 12.6147 707.816 12.9272 707.642C13.2433 707.468 13.483 707.24 13.6463 706.96C13.8132 706.676 13.8967 706.372 13.8967 706.049V704.994C13.8398 705.051 13.7298 705.104 13.5664 705.154C13.4066 705.2 13.2237 705.241 13.0178 705.277C12.8118 705.309 12.6112 705.339 12.4158 705.367C12.2205 705.392 12.0572 705.413 11.9258 705.431C11.6168 705.47 11.3345 705.536 11.0788 705.628C10.8267 705.721 10.6243 705.854 10.4716 706.028C10.3224 706.198 10.2479 706.425 10.2479 706.71C10.2479 707.104 10.3935 707.402 10.6847 707.604C10.9759 707.803 11.3469 707.903 11.7979 707.903ZM19.2034 698.091V709H17.6107V698.091H19.2034ZM21.3461 712.068V700.818H22.9015V702.145H23.0346C23.127 701.974 23.2601 701.777 23.4341 701.553C23.6081 701.33 23.8496 701.134 24.1586 700.967C24.4675 700.797 24.8759 700.712 25.3837 700.712C26.0442 700.712 26.6337 700.879 27.1522 701.212C27.6706 701.546 28.0772 702.027 28.372 702.656C28.6703 703.284 28.8194 704.041 28.8194 704.925C28.8194 705.809 28.6721 706.567 28.3773 707.2C28.0826 707.828 27.6777 708.313 27.1628 708.654C26.6479 708.991 26.0602 709.16 25.3997 709.16C24.9025 709.16 24.4959 709.076 24.1799 708.909C23.8674 708.743 23.6223 708.547 23.4448 708.324C23.2672 708.1 23.1305 707.901 23.0346 707.727H22.9387V712.068H21.3461ZM22.9068 704.909C22.9068 705.484 22.9902 705.989 23.1571 706.422C23.324 706.855 23.5655 707.194 23.8816 707.439C24.1976 707.681 24.5847 707.801 25.0428 707.801C25.5186 707.801 25.9164 707.675 26.236 707.423C26.5556 707.168 26.7971 706.821 26.9604 706.385C27.1273 705.948 27.2108 705.456 27.2108 704.909C27.2108 704.369 27.1291 703.885 26.9657 703.455C26.8059 703.025 26.5645 702.686 26.2413 702.438C25.9217 702.189 25.5222 702.065 25.0428 702.065C24.5811 702.065 24.1905 702.184 23.8709 702.422C23.5549 702.659 23.3152 702.991 23.1518 703.418C22.9885 703.844 22.9068 704.341 22.9068 704.909ZM32.1966 704.142V709H30.6039V698.091H32.1752V702.15H32.2765C32.4682 701.71 32.7612 701.36 33.1554 701.1C33.5495 700.841 34.0645 700.712 34.7001 700.712C35.2612 700.712 35.7512 700.827 36.1703 701.058C36.5929 701.289 36.9196 701.633 37.1504 702.091C37.3848 702.546 37.502 703.114 37.502 703.796V709H35.9093V703.988C35.9093 703.387 35.7548 702.922 35.4458 702.592C35.1369 702.258 34.7072 702.091 34.1568 702.091C33.7804 702.091 33.443 702.171 33.1447 702.331C32.85 702.491 32.6174 702.725 32.4469 703.034C32.28 703.339 32.1966 703.709 32.1966 704.142ZM42.0083 709.181C41.4899 709.181 41.0211 709.085 40.6021 708.893C40.1831 708.698 39.851 708.416 39.606 708.047C39.3645 707.677 39.2438 707.224 39.2438 706.688C39.2438 706.227 39.3326 705.847 39.5101 705.548C39.6877 705.25 39.9274 705.014 40.2292 704.84C40.5311 704.666 40.8684 704.534 41.2413 704.446C41.6142 704.357 41.9941 704.289 42.3812 704.243C42.8713 704.186 43.269 704.14 43.5744 704.105C43.8798 704.066 44.1017 704.004 44.2402 703.918C44.3787 703.833 44.448 703.695 44.448 703.503V703.466C44.448 703 44.3166 702.64 44.0538 702.384C43.7946 702.129 43.4075 702.001 42.8926 702.001C42.3564 702.001 41.9338 702.12 41.6248 702.358C41.3194 702.592 41.1081 702.853 40.9909 703.141L39.4941 702.8C39.6717 702.303 39.9309 701.901 40.2718 701.596C40.6163 701.287 41.0123 701.063 41.4597 700.925C41.9071 700.783 42.3777 700.712 42.8713 700.712C43.198 700.712 43.5442 700.751 43.91 700.829C44.2793 700.903 44.6238 701.042 44.9434 701.244C45.2665 701.447 45.5311 701.736 45.737 702.113C45.943 702.485 46.046 702.97 46.046 703.567V709H44.4906V707.881H44.4267C44.3237 708.087 44.1692 708.29 43.9632 708.489C43.7573 708.687 43.4927 708.853 43.1696 708.984C42.8464 709.115 42.4593 709.181 42.0083 709.181ZM42.3546 707.903C42.7949 707.903 43.1713 707.816 43.4838 707.642C43.7999 707.468 44.0396 707.24 44.2029 706.96C44.3699 706.676 44.4533 706.372 44.4533 706.049V704.994C44.3965 705.051 44.2864 705.104 44.123 705.154C43.9632 705.2 43.7804 705.241 43.5744 705.277C43.3684 705.309 43.1678 705.339 42.9725 705.367C42.7772 705.392 42.6138 705.413 42.4824 705.431C42.1735 705.47 41.8912 705.536 41.6355 705.628C41.3833 705.721 41.1809 705.854 41.0282 706.028C40.8791 706.198 40.8045 706.425 40.8045 706.71C40.8045 707.104 40.9501 707.402 41.2413 707.604C41.5325 707.803 41.9036 707.903 42.3546 707.903ZM59.1364 700.818L56.1694 709H54.4648L51.4925 700.818H53.2024L55.2745 707.114H55.3597L57.4265 700.818H59.1364ZM64.4098 709.181C63.5682 709.178 62.8491 708.956 62.2525 708.515C61.6559 708.075 61.1996 707.434 60.8835 706.592C60.5675 705.751 60.4094 704.737 60.4094 703.551C60.4094 702.368 60.5675 701.358 60.8835 700.52C61.2031 699.682 61.6612 699.043 62.2578 698.602C62.858 698.162 63.5753 697.942 64.4098 697.942C65.2443 697.942 65.9599 698.164 66.5565 698.608C67.1531 699.048 67.6094 699.687 67.9254 700.525C68.245 701.36 68.4048 702.368 68.4048 703.551C68.4048 704.74 68.2468 705.756 67.9308 706.598C67.6147 707.436 67.1584 708.077 66.5618 708.521C65.9652 708.961 65.2479 709.181 64.4098 709.181ZM64.4098 707.759C65.1484 707.759 65.7255 707.398 66.141 706.678C66.56 705.957 66.7695 704.914 66.7695 703.551C66.7695 702.645 66.6737 701.88 66.4819 701.255C66.2937 700.626 66.022 700.151 65.6669 699.827C65.3153 699.501 64.8963 699.337 64.4098 699.337C63.6747 699.337 63.0977 699.7 62.6786 700.424C62.2596 701.148 62.0483 702.191 62.0447 703.551C62.0447 704.46 62.1388 705.229 62.3271 705.857C62.5188 706.482 62.7905 706.956 63.142 707.279C63.4936 707.599 63.9162 707.759 64.4098 707.759ZM70.9696 709.101C70.6784 709.101 70.4281 708.998 70.2186 708.792C70.0091 708.583 69.9043 708.331 69.9043 708.036C69.9043 707.745 70.0091 707.496 70.2186 707.29C70.4281 707.081 70.6784 706.976 70.9696 706.976C71.2608 706.976 71.5112 707.081 71.7207 707.29C71.9302 707.496 72.035 707.745 72.035 708.036C72.035 708.231 71.9853 708.411 71.8858 708.574C71.79 708.734 71.6621 708.862 71.5023 708.957C71.3425 709.053 71.165 709.101 70.9696 709.101ZM77.5494 709.181C76.7078 709.178 75.9887 708.956 75.3921 708.515C74.7955 708.075 74.3392 707.434 74.0232 706.592C73.7071 705.751 73.5491 704.737 73.5491 703.551C73.5491 702.368 73.7071 701.358 74.0232 700.52C74.3428 699.682 74.8009 699.043 75.3975 698.602C75.9976 698.162 76.7149 697.942 77.5494 697.942C78.384 697.942 79.0995 698.164 79.6961 698.608C80.2927 699.048 80.749 699.687 81.0651 700.525C81.3847 701.36 81.5445 702.368 81.5445 703.551C81.5445 704.74 81.3865 705.756 81.0704 706.598C80.7544 707.436 80.298 708.077 79.7014 708.521C79.1048 708.961 78.3875 709.181 77.5494 709.181ZM77.5494 707.759C78.2881 707.759 78.8651 707.398 79.2806 706.678C79.6997 705.957 79.9092 704.914 79.9092 703.551C79.9092 702.645 79.8133 701.88 79.6215 701.255C79.4333 700.626 79.1617 700.151 78.8066 699.827C78.455 699.501 78.036 699.337 77.5494 699.337C76.8144 699.337 76.2373 699.7 75.8183 700.424C75.3992 701.148 75.1879 702.191 75.1844 703.551C75.1844 704.46 75.2785 705.229 75.4667 705.857C75.6585 706.482 75.9301 706.956 76.2817 707.279C76.6333 707.599 77.0558 707.759 77.5494 707.759ZM87.573 698.091V709H85.9217V699.742H85.8578L83.2477 701.447V699.87L85.9696 698.091H87.573Z" fill="black" fill-opacity="0.24"/>
<rect width="1080" height="58" fill="#454545"/>
<path d="M17 19H47M17 39H47M17 29H47" stroke="#DFDFDF" stroke-width="6"/>
<path d="M503.196 43V13.9091H507.585V27.8011H507.94L520.142 13.9091H525.668L513.935 27.0057L525.71 43H520.426L511.023 30.0028L507.585 33.9517V43H503.196ZM529.759 43V13.9091H534.148V27.8011H534.503L546.705 13.9091H552.23L540.497 27.0057L552.273 43H546.989L537.585 30.0028L534.148 33.9517V43H529.759ZM556.321 43V13.9091H574.56V17.6875H560.71V26.5511H573.608V30.3153H560.71V39.2216H574.73V43H556.321Z" fill="url(#paint0_linear_24_26)"/>
<path d="M331 392C331 376.915 331 369.373 335.686 364.686C340.373 360 347.915 360 363 360H717C732.085 360 739.627 360 744.314 364.686C749 369.373 749 376.915 749 392V430C749 445.085 749 452.627 744.314 457.314C739.627 462 732.085 462 717 462H363C347.915 462 340.373 462 335.686 457.314C331 452.627 331 445.085 331 430V392Z" fill="url(#paint1_linear_24_26)"/>
<path d="M517.66 410.408C518.604 410.584 519.38 411.056 519.988 411.824C520.596 412.592 520.9 413.472 520.9 414.464C520.9 415.36 520.676 416.152 520.228 416.84C519.796 417.512 519.164 418.04 518.332 418.424C517.5 418.808 516.516 419 515.38 419H508.156V402.248H515.068C516.204 402.248 517.18 402.432 517.996 402.8C518.828 403.168 519.452 403.68 519.868 404.336C520.3 404.992 520.516 405.736 520.516 406.568C520.516 407.544 520.252 408.36 519.724 409.016C519.212 409.672 518.524 410.136 517.66 410.408ZM511.516 409.16H514.588C515.388 409.16 516.004 408.984 516.436 408.632C516.868 408.264 517.084 407.744 517.084 407.072C517.084 406.4 516.868 405.88 516.436 405.512C516.004 405.144 515.388 404.96 514.588 404.96H511.516V409.16ZM514.9 416.264C515.716 416.264 516.348 416.072 516.796 415.688C517.26 415.304 517.492 414.76 517.492 414.056C517.492 413.336 517.252 412.776 516.772 412.376C516.292 411.96 515.644 411.752 514.828 411.752H511.516V416.264H514.9ZM533.85 415.808H527.178L526.074 419H522.546L528.57 402.224H532.482L538.506 419H534.954L533.85 415.808ZM532.938 413.12L530.514 406.112L528.09 413.12H532.938ZM539.942 410.6C539.942 408.952 540.31 407.48 541.046 406.184C541.798 404.872 542.814 403.856 544.094 403.136C545.39 402.4 546.838 402.032 548.438 402.032C550.31 402.032 551.95 402.512 553.358 403.472C554.766 404.432 555.75 405.76 556.31 407.456H552.446C552.062 406.656 551.518 406.056 550.814 405.656C550.126 405.256 549.326 405.056 548.414 405.056C547.438 405.056 546.566 405.288 545.798 405.752C545.046 406.2 544.454 406.84 544.022 407.672C543.606 408.504 543.398 409.48 543.398 410.6C543.398 411.704 543.606 412.68 544.022 413.528C544.454 414.36 545.046 415.008 545.798 415.472C546.566 415.92 547.438 416.144 548.414 416.144C549.326 416.144 550.126 415.944 550.814 415.544C551.518 415.128 552.062 414.52 552.446 413.72H556.31C555.75 415.432 554.766 416.768 553.358 417.728C551.966 418.672 550.326 419.144 548.438 419.144C546.838 419.144 545.39 418.784 544.094 418.064C542.814 417.328 541.798 416.312 541.046 415.016C540.31 413.72 539.942 412.248 539.942 410.6ZM568.635 419L562.539 411.536V419H559.179V402.248H562.539V409.76L568.635 402.248H572.691L565.779 410.552L572.883 419H568.635Z" fill="white"/>
<path d="M1052.24 21.9289L1052.77 22.4592L1052.77 22.4592L1052.24 21.9289ZM1051.84 22.3312L1052.37 22.8616L1051.84 22.3312ZM1055.07 23.3431L1055.6 22.8128V22.8128L1055.07 23.3431ZM1053.66 21.9289L1053.13 22.4592L1053.13 22.4592L1053.66 21.9289ZM1054.67 25.1596L1055.2 25.6899L1055.2 25.6899L1054.67 25.1596ZM1055.07 24.7573L1054.54 24.227V24.227L1055.07 24.7573ZM1056 27V26.25V27ZM1055.43 27V27.75V27ZM1055.07 33.2426L1055.6 32.7123L1055.6 32.7123L1055.07 33.2426ZM1054.67 32.8403L1054.14 33.3707V33.3707L1054.67 32.8403ZM1053.66 36.071L1053.13 35.5407V35.5407L1053.66 36.071ZM1055.07 34.6568L1055.6 35.1872V35.1872L1055.07 34.6568ZM1051.84 35.6688L1052.37 35.1384H1052.37L1051.84 35.6688ZM1052.24 36.071L1051.71 36.6014L1051.71 36.6014L1052.24 36.071ZM1043.76 36.071L1044.29 36.6014H1044.29L1043.76 36.071ZM1044.16 35.6688L1044.69 36.1991L1044.69 36.1991L1044.16 35.6688ZM1040.93 34.6568L1041.46 34.1265V34.1265L1040.93 34.6568ZM1042.34 36.071L1041.81 36.6014H1041.81L1042.34 36.071ZM1041.33 32.8403L1041.86 33.3706L1041.86 33.3706L1041.33 32.8403ZM1040.93 33.2426L1041.46 33.7729L1040.93 33.2426ZM1040.57 27V26.25H1040.57L1040.57 27ZM1040 27V27.75H1040L1040 27ZM1040.93 24.7573L1040.4 25.2877H1040.4L1040.93 24.7573ZM1041.33 25.1597L1041.86 24.6293H1041.86L1041.33 25.1597ZM1042.34 21.9289L1042.87 22.4592V22.4592L1042.34 21.9289ZM1040.93 23.3431L1041.46 23.8735H1041.46L1040.93 23.3431ZM1044.16 22.3312L1043.63 22.8616V22.8616L1044.16 22.3312ZM1043.76 21.9289L1044.29 21.3986V21.3986L1043.76 21.9289ZM1045.32 22.5323L1045.61 23.225H1045.61L1045.32 22.5323ZM1041.53 26.3178L1042.22 26.6053L1041.53 26.3178ZM1041.53 31.6822L1042.22 31.3946L1041.53 31.6822ZM1045.32 35.4677L1045.61 34.775H1045.61L1045.32 35.4677ZM1050.68 35.4677L1050.39 34.775L1050.68 35.4677ZM1054.47 31.6822L1055.16 31.9698L1054.47 31.6822ZM1054.47 26.3177L1053.78 26.6053V26.6053L1054.47 26.3177ZM1050.68 22.5323L1050.39 23.225L1050.68 22.5323ZM1049 19.25H1047V20.75H1049V19.25ZM1050.75 21.5688V21H1049.25V21.5688H1050.75ZM1051.71 21.3986L1051.31 21.8009L1052.37 22.8616L1052.77 22.4592L1051.71 21.3986ZM1055.6 22.8128L1054.19 21.3986L1053.13 22.4592L1054.54 23.8735L1055.6 22.8128ZM1055.2 25.6899L1055.6 25.2877L1054.54 24.227L1054.14 24.6293L1055.2 25.6899ZM1056 26.25L1055.43 26.25V27.75L1056 27.75V26.25ZM1057.75 30V28H1056.25V30H1057.75ZM1055.43 31.75H1056V30.25H1055.43V31.75ZM1055.6 32.7123L1055.2 32.31L1054.14 33.3707L1054.54 33.773L1055.6 32.7123ZM1054.19 36.6014L1055.6 35.1872L1054.54 34.1265L1053.13 35.5407L1054.19 36.6014ZM1051.31 36.1991L1051.71 36.6014L1052.77 35.5407L1052.37 35.1384L1051.31 36.1991ZM1050.75 37V36.4312H1049.25V37H1050.75ZM1047 38.75H1049V37.25H1047V38.75ZM1045.25 36.4313V37H1046.75V36.4313H1045.25ZM1044.29 36.6014L1044.69 36.1991L1043.63 35.1384L1043.23 35.5407L1044.29 36.6014ZM1040.4 35.1872L1041.81 36.6014L1042.87 35.5407L1041.46 34.1265L1040.4 35.1872ZM1040.8 32.3099L1040.4 32.7123L1041.46 33.7729L1041.86 33.3706L1040.8 32.3099ZM1040 31.75H1040.57V30.25H1040V31.75ZM1038.25 28V30H1039.75V28H1038.25ZM1040.57 26.25L1040 26.25L1040 27.75L1040.57 27.75L1040.57 26.25ZM1040.4 25.2877L1040.8 25.69L1041.86 24.6293L1041.46 24.227L1040.4 25.2877ZM1041.81 21.3986L1040.4 22.8128L1041.46 23.8735L1042.87 22.4592L1041.81 21.3986ZM1044.69 21.8009L1044.29 21.3986L1043.23 22.4592L1043.63 22.8616L1044.69 21.8009ZM1045.25 21V21.5688H1046.75V21H1045.25ZM1045.61 23.225C1046.24 22.9634 1046.75 22.3456 1046.75 21.5688H1045.25C1045.25 21.6476 1045.19 21.7731 1045.03 21.8396L1045.61 23.225ZM1043.63 22.8616C1044.18 23.4074 1044.97 23.4892 1045.61 23.225L1045.03 21.8396C1044.88 21.9036 1044.75 21.8603 1044.69 21.8009L1043.63 22.8616ZM1042.87 22.4592C1042.97 22.3616 1043.13 22.3616 1043.23 22.4592L1044.29 21.3986C1043.6 20.7152 1042.5 20.7152 1041.81 21.3986L1042.87 22.4592ZM1041.46 24.227C1041.36 24.1294 1041.36 23.9711 1041.46 23.8735L1040.4 22.8128C1039.72 23.4962 1039.72 24.6043 1040.4 25.2877L1041.46 24.227ZM1042.22 26.6053C1042.49 25.969 1042.41 25.1752 1041.86 24.6293L1040.8 25.69C1040.86 25.7494 1040.9 25.876 1040.84 26.0302L1042.22 26.6053ZM1040.57 27.75C1041.35 27.75 1041.96 27.2355 1042.22 26.6053L1040.84 26.0302C1040.77 26.1903 1040.65 26.25 1040.57 26.25V27.75ZM1039.75 28C1039.75 27.8619 1039.86 27.75 1040 27.75V26.25C1039.03 26.25 1038.25 27.0335 1038.25 28H1039.75ZM1040 30.25C1039.86 30.25 1039.75 30.1381 1039.75 30H1038.25C1038.25 30.9665 1039.03 31.75 1040 31.75V30.25ZM1042.22 31.3946C1041.96 30.7645 1041.35 30.25 1040.57 30.25V31.75C1040.65 31.75 1040.77 31.8097 1040.84 31.9698L1042.22 31.3946ZM1041.86 33.3706C1042.41 32.8248 1042.49 32.031 1042.22 31.3946L1040.84 31.9698C1040.9 32.124 1040.86 32.2506 1040.8 32.31L1041.86 33.3706ZM1041.46 34.1265C1041.36 34.0289 1041.36 33.8706 1041.46 33.7729L1040.4 32.7123C1039.72 33.3957 1039.72 34.5037 1040.4 35.1872L1041.46 34.1265ZM1043.23 35.5407C1043.13 35.6383 1042.97 35.6383 1042.87 35.5407L1041.81 36.6014C1042.5 37.2848 1043.6 37.2848 1044.29 36.6014L1043.23 35.5407ZM1045.61 34.775C1044.97 34.5108 1044.18 34.5926 1043.63 35.1384L1044.69 36.1991C1044.75 36.1397 1044.88 36.0964 1045.03 36.1604L1045.61 34.775ZM1046.75 36.4313C1046.75 35.6544 1046.24 35.0366 1045.61 34.775L1045.03 36.1604C1045.19 36.2269 1045.25 36.3524 1045.25 36.4313H1046.75ZM1047 37.25C1046.86 37.25 1046.75 37.1381 1046.75 37H1045.25C1045.25 37.9665 1046.03 38.75 1047 38.75V37.25ZM1049.25 37C1049.25 37.1381 1049.14 37.25 1049 37.25V38.75C1049.97 38.75 1050.75 37.9665 1050.75 37H1049.25ZM1050.39 34.775C1049.76 35.0366 1049.25 35.6544 1049.25 36.4312H1050.75C1050.75 36.3524 1050.81 36.2269 1050.97 36.1604L1050.39 34.775ZM1052.37 35.1384C1051.82 34.5926 1051.03 34.5108 1050.39 34.775L1050.97 36.1604C1051.12 36.0964 1051.25 36.1397 1051.31 36.1991L1052.37 35.1384ZM1053.13 35.5407C1053.03 35.6383 1052.87 35.6383 1052.77 35.5407L1051.71 36.6014C1052.4 37.2848 1053.5 37.2848 1054.19 36.6014L1053.13 35.5407ZM1054.54 33.773C1054.64 33.8706 1054.64 34.0289 1054.54 34.1265L1055.6 35.1872C1056.28 34.5037 1056.28 33.3957 1055.6 32.7123L1054.54 33.773ZM1053.78 31.3947C1053.51 32.031 1053.59 32.8248 1054.14 33.3707L1055.2 32.31C1055.14 32.2506 1055.1 32.124 1055.16 31.9698L1053.78 31.3947ZM1055.43 30.25C1054.65 30.25 1054.04 30.7645 1053.78 31.3947L1055.16 31.9698C1055.23 31.8097 1055.35 31.75 1055.43 31.75V30.25ZM1056.25 30C1056.25 30.1381 1056.14 30.25 1056 30.25V31.75C1056.97 31.75 1057.75 30.9665 1057.75 30H1056.25ZM1056 27.75C1056.14 27.75 1056.25 27.8619 1056.25 28H1057.75C1057.75 27.0335 1056.97 26.25 1056 26.25V27.75ZM1053.78 26.6053C1054.04 27.2355 1054.65 27.75 1055.43 27.75V26.25C1055.35 26.25 1055.23 26.1903 1055.16 26.0302L1053.78 26.6053ZM1054.14 24.6293C1053.59 25.1751 1053.51 25.969 1053.78 26.6053L1055.16 26.0302C1055.1 25.876 1055.14 25.7493 1055.2 25.6899L1054.14 24.6293ZM1054.54 23.8735C1054.64 23.9711 1054.64 24.1294 1054.54 24.227L1055.6 25.2877C1056.28 24.6042 1056.28 23.4962 1055.6 22.8128L1054.54 23.8735ZM1052.77 22.4592C1052.87 22.3616 1053.03 22.3616 1053.13 22.4592L1054.19 21.3986C1053.5 20.7152 1052.4 20.7152 1051.71 21.3986L1052.77 22.4592ZM1050.39 23.225C1051.03 23.4892 1051.82 23.4074 1052.37 22.8616L1051.31 21.8009C1051.25 21.8603 1051.12 21.9036 1050.97 21.8396L1050.39 23.225ZM1049.25 21.5688C1049.25 22.3456 1049.76 22.9634 1050.39 23.225L1050.97 21.8396C1050.81 21.7731 1050.75 21.6476 1050.75 21.5688H1049.25ZM1047 19.25C1046.03 19.25 1045.25 20.0335 1045.25 21H1046.75C1046.75 20.8619 1046.86 20.75 1047 20.75V19.25ZM1049 20.75C1049.14 20.75 1049.25 20.8619 1049.25 21H1050.75C1050.75 20.0335 1049.97 19.25 1049 19.25V20.75ZM1049.25 29C1049.25 29.6904 1048.69 30.25 1048 30.25V31.75C1049.52 31.75 1050.75 30.5188 1050.75 29H1049.25ZM1048 30.25C1047.31 30.25 1046.75 29.6904 1046.75 29H1045.25C1045.25 30.5188 1046.48 31.75 1048 31.75V30.25ZM1046.75 29C1046.75 28.3096 1047.31 27.75 1048 27.75V26.25C1046.48 26.25 1045.25 27.4812 1045.25 29H1046.75ZM1048 27.75C1048.69 27.75 1049.25 28.3096 1049.25 29H1050.75C1050.75 27.4812 1049.52 26.25 1048 26.25V27.75Z" fill="white"/>
<path d="M469.969 170.75V179.5H481.719V185.05H469.969V194.3H483.219V200H462.969V165.05H483.219V170.75H469.969ZM507.58 200L499.88 186.4H496.58V200H489.58V165.1H502.68C505.38 165.1 507.68 165.583 509.58 166.55C511.48 167.483 512.897 168.767 513.83 170.4C514.797 172 515.28 173.8 515.28 175.8C515.28 178.1 514.613 180.183 513.28 182.05C511.947 183.883 509.963 185.15 507.33 185.85L515.68 200H507.58ZM496.58 181.15H502.43C504.33 181.15 505.747 180.7 506.68 179.8C507.613 178.867 508.08 177.583 508.08 175.95C508.08 174.35 507.613 173.117 506.68 172.25C505.747 171.35 504.33 170.9 502.43 170.9H496.58V181.15ZM539.611 200L531.911 186.4H528.611V200H521.611V165.1H534.711C537.411 165.1 539.711 165.583 541.611 166.55C543.511 167.483 544.928 168.767 545.861 170.4C546.828 172 547.311 173.8 547.311 175.8C547.311 178.1 546.644 180.183 545.311 182.05C543.978 183.883 541.994 185.15 539.361 185.85L547.711 200H539.611ZM528.611 181.15H534.461C536.361 181.15 537.778 180.7 538.711 179.8C539.644 178.867 540.111 177.583 540.111 175.95C540.111 174.35 539.644 173.117 538.711 172.25C537.778 171.35 536.361 170.9 534.461 170.9H528.611V181.15ZM569.842 200.35C566.576 200.35 563.576 199.583 560.842 198.05C558.109 196.517 555.942 194.4 554.342 191.7C552.742 188.967 551.942 185.883 551.942 182.45C551.942 179.05 552.742 176 554.342 173.3C555.942 170.567 558.109 168.433 560.842 166.9C563.576 165.367 566.576 164.6 569.842 164.6C573.142 164.6 576.142 165.367 578.842 166.9C581.576 168.433 583.726 170.567 585.292 173.3C586.892 176 587.692 179.05 587.692 182.45C587.692 185.883 586.892 188.967 585.292 191.7C583.726 194.4 581.576 196.517 578.842 198.05C576.109 199.583 573.109 200.35 569.842 200.35ZM569.842 194.1C571.942 194.1 573.792 193.633 575.392 192.7C576.992 191.733 578.242 190.367 579.142 188.6C580.042 186.833 580.492 184.783 580.492 182.45C580.492 180.117 580.042 178.083 579.142 176.35C578.242 174.583 576.992 173.233 575.392 172.3C573.792 171.367 571.942 170.9 569.842 170.9C567.742 170.9 565.876 171.367 564.242 172.3C562.642 173.233 561.392 174.583 560.492 176.35C559.592 178.083 559.142 180.117 559.142 182.45C559.142 184.783 559.592 186.833 560.492 188.6C561.392 190.367 562.642 191.733 564.242 192.7C565.876 193.633 567.742 194.1 569.842 194.1ZM610.9 200L603.2 186.4H599.9V200H592.9V165.1H606C608.7 165.1 611 165.583 612.9 166.55C614.8 167.483 616.217 168.767 617.15 170.4C618.117 172 618.6 173.8 618.6 175.8C618.6 178.1 617.934 180.183 616.6 182.05C615.267 183.883 613.284 185.15 610.65 185.85L619 200H610.9ZM599.9 181.15H605.75C607.65 181.15 609.067 180.7 610 179.8C610.934 178.867 611.4 177.583 611.4 175.95C611.4 174.35 610.934 173.117 610 172.25C609.067 171.35 607.65 170.9 605.75 170.9H599.9V181.15Z" fill="black"/>
<path d="M381.625 242.16H375.705L380.025 232.08H383.905L381.625 242.16ZM389.705 242.16H383.785L388.105 232.08H391.985L389.705 242.16ZM401.887 236.6V243.6H411.287V248.04H401.887V255.44H412.487V260H396.287V232.04H412.487V236.6H401.887ZM423.176 241.28C423.896 240.107 424.83 239.187 425.976 238.52C427.15 237.853 428.483 237.52 429.976 237.52V243.4H428.496C426.736 243.4 425.403 243.813 424.496 244.64C423.616 245.467 423.176 246.907 423.176 248.96V260H417.576V237.84H423.176V241.28ZM439.348 241.28C440.068 240.107 441.002 239.187 442.148 238.52C443.322 237.853 444.655 237.52 446.148 237.52V243.4H444.668C442.908 243.4 441.575 243.813 440.668 244.64C439.788 245.467 439.348 246.907 439.348 248.96V260H433.748V237.84H439.348V241.28ZM459.76 260.36C457.627 260.36 455.707 259.893 454 258.96C452.293 258 450.947 256.653 449.96 254.92C449 253.187 448.52 251.187 448.52 248.92C448.52 246.653 449.013 244.653 450 242.92C451.013 241.187 452.387 239.853 454.12 238.92C455.853 237.96 457.787 237.48 459.92 237.48C462.053 237.48 463.987 237.96 465.72 238.92C467.453 239.853 468.813 241.187 469.8 242.92C470.813 244.653 471.32 246.653 471.32 248.92C471.32 251.187 470.8 253.187 469.76 254.92C468.747 256.653 467.36 258 465.6 258.96C463.867 259.893 461.92 260.36 459.76 260.36ZM459.76 255.48C460.773 255.48 461.72 255.24 462.6 254.76C463.507 254.253 464.227 253.507 464.76 252.52C465.293 251.533 465.56 250.333 465.56 248.92C465.56 246.813 465 245.2 463.88 244.08C462.787 242.933 461.44 242.36 459.84 242.36C458.24 242.36 456.893 242.933 455.8 244.08C454.733 245.2 454.2 246.813 454.2 248.92C454.2 251.027 454.72 252.653 455.76 253.8C456.827 254.92 458.16 255.48 459.76 255.48ZM481.028 241.28C481.748 240.107 482.681 239.187 483.828 238.52C485.001 237.853 486.335 237.52 487.828 237.52V243.4H486.348C484.588 243.4 483.255 243.813 482.348 244.64C481.468 245.467 481.028 246.907 481.028 248.96V260H475.428V237.84H481.028V241.28ZM528.651 237.52C531.371 237.52 533.558 238.36 535.211 240.04C536.891 241.693 537.731 244.013 537.731 247V260H532.131V247.76C532.131 246.027 531.691 244.707 530.811 243.8C529.931 242.867 528.731 242.4 527.211 242.4C525.691 242.4 524.478 242.867 523.571 243.8C522.691 244.707 522.251 246.027 522.251 247.76V260H516.651V247.76C516.651 246.027 516.211 244.707 515.331 243.8C514.451 242.867 513.251 242.4 511.731 242.4C510.184 242.4 508.958 242.867 508.051 243.8C507.171 244.707 506.731 246.027 506.731 247.76V260H501.131V237.84H506.731V240.52C507.451 239.587 508.371 238.853 509.491 238.32C510.638 237.787 511.891 237.52 513.251 237.52C514.984 237.52 516.531 237.893 517.891 238.64C519.251 239.36 520.304 240.4 521.051 241.76C521.771 240.48 522.811 239.453 524.171 238.68C525.558 237.907 527.051 237.52 528.651 237.52ZM563.645 248.44C563.645 249.24 563.592 249.96 563.485 250.6H547.285C547.418 252.2 547.978 253.453 548.965 254.36C549.952 255.267 551.165 255.72 552.605 255.72C554.685 255.72 556.165 254.827 557.045 253.04H563.085C562.445 255.173 561.218 256.933 559.405 258.32C557.592 259.68 555.365 260.36 552.725 260.36C550.592 260.36 548.672 259.893 546.965 258.96C545.285 258 543.965 256.653 543.005 254.92C542.072 253.187 541.605 251.187 541.605 248.92C541.605 246.627 542.072 244.613 543.005 242.88C543.938 241.147 545.245 239.813 546.925 238.88C548.605 237.947 550.538 237.48 552.725 237.48C554.832 237.48 556.712 237.933 558.365 238.84C560.045 239.747 561.338 241.04 562.245 242.72C563.178 244.373 563.645 246.28 563.645 248.44ZM557.845 246.84C557.818 245.4 557.298 244.253 556.285 243.4C555.272 242.52 554.032 242.08 552.565 242.08C551.178 242.08 550.005 242.507 549.045 243.36C548.112 244.187 547.538 245.347 547.325 246.84H557.845ZM576.213 260.36C574.399 260.36 572.773 260.04 571.333 259.4C569.893 258.733 568.746 257.84 567.893 256.72C567.066 255.6 566.613 254.36 566.533 253H572.173C572.279 253.853 572.693 254.56 573.413 255.12C574.159 255.68 575.079 255.96 576.173 255.96C577.239 255.96 578.066 255.747 578.653 255.32C579.266 254.893 579.573 254.347 579.573 253.68C579.573 252.96 579.199 252.427 578.453 252.08C577.733 251.707 576.573 251.307 574.973 250.88C573.319 250.48 571.959 250.067 570.893 249.64C569.853 249.213 568.946 248.56 568.173 247.68C567.426 246.8 567.053 245.613 567.053 244.12C567.053 242.893 567.399 241.773 568.093 240.76C568.813 239.747 569.826 238.947 571.133 238.36C572.466 237.773 574.026 237.48 575.813 237.48C578.453 237.48 580.559 238.147 582.133 239.48C583.706 240.787 584.573 242.56 584.733 244.8H579.373C579.293 243.92 578.919 243.227 578.253 242.72C577.613 242.187 576.746 241.92 575.653 241.92C574.639 241.92 573.853 242.107 573.293 242.48C572.759 242.853 572.493 243.373 572.493 244.04C572.493 244.787 572.866 245.36 573.613 245.76C574.359 246.133 575.519 246.52 577.093 246.92C578.693 247.32 580.013 247.733 581.053 248.16C582.093 248.587 582.986 249.253 583.733 250.16C584.506 251.04 584.906 252.213 584.933 253.68C584.933 254.96 584.573 256.107 583.853 257.12C583.159 258.133 582.146 258.933 580.813 259.52C579.506 260.08 577.973 260.36 576.213 260.36ZM598.01 260.36C596.196 260.36 594.57 260.04 593.13 259.4C591.69 258.733 590.543 257.84 589.69 256.72C588.863 255.6 588.41 254.36 588.33 253H593.97C594.076 253.853 594.49 254.56 595.21 255.12C595.956 255.68 596.876 255.96 597.97 255.96C599.036 255.96 599.863 255.747 600.45 255.32C601.063 254.893 601.37 254.347 601.37 253.68C601.37 252.96 600.996 252.427 600.25 252.08C599.53 251.707 598.37 251.307 596.77 250.88C595.116 250.48 593.756 250.067 592.69 249.64C591.65 249.213 590.743 248.56 589.97 247.68C589.223 246.8 588.85 245.613 588.85 244.12C588.85 242.893 589.196 241.773 589.89 240.76C590.61 239.747 591.623 238.947 592.93 238.36C594.263 237.773 595.823 237.48 597.61 237.48C600.25 237.48 602.356 238.147 603.93 239.48C605.503 240.787 606.37 242.56 606.53 244.8H601.17C601.09 243.92 600.716 243.227 600.05 242.72C599.41 242.187 598.543 241.92 597.45 241.92C596.436 241.92 595.65 242.107 595.09 242.48C594.556 242.853 594.29 243.373 594.29 244.04C594.29 244.787 594.663 245.36 595.41 245.76C596.156 246.133 597.316 246.52 598.89 246.92C600.49 247.32 601.81 247.733 602.85 248.16C603.89 248.587 604.783 249.253 605.53 250.16C606.303 251.04 606.703 252.213 606.73 253.68C606.73 254.96 606.37 256.107 605.65 257.12C604.956 258.133 603.943 258.933 602.61 259.52C601.303 260.08 599.77 260.36 598.01 260.36ZM609.886 248.84C609.886 246.6 610.326 244.613 611.206 242.88C612.113 241.147 613.326 239.813 614.846 238.88C616.393 237.947 618.113 237.48 620.006 237.48C621.66 237.48 623.1 237.813 624.326 238.48C625.58 239.147 626.58 239.987 627.326 241V237.84H632.966V260H627.326V256.76C626.606 257.8 625.606 258.667 624.326 259.36C623.073 260.027 621.62 260.36 619.966 260.36C618.1 260.36 616.393 259.88 614.846 258.92C613.326 257.96 612.113 256.613 611.206 254.88C610.326 253.12 609.886 251.107 609.886 248.84ZM627.326 248.92C627.326 247.56 627.06 246.4 626.526 245.44C625.993 244.453 625.273 243.707 624.366 243.2C623.46 242.667 622.486 242.4 621.446 242.4C620.406 242.4 619.446 242.653 618.566 243.16C617.686 243.667 616.966 244.413 616.406 245.4C615.873 246.36 615.606 247.507 615.606 248.84C615.606 250.173 615.873 251.347 616.406 252.36C616.966 253.347 617.686 254.107 618.566 254.64C619.473 255.173 620.433 255.44 621.446 255.44C622.486 255.44 623.46 255.187 624.366 254.68C625.273 254.147 625.993 253.4 626.526 252.44C627.06 251.453 627.326 250.28 627.326 248.92ZM647.116 237.48C648.769 237.48 650.222 237.813 651.476 238.48C652.729 239.12 653.716 239.96 654.436 241V237.84H660.076V260.16C660.076 262.213 659.662 264.04 658.836 265.64C658.009 267.267 656.769 268.547 655.116 269.48C653.462 270.44 651.462 270.92 649.116 270.92C645.969 270.92 643.382 270.187 641.356 268.72C639.356 267.253 638.222 265.253 637.956 262.72H643.516C643.809 263.733 644.436 264.533 645.396 265.12C646.382 265.733 647.569 266.04 648.956 266.04C650.582 266.04 651.902 265.547 652.916 264.56C653.929 263.6 654.436 262.133 654.436 260.16V256.72C653.716 257.76 652.716 258.627 651.436 259.32C650.182 260.013 648.742 260.36 647.116 260.36C645.249 260.36 643.542 259.88 641.996 258.92C640.449 257.96 639.222 256.613 638.316 254.88C637.436 253.12 636.996 251.107 636.996 248.84C636.996 246.6 637.436 244.613 638.316 242.88C639.222 241.147 640.436 239.813 641.956 238.88C643.502 237.947 645.222 237.48 647.116 237.48ZM654.436 248.92C654.436 247.56 654.169 246.4 653.636 245.44C653.102 244.453 652.382 243.707 651.476 243.2C650.569 242.667 649.596 242.4 648.556 242.4C647.516 242.4 646.556 242.653 645.676 243.16C644.796 243.667 644.076 244.413 643.516 245.4C642.982 246.36 642.716 247.507 642.716 248.84C642.716 250.173 642.982 251.347 643.516 252.36C644.076 253.347 644.796 254.107 645.676 254.64C646.582 255.173 647.542 255.44 648.556 255.44C649.596 255.44 650.569 255.187 651.476 254.68C652.382 254.147 653.102 253.4 653.636 252.44C654.169 251.453 654.436 250.28 654.436 248.92ZM686.145 248.44C686.145 249.24 686.092 249.96 685.985 250.6H669.785C669.918 252.2 670.478 253.453 671.465 254.36C672.452 255.267 673.665 255.72 675.105 255.72C677.185 255.72 678.665 254.827 679.545 253.04H685.585C684.945 255.173 683.718 256.933 681.905 258.32C680.092 259.68 677.865 260.36 675.225 260.36C673.092 260.36 671.172 259.893 669.465 258.96C667.785 258 666.465 256.653 665.505 254.92C664.572 253.187 664.105 251.187 664.105 248.92C664.105 246.627 664.572 244.613 665.505 242.88C666.438 241.147 667.745 239.813 669.425 238.88C671.105 237.947 673.038 237.48 675.225 237.48C677.332 237.48 679.212 237.933 680.865 238.84C682.545 239.747 683.838 241.04 684.745 242.72C685.678 244.373 686.145 246.28 686.145 248.44ZM680.345 246.84C680.318 245.4 679.798 244.253 678.785 243.4C677.772 242.52 676.532 242.08 675.065 242.08C673.678 242.08 672.505 242.507 671.545 243.36C670.612 244.187 670.038 245.347 669.825 246.84H680.345ZM691.353 232.08H697.233L692.913 242.16H689.073L691.353 232.08ZM699.433 232.08H705.313L700.993 242.16H697.153L699.433 232.08Z" fill="black" fill-opacity="0.54"/>
<path d="M1006.12 37.1213L1006.65 37.6517L1006.12 37.1213ZM1005.15 37.7716L1004.86 37.0787L1005.15 37.7716ZM1002.85 37.7716L1002.56 38.4645L1002.85 37.7716ZM1001.88 37.1213L1001.35 37.6517L1001.88 37.1213ZM1001.23 36.1481L1000.54 36.4351L1001.23 36.1481ZM1001.75 34C1001.75 33.5858 1001.41 33.25 1001 33.25C1000.59 33.25 1000.25 33.5858 1000.25 34H1001.75ZM1007.75 34C1007.75 33.5858 1007.41 33.25 1007 33.25C1006.59 33.25 1006.25 33.5858 1006.25 34H1007.75ZM1012 34V34.75C1012.25 34.75 1012.48 34.6266 1012.62 34.4205C1012.76 34.2144 1012.79 33.9525 1012.7 33.7215L1012 34ZM996 34L995.329 33.6646C995.213 33.8971 995.225 34.1732 995.362 34.3943C995.499 34.6154 995.74 34.75 996 34.75V34ZM1006.25 35C1006.25 35.2955 1006.19 35.5881 1006.08 35.861L1007.46 36.4351C1007.65 35.9801 1007.75 35.4925 1007.75 35H1006.25ZM1006.08 35.861C1005.97 36.134 1005.8 36.3821 1005.59 36.591L1006.65 37.6517C1007 37.3034 1007.28 36.89 1007.46 36.4351L1006.08 35.861ZM1005.59 36.591C1005.38 36.7999 1005.13 36.9657 1004.86 37.0787L1005.44 38.4645C1005.89 38.2761 1006.3 37.9999 1006.65 37.6517L1005.59 36.591ZM1004.86 37.0787C1004.59 37.1918 1004.3 37.25 1004 37.25V38.75C1004.49 38.75 1004.98 38.653 1005.44 38.4645L1004.86 37.0787ZM1004 37.25C1003.7 37.25 1003.41 37.1918 1003.14 37.0787L1002.56 38.4645C1003.02 38.653 1003.51 38.75 1004 38.75V37.25ZM1003.14 37.0787C1002.87 36.9657 1002.62 36.7999 1002.41 36.591L1001.35 37.6517C1001.7 37.9999 1002.11 38.2761 1002.56 38.4645L1003.14 37.0787ZM1002.41 36.591C1002.2 36.3821 1002.03 36.134 1001.92 35.861L1000.54 36.4351C1000.72 36.89 1001 37.3034 1001.35 37.6517L1002.41 36.591ZM1001.92 35.861C1001.81 35.5881 1001.75 35.2955 1001.75 35H1000.25C1000.25 35.4925 1000.35 35.9801 1000.54 36.4351L1001.92 35.861ZM1001.75 35V34H1000.25V35H1001.75ZM1007.75 35V34H1006.25V35H1007.75ZM1009.25 26C1009.25 27.6222 1009.78 29.7163 1010.28 31.3456C1010.54 32.1729 1010.79 32.9039 1010.98 33.4282C1011.08 33.6905 1011.16 33.9017 1011.21 34.0479C1011.24 34.121 1011.26 34.1779 1011.28 34.2169C1011.29 34.2364 1011.29 34.2515 1011.3 34.2618C1011.3 34.267 1011.3 34.271 1011.3 34.2738C1011.3 34.2752 1011.3 34.2763 1011.3 34.2771C1011.3 34.2775 1011.3 34.2778 1011.3 34.278C1011.3 34.2782 1011.3 34.2783 1011.3 34.2783C1011.3 34.2785 1011.3 34.2785 1012 34C1012.7 33.7215 1012.7 33.7215 1012.7 33.7215C1012.7 33.7215 1012.7 33.7215 1012.7 33.7215C1012.7 33.7215 1012.7 33.7213 1012.7 33.7211C1012.7 33.7207 1012.7 33.72 1012.7 33.719C1012.69 33.7169 1012.69 33.7137 1012.69 33.7093C1012.69 33.7006 1012.68 33.6872 1012.68 33.6693C1012.66 33.6336 1012.64 33.5802 1012.61 33.5107C1012.56 33.3718 1012.48 33.1688 1012.39 32.9156C1012.21 32.4086 1011.96 31.7021 1011.72 30.9044C1011.22 29.2837 1010.75 27.3778 1010.75 26H1009.25ZM996 34C996.671 34.3354 996.671 34.3353 996.671 34.3351C996.671 34.335 996.671 34.3348 996.671 34.3347C996.671 34.3344 996.672 34.334 996.672 34.3336C996.672 34.3328 996.673 34.3317 996.673 34.3304C996.675 34.3277 996.676 34.3241 996.679 34.3195C996.683 34.3104 996.69 34.2974 996.698 34.2808C996.714 34.2475 996.737 34.1994 996.766 34.1375C996.823 34.0137 996.905 33.8346 997.002 33.6079C997.196 33.155 997.454 32.5104 997.712 31.7372C998.224 30.1997 998.75 28.1134 998.75 26H997.25C997.25 27.8866 996.776 29.8003 996.288 31.2628C996.046 31.9896 995.804 32.595 995.623 33.0171C995.533 33.2279 995.458 33.3925 995.406 33.5031C995.38 33.5584 995.361 33.6002 995.347 33.6274C995.341 33.6411 995.336 33.651 995.333 33.6573C995.331 33.6604 995.33 33.6626 995.33 33.6638C995.329 33.6644 995.329 33.6648 995.329 33.6649C995.329 33.665 995.329 33.665 995.329 33.6649C995.329 33.6649 995.329 33.6648 995.329 33.6648C995.329 33.6647 995.329 33.6646 996 34ZM1012 33.25H996V34.75H1012V33.25ZM1004 19.25C1000.32 19.25 997.25 22.3178 997.25 26H998.75C998.75 23.1462 1001.15 20.75 1004 20.75V19.25ZM1010.75 26C1010.75 22.3178 1007.68 19.25 1004 19.25V20.75C1006.85 20.75 1009.25 23.1462 1009.25 26H1010.75Z" fill="white"/>
<defs>
<linearGradient id="paint0_linear_24_26" x1="500" y1="29.5" x2="580" y2="29.5" gradientUnits="userSpaceOnUse">
<stop stop-color="#3CAADA"/>
<stop offset="1" stop-color="#4F6FE0"/>
</linearGradient>
<linearGradient id="paint1_linear_24_26" x1="331" y1="411" x2="749" y2="411" gradientUnits="userSpaceOnUse">
<stop stop-color="#3AA0CC"/>
<stop offset="1" stop-color="#4F54E0"/>
</linearGradient>
</defs>
</svg>
