<svg width="1080" height="720" viewBox="0 0 1080 720" fill="none" xmlns="http://www.w3.org/2000/svg">
<rect width="1080" height="720" fill="#F0F0F0"/>
<path d="M427.006 154.08V182H421.406V170.12H409.446V182H403.846V154.08H409.446V165.56H421.406V154.08H427.006ZM445.478 182.28C442.864 182.28 440.464 181.667 438.278 180.44C436.091 179.213 434.358 177.52 433.078 175.36C431.798 173.173 431.158 170.707 431.158 167.96C431.158 165.24 431.798 162.8 433.078 160.64C434.358 158.453 436.091 156.747 438.278 155.52C440.464 154.293 442.864 153.68 445.478 153.68C448.118 153.68 450.518 154.293 452.678 155.52C454.864 156.747 456.584 158.453 457.838 160.64C459.118 162.8 459.758 165.24 459.758 167.96C459.758 170.707 459.118 173.173 457.838 175.36C456.584 177.52 454.864 179.213 452.678 180.44C450.491 181.667 448.091 182.28 445.478 182.28ZM445.478 177.28C447.158 177.28 448.638 176.907 449.918 176.16C451.198 175.387 452.198 174.293 452.918 172.88C453.638 171.467 453.998 169.827 453.998 167.96C453.998 166.093 453.638 164.467 452.918 163.08C452.198 161.667 451.198 160.587 449.918 159.84C448.638 159.093 447.158 158.72 445.478 158.72C443.798 158.72 442.304 159.093 440.998 159.84C439.718 160.587 438.718 161.667 437.998 163.08C437.278 164.467 436.918 166.093 436.918 167.96C436.918 169.827 437.278 171.467 437.998 172.88C438.718 174.293 439.718 175.387 440.998 176.16C442.304 176.907 443.798 177.28 445.478 177.28ZM494.364 154.08V182H488.764V163.84L481.284 182H477.044L469.524 163.84V182H463.924V154.08H470.284L479.164 174.84L488.044 154.08H494.364ZM505.501 158.6V165.6H514.901V170.04H505.501V177.44H516.101V182H499.901V154.04H516.101V158.6H505.501ZM558.51 154.08L550.71 182H544.11L538.87 162.12L533.39 182L526.83 182.04L519.31 154.08H525.31L530.23 175.76L535.91 154.08H542.15L547.51 175.64L552.47 154.08H558.51ZM575.126 182.28C572.513 182.28 570.113 181.667 567.926 180.44C565.74 179.213 564.006 177.52 562.726 175.36C561.446 173.173 560.806 170.707 560.806 167.96C560.806 165.24 561.446 162.8 562.726 160.64C564.006 158.453 565.74 156.747 567.926 155.52C570.113 154.293 572.513 153.68 575.126 153.68C577.766 153.68 580.166 154.293 582.326 155.52C584.513 156.747 586.233 158.453 587.486 160.64C588.766 162.8 589.406 165.24 589.406 167.96C589.406 170.707 588.766 173.173 587.486 175.36C586.233 177.52 584.513 179.213 582.326 180.44C580.14 181.667 577.74 182.28 575.126 182.28ZM575.126 177.28C576.806 177.28 578.286 176.907 579.566 176.16C580.846 175.387 581.846 174.293 582.566 172.88C583.286 171.467 583.646 169.827 583.646 167.96C583.646 166.093 583.286 164.467 582.566 163.08C581.846 161.667 580.846 160.587 579.566 159.84C578.286 159.093 576.806 158.72 575.126 158.72C573.446 158.72 571.953 159.093 570.646 159.84C569.366 160.587 568.366 161.667 567.646 163.08C566.926 164.467 566.566 166.093 566.566 167.96C566.566 169.827 566.926 171.467 567.646 172.88C568.366 174.293 569.366 175.387 570.646 176.16C571.953 176.907 573.446 177.28 575.126 177.28ZM607.973 182L601.813 171.12H599.173V182H593.573V154.08H604.053C606.213 154.08 608.053 154.467 609.573 155.24C611.093 155.987 612.226 157.013 612.973 158.32C613.746 159.6 614.133 161.04 614.133 162.64C614.133 164.48 613.599 166.147 612.533 167.64C611.466 169.107 609.879 170.12 607.773 170.68L614.453 182H607.973ZM599.173 166.92H603.853C605.373 166.92 606.506 166.56 607.253 165.84C607.999 165.093 608.373 164.067 608.373 162.76C608.373 161.48 607.999 160.493 607.253 159.8C606.506 159.08 605.373 158.72 603.853 158.72H599.173V166.92ZM634.958 182L624.798 169.56V182H619.198V154.08H624.798V166.6L634.958 154.08H641.718L630.198 167.92L642.038 182H634.958ZM671.972 182L665.932 172.6L660.452 182H654.132L662.932 167.92L654.012 154.08H660.452L666.492 163.44L671.932 154.08H678.252L669.492 168.12L678.412 182H671.972Z" fill="black"/>
<path d="M11.4517 709.181C10.9332 709.181 10.4645 709.085 10.0455 708.893C9.62642 708.698 9.29439 708.416 9.04936 708.047C8.80788 707.677 8.68714 707.224 8.68714 706.688C8.68714 706.227 8.77592 705.847 8.95348 705.548C9.13104 705.25 9.37074 705.014 9.67259 704.84C9.97443 704.666 10.3118 704.534 10.6847 704.446C11.0575 704.357 11.4375 704.289 11.8246 704.243C12.3146 704.186 12.7124 704.14 13.0178 704.105C13.3232 704.066 13.5451 704.004 13.6836 703.918C13.8221 703.833 13.8913 703.695 13.8913 703.503V703.466C13.8913 703 13.7599 702.64 13.4972 702.384C13.2379 702.129 12.8509 702.001 12.3359 702.001C11.7997 702.001 11.3771 702.12 11.0682 702.358C10.7628 702.592 10.5515 702.853 10.4343 703.141L8.9375 702.8C9.11506 702.303 9.37429 701.901 9.7152 701.596C10.0597 701.287 10.4556 701.063 10.9031 700.925C11.3505 700.783 11.821 700.712 12.3146 700.712C12.6413 700.712 12.9876 700.751 13.3533 700.829C13.7227 700.903 14.0671 701.042 14.3867 701.244C14.7099 701.447 14.9744 701.736 15.1804 702.113C15.3864 702.485 15.4893 702.97 15.4893 703.567V709H13.9339V707.881H13.87C13.767 708.087 13.6126 708.29 13.4066 708.489C13.2006 708.687 12.9361 708.853 12.6129 708.984C12.2898 709.115 11.9027 709.181 11.4517 709.181ZM11.7979 707.903C12.2383 707.903 12.6147 707.816 12.9272 707.642C13.2433 707.468 13.483 707.24 13.6463 706.96C13.8132 706.676 13.8967 706.372 13.8967 706.049V704.994C13.8398 705.051 13.7298 705.104 13.5664 705.154C13.4066 705.2 13.2237 705.241 13.0178 705.277C12.8118 705.309 12.6112 705.339 12.4158 705.367C12.2205 705.392 12.0572 705.413 11.9258 705.431C11.6168 705.47 11.3345 705.536 11.0788 705.628C10.8267 705.721 10.6243 705.854 10.4716 706.028C10.3224 706.198 10.2479 706.425 10.2479 706.71C10.2479 707.104 10.3935 707.402 10.6847 707.604C10.9759 707.803 11.3469 707.903 11.7979 707.903ZM19.2034 698.091V709H17.6107V698.091H19.2034ZM21.3461 712.068V700.818H22.9015V702.145H23.0346C23.127 701.974 23.2601 701.777 23.4341 701.553C23.6081 701.33 23.8496 701.134 24.1586 700.967C24.4675 700.797 24.8759 700.712 25.3837 700.712C26.0442 700.712 26.6337 700.879 27.1522 701.212C27.6706 701.546 28.0772 702.027 28.372 702.656C28.6703 703.284 28.8194 704.041 28.8194 704.925C28.8194 705.809 28.6721 706.567 28.3773 707.2C28.0826 707.828 27.6777 708.313 27.1628 708.654C26.6479 708.991 26.0602 709.16 25.3997 709.16C24.9025 709.16 24.4959 709.076 24.1799 708.909C23.8674 708.743 23.6223 708.547 23.4448 708.324C23.2672 708.1 23.1305 707.901 23.0346 707.727H22.9387V712.068H21.3461ZM22.9068 704.909C22.9068 705.484 22.9902 705.989 23.1571 706.422C23.324 706.855 23.5655 707.194 23.8816 707.439C24.1976 707.681 24.5847 707.801 25.0428 707.801C25.5186 707.801 25.9164 707.675 26.236 707.423C26.5556 707.168 26.7971 706.821 26.9604 706.385C27.1273 705.948 27.2108 705.456 27.2108 704.909C27.2108 704.369 27.1291 703.885 26.9657 703.455C26.8059 703.025 26.5645 702.686 26.2413 702.438C25.9217 702.189 25.5222 702.065 25.0428 702.065C24.5811 702.065 24.1905 702.184 23.8709 702.422C23.5549 702.659 23.3152 702.991 23.1518 703.418C22.9885 703.844 22.9068 704.341 22.9068 704.909ZM32.1966 704.142V709H30.6039V698.091H32.1752V702.15H32.2765C32.4682 701.71 32.7612 701.36 33.1554 701.1C33.5495 700.841 34.0645 700.712 34.7001 700.712C35.2612 700.712 35.7512 700.827 36.1703 701.058C36.5929 701.289 36.9196 701.633 37.1504 702.091C37.3848 702.546 37.502 703.114 37.502 703.796V709H35.9093V703.988C35.9093 703.387 35.7548 702.922 35.4458 702.592C35.1369 702.258 34.7072 702.091 34.1568 702.091C33.7804 702.091 33.443 702.171 33.1447 702.331C32.85 702.491 32.6174 702.725 32.4469 703.034C32.28 703.339 32.1966 703.709 32.1966 704.142ZM42.0083 709.181C41.4899 709.181 41.0211 709.085 40.6021 708.893C40.1831 708.698 39.851 708.416 39.606 708.047C39.3645 707.677 39.2438 707.224 39.2438 706.688C39.2438 706.227 39.3326 705.847 39.5101 705.548C39.6877 705.25 39.9274 705.014 40.2292 704.84C40.5311 704.666 40.8684 704.534 41.2413 704.446C41.6142 704.357 41.9941 704.289 42.3812 704.243C42.8713 704.186 43.269 704.14 43.5744 704.105C43.8798 704.066 44.1017 704.004 44.2402 703.918C44.3787 703.833 44.448 703.695 44.448 703.503V703.466C44.448 703 44.3166 702.64 44.0538 702.384C43.7946 702.129 43.4075 702.001 42.8926 702.001C42.3564 702.001 41.9338 702.12 41.6248 702.358C41.3194 702.592 41.1081 702.853 40.9909 703.141L39.4941 702.8C39.6717 702.303 39.9309 701.901 40.2718 701.596C40.6163 701.287 41.0123 701.063 41.4597 700.925C41.9071 700.783 42.3777 700.712 42.8713 700.712C43.198 700.712 43.5442 700.751 43.91 700.829C44.2793 700.903 44.6238 701.042 44.9434 701.244C45.2665 701.447 45.5311 701.736 45.737 702.113C45.943 702.485 46.046 702.97 46.046 703.567V709H44.4906V707.881H44.4267C44.3237 708.087 44.1692 708.29 43.9632 708.489C43.7573 708.687 43.4927 708.853 43.1696 708.984C42.8464 709.115 42.4593 709.181 42.0083 709.181ZM42.3546 707.903C42.7949 707.903 43.1713 707.816 43.4838 707.642C43.7999 707.468 44.0396 707.24 44.2029 706.96C44.3699 706.676 44.4533 706.372 44.4533 706.049V704.994C44.3965 705.051 44.2864 705.104 44.123 705.154C43.9632 705.2 43.7804 705.241 43.5744 705.277C43.3684 705.309 43.1678 705.339 42.9725 705.367C42.7772 705.392 42.6138 705.413 42.4824 705.431C42.1735 705.47 41.8912 705.536 41.6355 705.628C41.3833 705.721 41.1809 705.854 41.0282 706.028C40.8791 706.198 40.8045 706.425 40.8045 706.71C40.8045 707.104 40.9501 707.402 41.2413 707.604C41.5325 707.803 41.9036 707.903 42.3546 707.903ZM59.1364 700.818L56.1694 709H54.4648L51.4925 700.818H53.2024L55.2745 707.114H55.3597L57.4265 700.818H59.1364ZM64.4098 709.181C63.5682 709.178 62.8491 708.956 62.2525 708.515C61.6559 708.075 61.1996 707.434 60.8835 706.592C60.5675 705.751 60.4094 704.737 60.4094 703.551C60.4094 702.368 60.5675 701.358 60.8835 700.52C61.2031 699.682 61.6612 699.043 62.2578 698.602C62.858 698.162 63.5753 697.942 64.4098 697.942C65.2443 697.942 65.9599 698.164 66.5565 698.608C67.1531 699.048 67.6094 699.687 67.9254 700.525C68.245 701.36 68.4048 702.368 68.4048 703.551C68.4048 704.74 68.2468 705.756 67.9308 706.598C67.6147 707.436 67.1584 708.077 66.5618 708.521C65.9652 708.961 65.2479 709.181 64.4098 709.181ZM64.4098 707.759C65.1484 707.759 65.7255 707.398 66.141 706.678C66.56 705.957 66.7695 704.914 66.7695 703.551C66.7695 702.645 66.6737 701.88 66.4819 701.255C66.2937 700.626 66.022 700.151 65.6669 699.827C65.3153 699.501 64.8963 699.337 64.4098 699.337C63.6747 699.337 63.0977 699.7 62.6786 700.424C62.2596 701.148 62.0483 702.191 62.0447 703.551C62.0447 704.46 62.1388 705.229 62.3271 705.857C62.5188 706.482 62.7905 706.956 63.142 707.279C63.4936 707.599 63.9162 707.759 64.4098 707.759ZM70.9696 709.101C70.6784 709.101 70.4281 708.998 70.2186 708.792C70.0091 708.583 69.9043 708.331 69.9043 708.036C69.9043 707.745 70.0091 707.496 70.2186 707.29C70.4281 707.081 70.6784 706.976 70.9696 706.976C71.2608 706.976 71.5112 707.081 71.7207 707.29C71.9302 707.496 72.035 707.745 72.035 708.036C72.035 708.231 71.9853 708.411 71.8858 708.574C71.79 708.734 71.6621 708.862 71.5023 708.957C71.3425 709.053 71.165 709.101 70.9696 709.101ZM77.5494 709.181C76.7078 709.178 75.9887 708.956 75.3921 708.515C74.7955 708.075 74.3392 707.434 74.0232 706.592C73.7071 705.751 73.5491 704.737 73.5491 703.551C73.5491 702.368 73.7071 701.358 74.0232 700.52C74.3428 699.682 74.8009 699.043 75.3975 698.602C75.9976 698.162 76.7149 697.942 77.5494 697.942C78.384 697.942 79.0995 698.164 79.6961 698.608C80.2927 699.048 80.749 699.687 81.0651 700.525C81.3847 701.36 81.5445 702.368 81.5445 703.551C81.5445 704.74 81.3865 705.756 81.0704 706.598C80.7544 707.436 80.298 708.077 79.7014 708.521C79.1048 708.961 78.3875 709.181 77.5494 709.181ZM77.5494 707.759C78.2881 707.759 78.8651 707.398 79.2806 706.678C79.6997 705.957 79.9092 704.914 79.9092 703.551C79.9092 702.645 79.8133 701.88 79.6215 701.255C79.4333 700.626 79.1617 700.151 78.8066 699.827C78.455 699.501 78.036 699.337 77.5494 699.337C76.8144 699.337 76.2373 699.7 75.8183 700.424C75.3992 701.148 75.1879 702.191 75.1844 703.551C75.1844 704.46 75.2785 705.229 75.4667 705.857C75.6585 706.482 75.9301 706.956 76.2817 707.279C76.6333 707.599 77.0558 707.759 77.5494 707.759ZM87.573 698.091V709H85.9217V699.742H85.8578L83.2477 701.447V699.87L85.9696 698.091H87.573Z" fill="black" fill-opacity="0.24"/>
<rect width="1080" height="58" fill="#454545"/>
<path d="M17 19H47M17 39H47M17 29H47" stroke="#DFDFDF" stroke-width="6"/>
<path d="M1052.24 21.9289L1052.77 22.4592L1052.77 22.4592L1052.24 21.9289ZM1051.84 22.3312L1052.37 22.8616L1051.84 22.3312ZM1055.07 23.3431L1055.6 22.8128V22.8128L1055.07 23.3431ZM1053.66 21.9289L1053.13 22.4592L1053.13 22.4592L1053.66 21.9289ZM1054.67 25.1596L1055.2 25.6899L1055.2 25.6899L1054.67 25.1596ZM1055.07 24.7573L1054.54 24.227V24.227L1055.07 24.7573ZM1056 27V26.25V27ZM1055.43 27V27.75V27ZM1055.07 33.2426L1055.6 32.7123L1055.6 32.7123L1055.07 33.2426ZM1054.67 32.8403L1054.14 33.3707V33.3707L1054.67 32.8403ZM1053.66 36.071L1053.13 35.5407V35.5407L1053.66 36.071ZM1055.07 34.6568L1055.6 35.1872V35.1872L1055.07 34.6568ZM1051.84 35.6688L1052.37 35.1384H1052.37L1051.84 35.6688ZM1052.24 36.071L1051.71 36.6014L1051.71 36.6014L1052.24 36.071ZM1043.76 36.071L1044.29 36.6014H1044.29L1043.76 36.071ZM1044.16 35.6688L1044.69 36.1991L1044.69 36.1991L1044.16 35.6688ZM1040.93 34.6568L1041.46 34.1265V34.1265L1040.93 34.6568ZM1042.34 36.071L1041.81 36.6014H1041.81L1042.34 36.071ZM1041.33 32.8403L1041.86 33.3706L1041.86 33.3706L1041.33 32.8403ZM1040.93 33.2426L1041.46 33.7729L1040.93 33.2426ZM1040.57 27V26.25H1040.57L1040.57 27ZM1040 27V27.75H1040L1040 27ZM1040.93 24.7573L1040.4 25.2877H1040.4L1040.93 24.7573ZM1041.33 25.1597L1041.86 24.6293H1041.86L1041.33 25.1597ZM1042.34 21.9289L1042.87 22.4592V22.4592L1042.34 21.9289ZM1040.93 23.3431L1041.46 23.8735H1041.46L1040.93 23.3431ZM1044.16 22.3312L1043.63 22.8616V22.8616L1044.16 22.3312ZM1043.76 21.9289L1044.29 21.3986V21.3986L1043.76 21.9289ZM1045.32 22.5323L1045.61 23.225H1045.61L1045.32 22.5323ZM1041.53 26.3178L1042.22 26.6053L1041.53 26.3178ZM1041.53 31.6822L1042.22 31.3946L1041.53 31.6822ZM1045.32 35.4677L1045.61 34.775H1045.61L1045.32 35.4677ZM1050.68 35.4677L1050.39 34.775L1050.68 35.4677ZM1054.47 31.6822L1055.16 31.9698L1054.47 31.6822ZM1054.47 26.3177L1053.78 26.6053V26.6053L1054.47 26.3177ZM1050.68 22.5323L1050.39 23.225L1050.68 22.5323ZM1049 19.25H1047V20.75H1049V19.25ZM1050.75 21.5688V21H1049.25V21.5688H1050.75ZM1051.71 21.3986L1051.31 21.8009L1052.37 22.8616L1052.77 22.4592L1051.71 21.3986ZM1055.6 22.8128L1054.19 21.3986L1053.13 22.4592L1054.54 23.8735L1055.6 22.8128ZM1055.2 25.6899L1055.6 25.2877L1054.54 24.227L1054.14 24.6293L1055.2 25.6899ZM1056 26.25L1055.43 26.25V27.75L1056 27.75V26.25ZM1057.75 30V28H1056.25V30H1057.75ZM1055.43 31.75H1056V30.25H1055.43V31.75ZM1055.6 32.7123L1055.2 32.31L1054.14 33.3707L1054.54 33.773L1055.6 32.7123ZM1054.19 36.6014L1055.6 35.1872L1054.54 34.1265L1053.13 35.5407L1054.19 36.6014ZM1051.31 36.1991L1051.71 36.6014L1052.77 35.5407L1052.37 35.1384L1051.31 36.1991ZM1050.75 37V36.4312H1049.25V37H1050.75ZM1047 38.75H1049V37.25H1047V38.75ZM1045.25 36.4313V37H1046.75V36.4313H1045.25ZM1044.29 36.6014L1044.69 36.1991L1043.63 35.1384L1043.23 35.5407L1044.29 36.6014ZM1040.4 35.1872L1041.81 36.6014L1042.87 35.5407L1041.46 34.1265L1040.4 35.1872ZM1040.8 32.3099L1040.4 32.7123L1041.46 33.7729L1041.86 33.3706L1040.8 32.3099ZM1040 31.75H1040.57V30.25H1040V31.75ZM1038.25 28V30H1039.75V28H1038.25ZM1040.57 26.25L1040 26.25L1040 27.75L1040.57 27.75L1040.57 26.25ZM1040.4 25.2877L1040.8 25.69L1041.86 24.6293L1041.46 24.227L1040.4 25.2877ZM1041.81 21.3986L1040.4 22.8128L1041.46 23.8735L1042.87 22.4592L1041.81 21.3986ZM1044.69 21.8009L1044.29 21.3986L1043.23 22.4592L1043.63 22.8616L1044.69 21.8009ZM1045.25 21V21.5688H1046.75V21H1045.25ZM1045.61 23.225C1046.24 22.9634 1046.75 22.3456 1046.75 21.5688H1045.25C1045.25 21.6476 1045.19 21.7731 1045.03 21.8396L1045.61 23.225ZM1043.63 22.8616C1044.18 23.4074 1044.97 23.4892 1045.61 23.225L1045.03 21.8396C1044.88 21.9036 1044.75 21.8603 1044.69 21.8009L1043.63 22.8616ZM1042.87 22.4592C1042.97 22.3616 1043.13 22.3616 1043.23 22.4592L1044.29 21.3986C1043.6 20.7152 1042.5 20.7152 1041.81 21.3986L1042.87 22.4592ZM1041.46 24.227C1041.36 24.1294 1041.36 23.9711 1041.46 23.8735L1040.4 22.8128C1039.72 23.4962 1039.72 24.6043 1040.4 25.2877L1041.46 24.227ZM1042.22 26.6053C1042.49 25.969 1042.41 25.1752 1041.86 24.6293L1040.8 25.69C1040.86 25.7494 1040.9 25.876 1040.84 26.0302L1042.22 26.6053ZM1040.57 27.75C1041.35 27.75 1041.96 27.2355 1042.22 26.6053L1040.84 26.0302C1040.77 26.1903 1040.65 26.25 1040.57 26.25V27.75ZM1039.75 28C1039.75 27.8619 1039.86 27.75 1040 27.75V26.25C1039.03 26.25 1038.25 27.0335 1038.25 28H1039.75ZM1040 30.25C1039.86 30.25 1039.75 30.1381 1039.75 30H1038.25C1038.25 30.9665 1039.03 31.75 1040 31.75V30.25ZM1042.22 31.3946C1041.96 30.7645 1041.35 30.25 1040.57 30.25V31.75C1040.65 31.75 1040.77 31.8097 1040.84 31.9698L1042.22 31.3946ZM1041.86 33.3706C1042.41 32.8248 1042.49 32.031 1042.22 31.3946L1040.84 31.9698C1040.9 32.124 1040.86 32.2506 1040.8 32.31L1041.86 33.3706ZM1041.46 34.1265C1041.36 34.0289 1041.36 33.8706 1041.46 33.7729L1040.4 32.7123C1039.72 33.3957 1039.72 34.5037 1040.4 35.1872L1041.46 34.1265ZM1043.23 35.5407C1043.13 35.6383 1042.97 35.6383 1042.87 35.5407L1041.81 36.6014C1042.5 37.2848 1043.6 37.2848 1044.29 36.6014L1043.23 35.5407ZM1045.61 34.775C1044.97 34.5108 1044.18 34.5926 1043.63 35.1384L1044.69 36.1991C1044.75 36.1397 1044.88 36.0964 1045.03 36.1604L1045.61 34.775ZM1046.75 36.4313C1046.75 35.6544 1046.24 35.0366 1045.61 34.775L1045.03 36.1604C1045.19 36.2269 1045.25 36.3524 1045.25 36.4313H1046.75ZM1047 37.25C1046.86 37.25 1046.75 37.1381 1046.75 37H1045.25C1045.25 37.9665 1046.03 38.75 1047 38.75V37.25ZM1049.25 37C1049.25 37.1381 1049.14 37.25 1049 37.25V38.75C1049.97 38.75 1050.75 37.9665 1050.75 37H1049.25ZM1050.39 34.775C1049.76 35.0366 1049.25 35.6544 1049.25 36.4312H1050.75C1050.75 36.3524 1050.81 36.2269 1050.97 36.1604L1050.39 34.775ZM1052.37 35.1384C1051.82 34.5926 1051.03 34.5108 1050.39 34.775L1050.97 36.1604C1051.12 36.0964 1051.25 36.1397 1051.31 36.1991L1052.37 35.1384ZM1053.13 35.5407C1053.03 35.6383 1052.87 35.6383 1052.77 35.5407L1051.71 36.6014C1052.4 37.2848 1053.5 37.2848 1054.19 36.6014L1053.13 35.5407ZM1054.54 33.773C1054.64 33.8706 1054.64 34.0289 1054.54 34.1265L1055.6 35.1872C1056.28 34.5037 1056.28 33.3957 1055.6 32.7123L1054.54 33.773ZM1053.78 31.3947C1053.51 32.031 1053.59 32.8248 1054.14 33.3707L1055.2 32.31C1055.14 32.2506 1055.1 32.124 1055.16 31.9698L1053.78 31.3947ZM1055.43 30.25C1054.65 30.25 1054.04 30.7645 1053.78 31.3947L1055.16 31.9698C1055.23 31.8097 1055.35 31.75 1055.43 31.75V30.25ZM1056.25 30C1056.25 30.1381 1056.14 30.25 1056 30.25V31.75C1056.97 31.75 1057.75 30.9665 1057.75 30H1056.25ZM1056 27.75C1056.14 27.75 1056.25 27.8619 1056.25 28H1057.75C1057.75 27.0335 1056.97 26.25 1056 26.25V27.75ZM1053.78 26.6053C1054.04 27.2355 1054.65 27.75 1055.43 27.75V26.25C1055.35 26.25 1055.23 26.1903 1055.16 26.0302L1053.78 26.6053ZM1054.14 24.6293C1053.59 25.1751 1053.51 25.969 1053.78 26.6053L1055.16 26.0302C1055.1 25.876 1055.14 25.7493 1055.2 25.6899L1054.14 24.6293ZM1054.54 23.8735C1054.64 23.9711 1054.64 24.1294 1054.54 24.227L1055.6 25.2877C1056.28 24.6042 1056.28 23.4962 1055.6 22.8128L1054.54 23.8735ZM1052.77 22.4592C1052.87 22.3616 1053.03 22.3616 1053.13 22.4592L1054.19 21.3986C1053.5 20.7152 1052.4 20.7152 1051.71 21.3986L1052.77 22.4592ZM1050.39 23.225C1051.03 23.4892 1051.82 23.4074 1052.37 22.8616L1051.31 21.8009C1051.25 21.8603 1051.12 21.9036 1050.97 21.8396L1050.39 23.225ZM1049.25 21.5688C1049.25 22.3456 1049.76 22.9634 1050.39 23.225L1050.97 21.8396C1050.81 21.7731 1050.75 21.6476 1050.75 21.5688H1049.25ZM1047 19.25C1046.03 19.25 1045.25 20.0335 1045.25 21H1046.75C1046.75 20.8619 1046.86 20.75 1047 20.75V19.25ZM1049 20.75C1049.14 20.75 1049.25 20.8619 1049.25 21H1050.75C1050.75 20.0335 1049.97 19.25 1049 19.25V20.75ZM1049.25 29C1049.25 29.6904 1048.69 30.25 1048 30.25V31.75C1049.52 31.75 1050.75 30.5188 1050.75 29H1049.25ZM1048 30.25C1047.31 30.25 1046.75 29.6904 1046.75 29H1045.25C1045.25 30.5188 1046.48 31.75 1048 31.75V30.25ZM1046.75 29C1046.75 28.3096 1047.31 27.75 1048 27.75V26.25C1046.48 26.25 1045.25 27.4812 1045.25 29H1046.75ZM1048 27.75C1048.69 27.75 1049.25 28.3096 1049.25 29H1050.75C1050.75 27.4812 1049.52 26.25 1048 26.25V27.75Z" fill="white"/>
<path d="M1006.12 37.1213L1006.65 37.6517L1006.12 37.1213ZM1005.15 37.7716L1004.86 37.0787L1005.15 37.7716ZM1002.85 37.7716L1002.56 38.4645L1002.85 37.7716ZM1001.88 37.1213L1001.35 37.6517L1001.88 37.1213ZM1001.23 36.1481L1000.54 36.4351L1001.23 36.1481ZM1001.75 34C1001.75 33.5858 1001.41 33.25 1001 33.25C1000.59 33.25 1000.25 33.5858 1000.25 34H1001.75ZM1007.75 34C1007.75 33.5858 1007.41 33.25 1007 33.25C1006.59 33.25 1006.25 33.5858 1006.25 34H1007.75ZM1012 34V34.75C1012.25 34.75 1012.48 34.6266 1012.62 34.4205C1012.76 34.2144 1012.79 33.9525 1012.7 33.7215L1012 34ZM996 34L995.329 33.6646C995.213 33.8971 995.225 34.1732 995.362 34.3943C995.499 34.6154 995.74 34.75 996 34.75V34ZM1006.25 35C1006.25 35.2955 1006.19 35.5881 1006.08 35.861L1007.46 36.4351C1007.65 35.9801 1007.75 35.4925 1007.75 35H1006.25ZM1006.08 35.861C1005.97 36.134 1005.8 36.3821 1005.59 36.591L1006.65 37.6517C1007 37.3034 1007.28 36.89 1007.46 36.4351L1006.08 35.861ZM1005.59 36.591C1005.38 36.7999 1005.13 36.9657 1004.86 37.0787L1005.44 38.4645C1005.89 38.2761 1006.3 37.9999 1006.65 37.6517L1005.59 36.591ZM1004.86 37.0787C1004.59 37.1918 1004.3 37.25 1004 37.25V38.75C1004.49 38.75 1004.98 38.653 1005.44 38.4645L1004.86 37.0787ZM1004 37.25C1003.7 37.25 1003.41 37.1918 1003.14 37.0787L1002.56 38.4645C1003.02 38.653 1003.51 38.75 1004 38.75V37.25ZM1003.14 37.0787C1002.87 36.9657 1002.62 36.7999 1002.41 36.591L1001.35 37.6517C1001.7 37.9999 1002.11 38.2761 1002.56 38.4645L1003.14 37.0787ZM1002.41 36.591C1002.2 36.3821 1002.03 36.134 1001.92 35.861L1000.54 36.4351C1000.72 36.89 1001 37.3034 1001.35 37.6517L1002.41 36.591ZM1001.92 35.861C1001.81 35.5881 1001.75 35.2955 1001.75 35H1000.25C1000.25 35.4925 1000.35 35.9801 1000.54 36.4351L1001.92 35.861ZM1001.75 35V34H1000.25V35H1001.75ZM1007.75 35V34H1006.25V35H1007.75ZM1009.25 26C1009.25 27.6222 1009.78 29.7163 1010.28 31.3456C1010.54 32.1729 1010.79 32.9039 1010.98 33.4282C1011.08 33.6905 1011.16 33.9017 1011.21 34.0479C1011.24 34.121 1011.26 34.1779 1011.28 34.2169C1011.29 34.2364 1011.29 34.2515 1011.3 34.2618C1011.3 34.267 1011.3 34.271 1011.3 34.2738C1011.3 34.2752 1011.3 34.2763 1011.3 34.2771C1011.3 34.2775 1011.3 34.2778 1011.3 34.278C1011.3 34.2782 1011.3 34.2783 1011.3 34.2783C1011.3 34.2785 1011.3 34.2785 1012 34C1012.7 33.7215 1012.7 33.7215 1012.7 33.7215C1012.7 33.7215 1012.7 33.7215 1012.7 33.7215C1012.7 33.7215 1012.7 33.7213 1012.7 33.7211C1012.7 33.7207 1012.7 33.72 1012.7 33.719C1012.69 33.7169 1012.69 33.7137 1012.69 33.7093C1012.69 33.7006 1012.68 33.6872 1012.68 33.6693C1012.66 33.6336 1012.64 33.5802 1012.61 33.5107C1012.56 33.3718 1012.48 33.1688 1012.39 32.9156C1012.21 32.4086 1011.96 31.7021 1011.72 30.9044C1011.22 29.2837 1010.75 27.3778 1010.75 26H1009.25ZM996 34C996.671 34.3354 996.671 34.3353 996.671 34.3351C996.671 34.335 996.671 34.3348 996.671 34.3347C996.671 34.3344 996.672 34.334 996.672 34.3336C996.672 34.3328 996.673 34.3317 996.673 34.3304C996.675 34.3277 996.676 34.3241 996.679 34.3195C996.683 34.3104 996.69 34.2974 996.698 34.2808C996.714 34.2475 996.737 34.1994 996.766 34.1375C996.823 34.0137 996.905 33.8346 997.002 33.6079C997.196 33.155 997.454 32.5104 997.712 31.7372C998.224 30.1997 998.75 28.1134 998.75 26H997.25C997.25 27.8866 996.776 29.8003 996.288 31.2628C996.046 31.9896 995.804 32.595 995.623 33.0171C995.533 33.2279 995.458 33.3925 995.406 33.5031C995.38 33.5584 995.361 33.6002 995.347 33.6274C995.341 33.6411 995.336 33.651 995.333 33.6573C995.331 33.6604 995.33 33.6626 995.33 33.6638C995.329 33.6644 995.329 33.6648 995.329 33.6649C995.329 33.665 995.329 33.665 995.329 33.6649C995.329 33.6649 995.329 33.6648 995.329 33.6648C995.329 33.6647 995.329 33.6646 996 34ZM1012 33.25H996V34.75H1012V33.25ZM1004 19.25C1000.32 19.25 997.25 22.3178 997.25 26H998.75C998.75 23.1462 1001.15 20.75 1004 20.75V19.25ZM1010.75 26C1010.75 22.3178 1007.68 19.25 1004 19.25V20.75C1006.85 20.75 1009.25 23.1462 1009.25 26H1010.75Z" fill="white"/>
<path d="M503.196 43V13.9091H507.585V27.8011H507.94L520.142 13.9091H525.668L513.935 27.0057L525.71 43H520.426L511.023 30.0028L507.585 33.9517V43H503.196ZM529.759 43V13.9091H534.148V27.8011H534.503L546.705 13.9091H552.23L540.497 27.0057L552.273 43H546.989L537.585 30.0028L534.148 33.9517V43H529.759ZM556.321 43V13.9091H574.56V17.6875H560.71V26.5511H573.608V30.3153H560.71V39.2216H574.73V43H556.321Z" fill="url(#paint0_linear_20_22)"/>
<path d="M331 285C331 269.915 331 262.373 335.686 257.686C340.373 253 347.915 253 363 253H717C732.085 253 739.627 253 744.314 257.686C749 262.373 749 269.915 749 285V303C749 318.085 749 325.627 744.314 330.314C739.627 335 732.085 335 717 335H363C347.915 335 340.373 335 335.686 330.314C331 325.627 331 318.085 331 303V285Z" fill="url(#paint1_linear_20_22)"/>
<path d="M496.968 285.248V295.616C496.968 296.752 497.264 297.624 497.856 298.232C498.448 298.824 499.28 299.12 500.352 299.12C501.44 299.12 502.28 298.824 502.872 298.232C503.464 297.624 503.76 296.752 503.76 295.616V285.248H507.144V295.592C507.144 297.016 506.832 298.224 506.208 299.216C505.6 300.192 504.776 300.928 503.736 301.424C502.712 301.92 501.568 302.168 500.304 302.168C499.056 302.168 497.92 301.92 496.896 301.424C495.888 300.928 495.088 300.192 494.496 299.216C493.904 298.224 493.608 297.016 493.608 295.592V285.248H496.968ZM522.606 290.432C522.606 291.328 522.39 292.168 521.958 292.952C521.542 293.736 520.878 294.368 519.966 294.848C519.07 295.328 517.934 295.568 516.558 295.568H513.75V302H510.39V285.248H516.558C517.854 285.248 518.958 285.472 519.87 285.92C520.782 286.368 521.462 286.984 521.91 287.768C522.374 288.552 522.606 289.44 522.606 290.432ZM516.414 292.856C517.342 292.856 518.03 292.648 518.478 292.232C518.926 291.8 519.15 291.2 519.15 290.432C519.15 288.8 518.238 287.984 516.414 287.984H513.75V292.856H516.414ZM528.352 299.336H533.872V302H524.992V285.248H528.352V299.336ZM543.784 302.168C542.216 302.168 540.776 301.8 539.464 301.064C538.152 300.328 537.112 299.312 536.344 298.016C535.576 296.704 535.192 295.224 535.192 293.576C535.192 291.944 535.576 290.48 536.344 289.184C537.112 287.872 538.152 286.848 539.464 286.112C540.776 285.376 542.216 285.008 543.784 285.008C545.368 285.008 546.808 285.376 548.104 286.112C549.416 286.848 550.448 287.872 551.2 289.184C551.968 290.48 552.352 291.944 552.352 293.576C552.352 295.224 551.968 296.704 551.2 298.016C550.448 299.312 549.416 300.328 548.104 301.064C546.792 301.8 545.352 302.168 543.784 302.168ZM543.784 299.168C544.792 299.168 545.68 298.944 546.448 298.496C547.216 298.032 547.816 297.376 548.248 296.528C548.68 295.68 548.896 294.696 548.896 293.576C548.896 292.456 548.68 291.48 548.248 290.648C547.816 289.8 547.216 289.152 546.448 288.704C545.68 288.256 544.792 288.032 543.784 288.032C542.776 288.032 541.88 288.256 541.096 288.704C540.328 289.152 539.728 289.8 539.296 290.648C538.864 291.48 538.648 292.456 538.648 293.576C538.648 294.696 538.864 295.68 539.296 296.528C539.728 297.376 540.328 298.032 541.096 298.496C541.88 298.944 542.776 299.168 543.784 299.168ZM565.123 298.808H558.451L557.347 302H553.819L559.843 285.224H563.755L569.779 302H566.227L565.123 298.808ZM564.211 296.12L561.787 289.112L559.363 296.12H564.211ZM577.887 285.248C579.647 285.248 581.191 285.592 582.519 286.28C583.863 286.968 584.895 287.952 585.615 289.232C586.351 290.496 586.719 291.968 586.719 293.648C586.719 295.328 586.351 296.8 585.615 298.064C584.895 299.312 583.863 300.28 582.519 300.968C581.191 301.656 579.647 302 577.887 302H572.031V285.248H577.887ZM577.767 299.144C579.527 299.144 580.887 298.664 581.847 297.704C582.807 296.744 583.287 295.392 583.287 293.648C583.287 291.904 582.807 290.544 581.847 289.568C580.887 288.576 579.527 288.08 577.767 288.08H575.391V299.144H577.767Z" fill="white"/>
<path d="M331 399C331 383.915 331 376.373 335.686 371.686C340.373 367 347.915 367 363 367H717C732.085 367 739.627 367 744.314 371.686C749 376.373 749 383.915 749 399V417C749 432.085 749 439.627 744.314 444.314C739.627 449 732.085 449 717 449H363C347.915 449 340.373 449 335.686 444.314C331 439.627 331 432.085 331 417V399Z" fill="url(#paint2_linear_20_22)"/>
<path d="M500.796 416L497.1 409.472H495.516V416H492.156V399.248H498.444C499.74 399.248 500.844 399.48 501.756 399.944C502.668 400.392 503.348 401.008 503.796 401.792C504.26 402.56 504.492 403.424 504.492 404.384C504.492 405.488 504.172 406.488 503.532 407.384C502.892 408.264 501.94 408.872 500.676 409.208L504.684 416H500.796ZM495.516 406.952H498.324C499.236 406.952 499.916 406.736 500.364 406.304C500.812 405.856 501.036 405.24 501.036 404.456C501.036 403.688 500.812 403.096 500.364 402.68C499.916 402.248 499.236 402.032 498.324 402.032H495.516V406.952ZM510.891 401.96V406.16H516.531V408.824H510.891V413.264H517.251V416H507.531V399.224H517.251V401.96H510.891ZM526.088 416.168C524.92 416.168 523.864 415.968 522.92 415.568C521.992 415.168 521.256 414.592 520.712 413.84C520.168 413.088 519.888 412.2 519.872 411.176H523.472C523.52 411.864 523.76 412.408 524.192 412.808C524.64 413.208 525.248 413.408 526.016 413.408C526.8 413.408 527.416 413.224 527.864 412.856C528.312 412.472 528.536 411.976 528.536 411.368C528.536 410.872 528.384 410.464 528.08 410.144C527.776 409.824 527.392 409.576 526.928 409.4C526.48 409.208 525.856 409 525.056 408.776C523.968 408.456 523.08 408.144 522.392 407.84C521.72 407.52 521.136 407.048 520.64 406.424C520.16 405.784 519.92 404.936 519.92 403.88C519.92 402.888 520.168 402.024 520.664 401.288C521.16 400.552 521.856 399.992 522.752 399.608C523.648 399.208 524.672 399.008 525.824 399.008C527.552 399.008 528.952 399.432 530.024 400.28C531.112 401.112 531.712 402.28 531.824 403.784H528.128C528.096 403.208 527.848 402.736 527.384 402.368C526.936 401.984 526.336 401.792 525.584 401.792C524.928 401.792 524.4 401.96 524 402.296C523.616 402.632 523.424 403.12 523.424 403.76C523.424 404.208 523.568 404.584 523.856 404.888C524.16 405.176 524.528 405.416 524.96 405.608C525.408 405.784 526.032 405.992 526.832 406.232C527.92 406.552 528.808 406.872 529.496 407.192C530.184 407.512 530.776 407.992 531.272 408.632C531.768 409.272 532.016 410.112 532.016 411.152C532.016 412.048 531.784 412.88 531.32 413.648C530.856 414.416 530.176 415.032 529.28 415.496C528.384 415.944 527.32 416.168 526.088 416.168ZM538.241 399.248V409.616C538.241 410.752 538.537 411.624 539.129 412.232C539.721 412.824 540.553 413.12 541.625 413.12C542.713 413.12 543.553 412.824 544.145 412.232C544.737 411.624 545.033 410.752 545.033 409.616V399.248H548.417V409.592C548.417 411.016 548.105 412.224 547.481 413.216C546.873 414.192 546.049 414.928 545.009 415.424C543.985 415.92 542.841 416.168 541.577 416.168C540.329 416.168 539.193 415.92 538.169 415.424C537.161 414.928 536.361 414.192 535.769 413.216C535.177 412.224 534.881 411.016 534.881 409.592V399.248H538.241ZM555.024 413.336H560.544V416H551.664V399.248H555.024V413.336ZM574.079 399.248V401.96H569.615V416H566.255V401.96H561.791V399.248H574.079ZM582.315 416.168C581.147 416.168 580.091 415.968 579.147 415.568C578.219 415.168 577.483 414.592 576.939 413.84C576.395 413.088 576.115 412.2 576.099 411.176H579.699C579.747 411.864 579.987 412.408 580.419 412.808C580.867 413.208 581.475 413.408 582.243 413.408C583.027 413.408 583.643 413.224 584.091 412.856C584.539 412.472 584.763 411.976 584.763 411.368C584.763 410.872 584.611 410.464 584.307 410.144C584.003 409.824 583.619 409.576 583.155 409.4C582.707 409.208 582.083 409 581.283 408.776C580.195 408.456 579.307 408.144 578.619 407.84C577.947 407.52 577.363 407.048 576.867 406.424C576.387 405.784 576.147 404.936 576.147 403.88C576.147 402.888 576.395 402.024 576.891 401.288C577.387 400.552 578.083 399.992 578.979 399.608C579.875 399.208 580.899 399.008 582.051 399.008C583.779 399.008 585.179 399.432 586.251 400.28C587.339 401.112 587.939 402.28 588.051 403.784H584.355C584.323 403.208 584.075 402.736 583.611 402.368C583.163 401.984 582.563 401.792 581.811 401.792C581.155 401.792 580.627 401.96 580.227 402.296C579.843 402.632 579.651 403.12 579.651 403.76C579.651 404.208 579.795 404.584 580.083 404.888C580.387 405.176 580.755 405.416 581.187 405.608C581.635 405.784 582.259 405.992 583.059 406.232C584.147 406.552 585.035 406.872 585.723 407.192C586.411 407.512 587.003 407.992 587.499 408.632C587.995 409.272 588.243 410.112 588.243 411.152C588.243 412.048 588.011 412.88 587.547 413.648C587.083 414.416 586.403 415.032 585.507 415.496C584.611 415.944 583.547 416.168 582.315 416.168Z" fill="white"/>
<path d="M331 513C331 497.915 331 490.373 335.686 485.686C340.373 481 347.915 481 363 481H717C732.085 481 739.627 481 744.314 485.686C749 490.373 749 497.915 749 513V531C749 546.085 749 553.627 744.314 558.314C739.627 563 732.085 563 717 563H363C347.915 563 340.373 563 335.686 558.314C331 553.627 331 546.085 331 531V513Z" fill="url(#paint3_linear_20_22)"/>
<path d="M476.012 513.248C477.772 513.248 479.316 513.592 480.644 514.28C481.988 514.968 483.02 515.952 483.74 517.232C484.476 518.496 484.844 519.968 484.844 521.648C484.844 523.328 484.476 524.8 483.74 526.064C483.02 527.312 481.988 528.28 480.644 528.968C479.316 529.656 477.772 530 476.012 530H470.156V513.248H476.012ZM475.892 527.144C477.652 527.144 479.012 526.664 479.972 525.704C480.932 524.744 481.412 523.392 481.412 521.648C481.412 519.904 480.932 518.544 479.972 517.568C479.012 516.576 477.652 516.08 475.892 516.08H473.516V527.144H475.892ZM495.135 530.168C493.567 530.168 492.127 529.8 490.815 529.064C489.503 528.328 488.463 527.312 487.695 526.016C486.927 524.704 486.543 523.224 486.543 521.576C486.543 519.944 486.927 518.48 487.695 517.184C488.463 515.872 489.503 514.848 490.815 514.112C492.127 513.376 493.567 513.008 495.135 513.008C496.719 513.008 498.159 513.376 499.455 514.112C500.767 514.848 501.799 515.872 502.551 517.184C503.319 518.48 503.703 519.944 503.703 521.576C503.703 523.224 503.319 524.704 502.551 526.016C501.799 527.312 500.767 528.328 499.455 529.064C498.143 529.8 496.703 530.168 495.135 530.168ZM495.135 527.168C496.143 527.168 497.031 526.944 497.799 526.496C498.567 526.032 499.167 525.376 499.599 524.528C500.031 523.68 500.247 522.696 500.247 521.576C500.247 520.456 500.031 519.48 499.599 518.648C499.167 517.8 498.567 517.152 497.799 516.704C497.031 516.256 496.143 516.032 495.135 516.032C494.127 516.032 493.231 516.256 492.447 516.704C491.679 517.152 491.079 517.8 490.647 518.648C490.215 519.48 489.999 520.456 489.999 521.576C489.999 522.696 490.215 523.68 490.647 524.528C491.079 525.376 491.679 526.032 492.447 526.496C493.231 526.944 494.127 527.168 495.135 527.168ZM528.595 513.248L523.915 530H519.955L516.811 518.072L513.523 530L509.587 530.024L505.075 513.248H508.675L511.627 526.256L515.035 513.248H518.779L521.995 526.184L524.971 513.248H528.595ZM545.117 530H541.757L534.149 518.504V530H530.789V513.224H534.149L541.757 524.744V513.224H545.117V530ZM551.797 527.336H557.317V530H548.437V513.248H551.797V527.336ZM567.229 530.168C565.661 530.168 564.221 529.8 562.909 529.064C561.597 528.328 560.557 527.312 559.789 526.016C559.021 524.704 558.637 523.224 558.637 521.576C558.637 519.944 559.021 518.48 559.789 517.184C560.557 515.872 561.597 514.848 562.909 514.112C564.221 513.376 565.661 513.008 567.229 513.008C568.813 513.008 570.253 513.376 571.549 514.112C572.861 514.848 573.893 515.872 574.645 517.184C575.413 518.48 575.797 519.944 575.797 521.576C575.797 523.224 575.413 524.704 574.645 526.016C573.893 527.312 572.861 528.328 571.549 529.064C570.237 529.8 568.797 530.168 567.229 530.168ZM567.229 527.168C568.237 527.168 569.125 526.944 569.893 526.496C570.661 526.032 571.261 525.376 571.693 524.528C572.125 523.68 572.341 522.696 572.341 521.576C572.341 520.456 572.125 519.48 571.693 518.648C571.261 517.8 570.661 517.152 569.893 516.704C569.125 516.256 568.237 516.032 567.229 516.032C566.221 516.032 565.325 516.256 564.541 516.704C563.773 517.152 563.173 517.8 562.741 518.648C562.309 519.48 562.093 520.456 562.093 521.576C562.093 522.696 562.309 523.68 562.741 524.528C563.173 525.376 563.773 526.032 564.541 526.496C565.325 526.944 566.221 527.168 567.229 527.168ZM588.569 526.808H581.897L580.793 530H577.265L583.289 513.224H587.201L593.225 530H589.673L588.569 526.808ZM587.657 524.12L585.233 517.112L582.809 524.12H587.657ZM601.332 513.248C603.092 513.248 604.636 513.592 605.964 514.28C607.308 514.968 608.34 515.952 609.06 517.232C609.796 518.496 610.164 519.968 610.164 521.648C610.164 523.328 609.796 524.8 609.06 526.064C608.34 527.312 607.308 528.28 605.964 528.968C604.636 529.656 603.092 530 601.332 530H595.476V513.248H601.332ZM601.212 527.144C602.972 527.144 604.332 526.664 605.292 525.704C606.252 524.744 606.732 523.392 606.732 521.648C606.732 519.904 606.252 518.544 605.292 517.568C604.332 516.576 602.972 516.08 601.212 516.08H598.836V527.144H601.212Z" fill="white"/>
<path d="M79.1141 167.26C80.2941 167.48 81.2641 168.07 82.0241 169.03C82.7841 169.99 83.1641 171.09 83.1641 172.33C83.1641 173.45 82.8841 174.44 82.3241 175.3C81.7841 176.14 80.9941 176.8 79.9541 177.28C78.9141 177.76 77.6841 178 76.2641 178H67.2341V157.06H75.8741C77.2941 157.06 78.5141 157.29 79.5341 157.75C80.5741 158.21 81.3541 158.85 81.8741 159.67C82.4141 160.49 82.6841 161.42 82.6841 162.46C82.6841 163.68 82.3541 164.7 81.6941 165.52C81.0541 166.34 80.1941 166.92 79.1141 167.26ZM71.4341 165.7H75.2741C76.2741 165.7 77.0441 165.48 77.5841 165.04C78.1241 164.58 78.3941 163.93 78.3941 163.09C78.3941 162.25 78.1241 161.6 77.5841 161.14C77.0441 160.68 76.2741 160.45 75.2741 160.45H71.4341V165.7ZM75.6641 174.58C76.6841 174.58 77.4741 174.34 78.0341 173.86C78.6141 173.38 78.9041 172.7 78.9041 171.82C78.9041 170.92 78.6041 170.22 78.0041 169.72C77.4041 169.2 76.5941 168.94 75.5741 168.94H71.4341V174.58H75.6641ZM99.3514 174.01H91.0114L89.6314 178H85.2214L92.7514 157.03H97.6414L105.171 178H100.731L99.3514 174.01ZM98.2114 170.65L95.1814 161.89L92.1514 170.65H98.2114ZM106.966 167.5C106.966 165.44 107.426 163.6 108.346 161.98C109.286 160.34 110.556 159.07 112.156 158.17C113.776 157.25 115.586 156.79 117.586 156.79C119.926 156.79 121.976 157.39 123.736 158.59C125.496 159.79 126.726 161.45 127.426 163.57H122.596C122.116 162.57 121.436 161.82 120.556 161.32C119.696 160.82 118.696 160.57 117.556 160.57C116.336 160.57 115.246 160.86 114.286 161.44C113.346 162 112.606 162.8 112.066 163.84C111.546 164.88 111.286 166.1 111.286 167.5C111.286 168.88 111.546 170.1 112.066 171.16C112.606 172.2 113.346 173.01 114.286 173.59C115.246 174.15 116.336 174.43 117.556 174.43C118.696 174.43 119.696 174.18 120.556 173.68C121.436 173.16 122.116 172.4 122.596 171.4H127.426C126.726 173.54 125.496 175.21 123.736 176.41C121.996 177.59 119.946 178.18 117.586 178.18C115.586 178.18 113.776 177.73 112.156 176.83C110.556 175.91 109.286 174.64 108.346 173.02C107.426 171.4 106.966 169.56 106.966 167.5ZM142.833 178L135.213 168.67V178H131.013V157.06H135.213V166.45L142.833 157.06H147.903L139.263 167.44L148.143 178H142.833Z" fill="#1A97CD"/>
<defs>
<linearGradient id="paint0_linear_20_22" x1="500" y1="29.5" x2="580" y2="29.5" gradientUnits="userSpaceOnUse">
<stop stop-color="#3CAADA"/>
<stop offset="1" stop-color="#4F6FE0"/>
</linearGradient>
<linearGradient id="paint1_linear_20_22" x1="331" y1="294" x2="749" y2="294" gradientUnits="userSpaceOnUse">
<stop stop-color="#3AA0CC"/>
<stop offset="1" stop-color="#4F54E0"/>
</linearGradient>
<linearGradient id="paint2_linear_20_22" x1="331" y1="408" x2="749" y2="408" gradientUnits="userSpaceOnUse">
<stop stop-color="#3AA0CC"/>
<stop offset="1" stop-color="#4F54E0"/>
</linearGradient>
<linearGradient id="paint3_linear_20_22" x1="331" y1="522" x2="749" y2="522" gradientUnits="userSpaceOnUse">
<stop stop-color="#3AA0CC"/>
<stop offset="1" stop-color="#4F54E0"/>
</linearGradient>
</defs>
</svg>
