<svg width="1080" height="720" viewBox="0 0 1080 720" fill="none" xmlns="http://www.w3.org/2000/svg">
<rect width="1080" height="720" fill="#F0F0F0"/>
<path d="M11.4517 709.181C10.9332 709.181 10.4645 709.085 10.0455 708.893C9.62642 708.698 9.29439 708.416 9.04936 708.047C8.80788 707.677 8.68714 707.224 8.68714 706.688C8.68714 706.227 8.77592 705.847 8.95348 705.548C9.13104 705.25 9.37074 705.014 9.67259 704.84C9.97443 704.666 10.3118 704.534 10.6847 704.446C11.0575 704.357 11.4375 704.289 11.8246 704.243C12.3146 704.186 12.7124 704.14 13.0178 704.105C13.3232 704.066 13.5451 704.004 13.6836 703.918C13.8221 703.833 13.8913 703.695 13.8913 703.503V703.466C13.8913 703 13.7599 702.64 13.4972 702.384C13.2379 702.129 12.8509 702.001 12.3359 702.001C11.7997 702.001 11.3771 702.12 11.0682 702.358C10.7628 702.592 10.5515 702.853 10.4343 703.141L8.9375 702.8C9.11506 702.303 9.37429 701.901 9.7152 701.596C10.0597 701.287 10.4556 701.063 10.9031 700.925C11.3505 700.783 11.821 700.712 12.3146 700.712C12.6413 700.712 12.9876 700.751 13.3533 700.829C13.7227 700.903 14.0671 701.042 14.3867 701.244C14.7099 701.447 14.9744 701.736 15.1804 702.113C15.3864 702.485 15.4893 702.97 15.4893 703.567V709H13.9339V707.881H13.87C13.767 708.087 13.6126 708.29 13.4066 708.489C13.2006 708.687 12.9361 708.853 12.6129 708.984C12.2898 709.115 11.9027 709.181 11.4517 709.181ZM11.7979 707.903C12.2383 707.903 12.6147 707.816 12.9272 707.642C13.2433 707.468 13.483 707.24 13.6463 706.96C13.8132 706.676 13.8967 706.372 13.8967 706.049V704.994C13.8398 705.051 13.7298 705.104 13.5664 705.154C13.4066 705.2 13.2237 705.241 13.0178 705.277C12.8118 705.309 12.6112 705.339 12.4158 705.367C12.2205 705.392 12.0572 705.413 11.9258 705.431C11.6168 705.47 11.3345 705.536 11.0788 705.628C10.8267 705.721 10.6243 705.854 10.4716 706.028C10.3224 706.198 10.2479 706.425 10.2479 706.71C10.2479 707.104 10.3935 707.402 10.6847 707.604C10.9759 707.803 11.3469 707.903 11.7979 707.903ZM19.2034 698.091V709H17.6107V698.091H19.2034ZM21.3461 712.068V700.818H22.9015V702.145H23.0346C23.127 701.974 23.2601 701.777 23.4341 701.553C23.6081 701.33 23.8496 701.134 24.1586 700.967C24.4675 700.797 24.8759 700.712 25.3837 700.712C26.0442 700.712 26.6337 700.879 27.1522 701.212C27.6706 701.546 28.0772 702.027 28.372 702.656C28.6703 703.284 28.8194 704.041 28.8194 704.925C28.8194 705.809 28.6721 706.567 28.3773 707.2C28.0826 707.828 27.6777 708.313 27.1628 708.654C26.6479 708.991 26.0602 709.16 25.3997 709.16C24.9025 709.16 24.4959 709.076 24.1799 708.909C23.8674 708.743 23.6223 708.547 23.4448 708.324C23.2672 708.1 23.1305 707.901 23.0346 707.727H22.9387V712.068H21.3461ZM22.9068 704.909C22.9068 705.484 22.9902 705.989 23.1571 706.422C23.324 706.855 23.5655 707.194 23.8816 707.439C24.1976 707.681 24.5847 707.801 25.0428 707.801C25.5186 707.801 25.9164 707.675 26.236 707.423C26.5556 707.168 26.7971 706.821 26.9604 706.385C27.1273 705.948 27.2108 705.456 27.2108 704.909C27.2108 704.369 27.1291 703.885 26.9657 703.455C26.8059 703.025 26.5645 702.686 26.2413 702.438C25.9217 702.189 25.5222 702.065 25.0428 702.065C24.5811 702.065 24.1905 702.184 23.8709 702.422C23.5549 702.659 23.3152 702.991 23.1518 703.418C22.9885 703.844 22.9068 704.341 22.9068 704.909ZM32.1966 704.142V709H30.6039V698.091H32.1752V702.15H32.2765C32.4682 701.71 32.7612 701.36 33.1554 701.1C33.5495 700.841 34.0645 700.712 34.7001 700.712C35.2612 700.712 35.7512 700.827 36.1703 701.058C36.5929 701.289 36.9196 701.633 37.1504 702.091C37.3848 702.546 37.502 703.114 37.502 703.796V709H35.9093V703.988C35.9093 703.387 35.7548 702.922 35.4458 702.592C35.1369 702.258 34.7072 702.091 34.1568 702.091C33.7804 702.091 33.443 702.171 33.1447 702.331C32.85 702.491 32.6174 702.725 32.4469 703.034C32.28 703.339 32.1966 703.709 32.1966 704.142ZM42.0083 709.181C41.4899 709.181 41.0211 709.085 40.6021 708.893C40.1831 708.698 39.851 708.416 39.606 708.047C39.3645 707.677 39.2438 707.224 39.2438 706.688C39.2438 706.227 39.3326 705.847 39.5101 705.548C39.6877 705.25 39.9274 705.014 40.2292 704.84C40.5311 704.666 40.8684 704.534 41.2413 704.446C41.6142 704.357 41.9941 704.289 42.3812 704.243C42.8713 704.186 43.269 704.14 43.5744 704.105C43.8798 704.066 44.1017 704.004 44.2402 703.918C44.3787 703.833 44.448 703.695 44.448 703.503V703.466C44.448 703 44.3166 702.64 44.0538 702.384C43.7946 702.129 43.4075 702.001 42.8926 702.001C42.3564 702.001 41.9338 702.12 41.6248 702.358C41.3194 702.592 41.1081 702.853 40.9909 703.141L39.4941 702.8C39.6717 702.303 39.9309 701.901 40.2718 701.596C40.6163 701.287 41.0123 701.063 41.4597 700.925C41.9071 700.783 42.3777 700.712 42.8713 700.712C43.198 700.712 43.5442 700.751 43.91 700.829C44.2793 700.903 44.6238 701.042 44.9434 701.244C45.2665 701.447 45.5311 701.736 45.737 702.113C45.943 702.485 46.046 702.97 46.046 703.567V709H44.4906V707.881H44.4267C44.3237 708.087 44.1692 708.29 43.9632 708.489C43.7573 708.687 43.4927 708.853 43.1696 708.984C42.8464 709.115 42.4593 709.181 42.0083 709.181ZM42.3546 707.903C42.7949 707.903 43.1713 707.816 43.4838 707.642C43.7999 707.468 44.0396 707.24 44.2029 706.96C44.3699 706.676 44.4533 706.372 44.4533 706.049V704.994C44.3965 705.051 44.2864 705.104 44.123 705.154C43.9632 705.2 43.7804 705.241 43.5744 705.277C43.3684 705.309 43.1678 705.339 42.9725 705.367C42.7772 705.392 42.6138 705.413 42.4824 705.431C42.1735 705.47 41.8912 705.536 41.6355 705.628C41.3833 705.721 41.1809 705.854 41.0282 706.028C40.8791 706.198 40.8045 706.425 40.8045 706.71C40.8045 707.104 40.9501 707.402 41.2413 707.604C41.5325 707.803 41.9036 707.903 42.3546 707.903ZM59.1364 700.818L56.1694 709H54.4648L51.4925 700.818H53.2024L55.2745 707.114H55.3597L57.4265 700.818H59.1364ZM64.4098 709.181C63.5682 709.178 62.8491 708.956 62.2525 708.515C61.6559 708.075 61.1996 707.434 60.8835 706.592C60.5675 705.751 60.4094 704.737 60.4094 703.551C60.4094 702.368 60.5675 701.358 60.8835 700.52C61.2031 699.682 61.6612 699.043 62.2578 698.602C62.858 698.162 63.5753 697.942 64.4098 697.942C65.2443 697.942 65.9599 698.164 66.5565 698.608C67.1531 699.048 67.6094 699.687 67.9254 700.525C68.245 701.36 68.4048 702.368 68.4048 703.551C68.4048 704.74 68.2468 705.756 67.9308 706.598C67.6147 707.436 67.1584 708.077 66.5618 708.521C65.9652 708.961 65.2479 709.181 64.4098 709.181ZM64.4098 707.759C65.1484 707.759 65.7255 707.398 66.141 706.678C66.56 705.957 66.7695 704.914 66.7695 703.551C66.7695 702.645 66.6737 701.88 66.4819 701.255C66.2937 700.626 66.022 700.151 65.6669 699.827C65.3153 699.501 64.8963 699.337 64.4098 699.337C63.6747 699.337 63.0977 699.7 62.6786 700.424C62.2596 701.148 62.0483 702.191 62.0447 703.551C62.0447 704.46 62.1388 705.229 62.3271 705.857C62.5188 706.482 62.7905 706.956 63.142 707.279C63.4936 707.599 63.9162 707.759 64.4098 707.759ZM70.9696 709.101C70.6784 709.101 70.4281 708.998 70.2186 708.792C70.0091 708.583 69.9043 708.331 69.9043 708.036C69.9043 707.745 70.0091 707.496 70.2186 707.29C70.4281 707.081 70.6784 706.976 70.9696 706.976C71.2608 706.976 71.5112 707.081 71.7207 707.29C71.9302 707.496 72.035 707.745 72.035 708.036C72.035 708.231 71.9853 708.411 71.8858 708.574C71.79 708.734 71.6621 708.862 71.5023 708.957C71.3425 709.053 71.165 709.101 70.9696 709.101ZM77.5494 709.181C76.7078 709.178 75.9887 708.956 75.3921 708.515C74.7955 708.075 74.3392 707.434 74.0232 706.592C73.7071 705.751 73.5491 704.737 73.5491 703.551C73.5491 702.368 73.7071 701.358 74.0232 700.52C74.3428 699.682 74.8009 699.043 75.3975 698.602C75.9976 698.162 76.7149 697.942 77.5494 697.942C78.384 697.942 79.0995 698.164 79.6961 698.608C80.2927 699.048 80.749 699.687 81.0651 700.525C81.3847 701.36 81.5445 702.368 81.5445 703.551C81.5445 704.74 81.3865 705.756 81.0704 706.598C80.7544 707.436 80.298 708.077 79.7014 708.521C79.1048 708.961 78.3875 709.181 77.5494 709.181ZM77.5494 707.759C78.2881 707.759 78.8651 707.398 79.2806 706.678C79.6997 705.957 79.9092 704.914 79.9092 703.551C79.9092 702.645 79.8133 701.88 79.6215 701.255C79.4333 700.626 79.1617 700.151 78.8066 699.827C78.455 699.501 78.036 699.337 77.5494 699.337C76.8144 699.337 76.2373 699.7 75.8183 700.424C75.3992 701.148 75.1879 702.191 75.1844 703.551C75.1844 704.46 75.2785 705.229 75.4667 705.857C75.6585 706.482 75.9301 706.956 76.2817 707.279C76.6333 707.599 77.0558 707.759 77.5494 707.759ZM87.573 698.091V709H85.9217V699.742H85.8578L83.2477 701.447V699.87L85.9696 698.091H87.573Z" fill="black" fill-opacity="0.24"/>
<rect width="1080" height="58" fill="#454545"/>
<path d="M17 19H47M17 39H47M17 29H47" stroke="#DFDFDF" stroke-width="6"/>
<path d="M1052.24 21.9289L1052.77 22.4592L1052.77 22.4592L1052.24 21.9289ZM1051.84 22.3312L1052.37 22.8616L1051.84 22.3312ZM1055.07 23.3431L1055.6 22.8128V22.8128L1055.07 23.3431ZM1053.66 21.9289L1053.13 22.4592L1053.13 22.4592L1053.66 21.9289ZM1054.67 25.1596L1055.2 25.6899L1055.2 25.6899L1054.67 25.1596ZM1055.07 24.7573L1054.54 24.227V24.227L1055.07 24.7573ZM1056 27V26.25V27ZM1055.43 27V27.75V27ZM1055.07 33.2426L1055.6 32.7123L1055.6 32.7123L1055.07 33.2426ZM1054.67 32.8403L1054.14 33.3707V33.3707L1054.67 32.8403ZM1053.66 36.071L1053.13 35.5407V35.5407L1053.66 36.071ZM1055.07 34.6568L1055.6 35.1872V35.1872L1055.07 34.6568ZM1051.84 35.6688L1052.37 35.1384H1052.37L1051.84 35.6688ZM1052.24 36.071L1051.71 36.6014L1051.71 36.6014L1052.24 36.071ZM1043.76 36.071L1044.29 36.6014H1044.29L1043.76 36.071ZM1044.16 35.6688L1044.69 36.1991L1044.69 36.1991L1044.16 35.6688ZM1040.93 34.6568L1041.46 34.1265V34.1265L1040.93 34.6568ZM1042.34 36.071L1041.81 36.6014H1041.81L1042.34 36.071ZM1041.33 32.8403L1041.86 33.3706L1041.86 33.3706L1041.33 32.8403ZM1040.93 33.2426L1041.46 33.7729L1040.93 33.2426ZM1040.57 27V26.25H1040.57L1040.57 27ZM1040 27V27.75H1040L1040 27ZM1040.93 24.7573L1040.4 25.2877H1040.4L1040.93 24.7573ZM1041.33 25.1597L1041.86 24.6293H1041.86L1041.33 25.1597ZM1042.34 21.9289L1042.87 22.4592V22.4592L1042.34 21.9289ZM1040.93 23.3431L1041.46 23.8735H1041.46L1040.93 23.3431ZM1044.16 22.3312L1043.63 22.8616V22.8616L1044.16 22.3312ZM1043.76 21.9289L1044.29 21.3986V21.3986L1043.76 21.9289ZM1045.32 22.5323L1045.61 23.225H1045.61L1045.32 22.5323ZM1041.53 26.3178L1042.22 26.6053L1041.53 26.3178ZM1041.53 31.6822L1042.22 31.3946L1041.53 31.6822ZM1045.32 35.4677L1045.61 34.775H1045.61L1045.32 35.4677ZM1050.68 35.4677L1050.39 34.775L1050.68 35.4677ZM1054.47 31.6822L1055.16 31.9698L1054.47 31.6822ZM1054.47 26.3177L1053.78 26.6053V26.6053L1054.47 26.3177ZM1050.68 22.5323L1050.39 23.225L1050.68 22.5323ZM1049 19.25H1047V20.75H1049V19.25ZM1050.75 21.5688V21H1049.25V21.5688H1050.75ZM1051.71 21.3986L1051.31 21.8009L1052.37 22.8616L1052.77 22.4592L1051.71 21.3986ZM1055.6 22.8128L1054.19 21.3986L1053.13 22.4592L1054.54 23.8735L1055.6 22.8128ZM1055.2 25.6899L1055.6 25.2877L1054.54 24.227L1054.14 24.6293L1055.2 25.6899ZM1056 26.25L1055.43 26.25V27.75L1056 27.75V26.25ZM1057.75 30V28H1056.25V30H1057.75ZM1055.43 31.75H1056V30.25H1055.43V31.75ZM1055.6 32.7123L1055.2 32.31L1054.14 33.3707L1054.54 33.773L1055.6 32.7123ZM1054.19 36.6014L1055.6 35.1872L1054.54 34.1265L1053.13 35.5407L1054.19 36.6014ZM1051.31 36.1991L1051.71 36.6014L1052.77 35.5407L1052.37 35.1384L1051.31 36.1991ZM1050.75 37V36.4312H1049.25V37H1050.75ZM1047 38.75H1049V37.25H1047V38.75ZM1045.25 36.4313V37H1046.75V36.4313H1045.25ZM1044.29 36.6014L1044.69 36.1991L1043.63 35.1384L1043.23 35.5407L1044.29 36.6014ZM1040.4 35.1872L1041.81 36.6014L1042.87 35.5407L1041.46 34.1265L1040.4 35.1872ZM1040.8 32.3099L1040.4 32.7123L1041.46 33.7729L1041.86 33.3706L1040.8 32.3099ZM1040 31.75H1040.57V30.25H1040V31.75ZM1038.25 28V30H1039.75V28H1038.25ZM1040.57 26.25L1040 26.25L1040 27.75L1040.57 27.75L1040.57 26.25ZM1040.4 25.2877L1040.8 25.69L1041.86 24.6293L1041.46 24.227L1040.4 25.2877ZM1041.81 21.3986L1040.4 22.8128L1041.46 23.8735L1042.87 22.4592L1041.81 21.3986ZM1044.69 21.8009L1044.29 21.3986L1043.23 22.4592L1043.63 22.8616L1044.69 21.8009ZM1045.25 21V21.5688H1046.75V21H1045.25ZM1045.61 23.225C1046.24 22.9634 1046.75 22.3456 1046.75 21.5688H1045.25C1045.25 21.6476 1045.19 21.7731 1045.03 21.8396L1045.61 23.225ZM1043.63 22.8616C1044.18 23.4074 1044.97 23.4892 1045.61 23.225L1045.03 21.8396C1044.88 21.9036 1044.75 21.8603 1044.69 21.8009L1043.63 22.8616ZM1042.87 22.4592C1042.97 22.3616 1043.13 22.3616 1043.23 22.4592L1044.29 21.3986C1043.6 20.7152 1042.5 20.7152 1041.81 21.3986L1042.87 22.4592ZM1041.46 24.227C1041.36 24.1294 1041.36 23.9711 1041.46 23.8735L1040.4 22.8128C1039.72 23.4962 1039.72 24.6043 1040.4 25.2877L1041.46 24.227ZM1042.22 26.6053C1042.49 25.969 1042.41 25.1752 1041.86 24.6293L1040.8 25.69C1040.86 25.7494 1040.9 25.876 1040.84 26.0302L1042.22 26.6053ZM1040.57 27.75C1041.35 27.75 1041.96 27.2355 1042.22 26.6053L1040.84 26.0302C1040.77 26.1903 1040.65 26.25 1040.57 26.25V27.75ZM1039.75 28C1039.75 27.8619 1039.86 27.75 1040 27.75V26.25C1039.03 26.25 1038.25 27.0335 1038.25 28H1039.75ZM1040 30.25C1039.86 30.25 1039.75 30.1381 1039.75 30H1038.25C1038.25 30.9665 1039.03 31.75 1040 31.75V30.25ZM1042.22 31.3946C1041.96 30.7645 1041.35 30.25 1040.57 30.25V31.75C1040.65 31.75 1040.77 31.8097 1040.84 31.9698L1042.22 31.3946ZM1041.86 33.3706C1042.41 32.8248 1042.49 32.031 1042.22 31.3946L1040.84 31.9698C1040.9 32.124 1040.86 32.2506 1040.8 32.31L1041.86 33.3706ZM1041.46 34.1265C1041.36 34.0289 1041.36 33.8706 1041.46 33.7729L1040.4 32.7123C1039.72 33.3957 1039.72 34.5037 1040.4 35.1872L1041.46 34.1265ZM1043.23 35.5407C1043.13 35.6383 1042.97 35.6383 1042.87 35.5407L1041.81 36.6014C1042.5 37.2848 1043.6 37.2848 1044.29 36.6014L1043.23 35.5407ZM1045.61 34.775C1044.97 34.5108 1044.18 34.5926 1043.63 35.1384L1044.69 36.1991C1044.75 36.1397 1044.88 36.0964 1045.03 36.1604L1045.61 34.775ZM1046.75 36.4313C1046.75 35.6544 1046.24 35.0366 1045.61 34.775L1045.03 36.1604C1045.19 36.2269 1045.25 36.3524 1045.25 36.4313H1046.75ZM1047 37.25C1046.86 37.25 1046.75 37.1381 1046.75 37H1045.25C1045.25 37.9665 1046.03 38.75 1047 38.75V37.25ZM1049.25 37C1049.25 37.1381 1049.14 37.25 1049 37.25V38.75C1049.97 38.75 1050.75 37.9665 1050.75 37H1049.25ZM1050.39 34.775C1049.76 35.0366 1049.25 35.6544 1049.25 36.4312H1050.75C1050.75 36.3524 1050.81 36.2269 1050.97 36.1604L1050.39 34.775ZM1052.37 35.1384C1051.82 34.5926 1051.03 34.5108 1050.39 34.775L1050.97 36.1604C1051.12 36.0964 1051.25 36.1397 1051.31 36.1991L1052.37 35.1384ZM1053.13 35.5407C1053.03 35.6383 1052.87 35.6383 1052.77 35.5407L1051.71 36.6014C1052.4 37.2848 1053.5 37.2848 1054.19 36.6014L1053.13 35.5407ZM1054.54 33.773C1054.64 33.8706 1054.64 34.0289 1054.54 34.1265L1055.6 35.1872C1056.28 34.5037 1056.28 33.3957 1055.6 32.7123L1054.54 33.773ZM1053.78 31.3947C1053.51 32.031 1053.59 32.8248 1054.14 33.3707L1055.2 32.31C1055.14 32.2506 1055.1 32.124 1055.16 31.9698L1053.78 31.3947ZM1055.43 30.25C1054.65 30.25 1054.04 30.7645 1053.78 31.3947L1055.16 31.9698C1055.23 31.8097 1055.35 31.75 1055.43 31.75V30.25ZM1056.25 30C1056.25 30.1381 1056.14 30.25 1056 30.25V31.75C1056.97 31.75 1057.75 30.9665 1057.75 30H1056.25ZM1056 27.75C1056.14 27.75 1056.25 27.8619 1056.25 28H1057.75C1057.75 27.0335 1056.97 26.25 1056 26.25V27.75ZM1053.78 26.6053C1054.04 27.2355 1054.65 27.75 1055.43 27.75V26.25C1055.35 26.25 1055.23 26.1903 1055.16 26.0302L1053.78 26.6053ZM1054.14 24.6293C1053.59 25.1751 1053.51 25.969 1053.78 26.6053L1055.16 26.0302C1055.1 25.876 1055.14 25.7493 1055.2 25.6899L1054.14 24.6293ZM1054.54 23.8735C1054.64 23.9711 1054.64 24.1294 1054.54 24.227L1055.6 25.2877C1056.28 24.6042 1056.28 23.4962 1055.6 22.8128L1054.54 23.8735ZM1052.77 22.4592C1052.87 22.3616 1053.03 22.3616 1053.13 22.4592L1054.19 21.3986C1053.5 20.7152 1052.4 20.7152 1051.71 21.3986L1052.77 22.4592ZM1050.39 23.225C1051.03 23.4892 1051.82 23.4074 1052.37 22.8616L1051.31 21.8009C1051.25 21.8603 1051.12 21.9036 1050.97 21.8396L1050.39 23.225ZM1049.25 21.5688C1049.25 22.3456 1049.76 22.9634 1050.39 23.225L1050.97 21.8396C1050.81 21.7731 1050.75 21.6476 1050.75 21.5688H1049.25ZM1047 19.25C1046.03 19.25 1045.25 20.0335 1045.25 21H1046.75C1046.75 20.8619 1046.86 20.75 1047 20.75V19.25ZM1049 20.75C1049.14 20.75 1049.25 20.8619 1049.25 21H1050.75C1050.75 20.0335 1049.97 19.25 1049 19.25V20.75ZM1049.25 29C1049.25 29.6904 1048.69 30.25 1048 30.25V31.75C1049.52 31.75 1050.75 30.5188 1050.75 29H1049.25ZM1048 30.25C1047.31 30.25 1046.75 29.6904 1046.75 29H1045.25C1045.25 30.5188 1046.48 31.75 1048 31.75V30.25ZM1046.75 29C1046.75 28.3096 1047.31 27.75 1048 27.75V26.25C1046.48 26.25 1045.25 27.4812 1045.25 29H1046.75ZM1048 27.75C1048.69 27.75 1049.25 28.3096 1049.25 29H1050.75C1050.75 27.4812 1049.52 26.25 1048 26.25V27.75Z" fill="white"/>
<path d="M1006.12 37.1213L1006.65 37.6517L1006.12 37.1213ZM1005.15 37.7716L1004.86 37.0787L1005.15 37.7716ZM1002.85 37.7716L1002.56 38.4645L1002.85 37.7716ZM1001.88 37.1213L1001.35 37.6517L1001.88 37.1213ZM1001.23 36.1481L1000.54 36.4351L1001.23 36.1481ZM1001.75 34C1001.75 33.5858 1001.41 33.25 1001 33.25C1000.59 33.25 1000.25 33.5858 1000.25 34H1001.75ZM1007.75 34C1007.75 33.5858 1007.41 33.25 1007 33.25C1006.59 33.25 1006.25 33.5858 1006.25 34H1007.75ZM1012 34V34.75C1012.25 34.75 1012.48 34.6266 1012.62 34.4205C1012.76 34.2144 1012.79 33.9525 1012.7 33.7215L1012 34ZM996 34L995.329 33.6646C995.213 33.8971 995.225 34.1732 995.362 34.3943C995.499 34.6154 995.74 34.75 996 34.75V34ZM1006.25 35C1006.25 35.2955 1006.19 35.5881 1006.08 35.861L1007.46 36.4351C1007.65 35.9801 1007.75 35.4925 1007.75 35H1006.25ZM1006.08 35.861C1005.97 36.134 1005.8 36.3821 1005.59 36.591L1006.65 37.6517C1007 37.3034 1007.28 36.89 1007.46 36.4351L1006.08 35.861ZM1005.59 36.591C1005.38 36.7999 1005.13 36.9657 1004.86 37.0787L1005.44 38.4645C1005.89 38.2761 1006.3 37.9999 1006.65 37.6517L1005.59 36.591ZM1004.86 37.0787C1004.59 37.1918 1004.3 37.25 1004 37.25V38.75C1004.49 38.75 1004.98 38.653 1005.44 38.4645L1004.86 37.0787ZM1004 37.25C1003.7 37.25 1003.41 37.1918 1003.14 37.0787L1002.56 38.4645C1003.02 38.653 1003.51 38.75 1004 38.75V37.25ZM1003.14 37.0787C1002.87 36.9657 1002.62 36.7999 1002.41 36.591L1001.35 37.6517C1001.7 37.9999 1002.11 38.2761 1002.56 38.4645L1003.14 37.0787ZM1002.41 36.591C1002.2 36.3821 1002.03 36.134 1001.92 35.861L1000.54 36.4351C1000.72 36.89 1001 37.3034 1001.35 37.6517L1002.41 36.591ZM1001.92 35.861C1001.81 35.5881 1001.75 35.2955 1001.75 35H1000.25C1000.25 35.4925 1000.35 35.9801 1000.54 36.4351L1001.92 35.861ZM1001.75 35V34H1000.25V35H1001.75ZM1007.75 35V34H1006.25V35H1007.75ZM1009.25 26C1009.25 27.6222 1009.78 29.7163 1010.28 31.3456C1010.54 32.1729 1010.79 32.9039 1010.98 33.4282C1011.08 33.6905 1011.16 33.9017 1011.21 34.0479C1011.24 34.121 1011.26 34.1779 1011.28 34.2169C1011.29 34.2364 1011.29 34.2515 1011.3 34.2618C1011.3 34.267 1011.3 34.271 1011.3 34.2738C1011.3 34.2752 1011.3 34.2763 1011.3 34.2771C1011.3 34.2775 1011.3 34.2778 1011.3 34.278C1011.3 34.2782 1011.3 34.2783 1011.3 34.2783C1011.3 34.2785 1011.3 34.2785 1012 34C1012.7 33.7215 1012.7 33.7215 1012.7 33.7215C1012.7 33.7215 1012.7 33.7215 1012.7 33.7215C1012.7 33.7215 1012.7 33.7213 1012.7 33.7211C1012.7 33.7207 1012.7 33.72 1012.7 33.719C1012.69 33.7169 1012.69 33.7137 1012.69 33.7093C1012.69 33.7006 1012.68 33.6872 1012.68 33.6693C1012.66 33.6336 1012.64 33.5802 1012.61 33.5107C1012.56 33.3718 1012.48 33.1688 1012.39 32.9156C1012.21 32.4086 1011.96 31.7021 1011.72 30.9044C1011.22 29.2837 1010.75 27.3778 1010.75 26H1009.25ZM996 34C996.671 34.3354 996.671 34.3353 996.671 34.3351C996.671 34.335 996.671 34.3348 996.671 34.3347C996.671 34.3344 996.672 34.334 996.672 34.3336C996.672 34.3328 996.673 34.3317 996.673 34.3304C996.675 34.3277 996.676 34.3241 996.679 34.3195C996.683 34.3104 996.69 34.2974 996.698 34.2808C996.714 34.2475 996.737 34.1994 996.766 34.1375C996.823 34.0137 996.905 33.8346 997.002 33.6079C997.196 33.155 997.454 32.5104 997.712 31.7372C998.224 30.1997 998.75 28.1134 998.75 26H997.25C997.25 27.8866 996.776 29.8003 996.288 31.2628C996.046 31.9896 995.804 32.595 995.623 33.0171C995.533 33.2279 995.458 33.3925 995.406 33.5031C995.38 33.5584 995.361 33.6002 995.347 33.6274C995.341 33.6411 995.336 33.651 995.333 33.6573C995.331 33.6604 995.33 33.6626 995.33 33.6638C995.329 33.6644 995.329 33.6648 995.329 33.6649C995.329 33.665 995.329 33.665 995.329 33.6649C995.329 33.6649 995.329 33.6648 995.329 33.6648C995.329 33.6647 995.329 33.6646 996 34ZM1012 33.25H996V34.75H1012V33.25ZM1004 19.25C1000.32 19.25 997.25 22.3178 997.25 26H998.75C998.75 23.1462 1001.15 20.75 1004 20.75V19.25ZM1010.75 26C1010.75 22.3178 1007.68 19.25 1004 19.25V20.75C1006.85 20.75 1009.25 23.1462 1009.25 26H1010.75Z" fill="white"/>
<path d="M503.196 43V13.9091H507.585V27.8011H507.94L520.142 13.9091H525.668L513.935 27.0057L525.71 43H520.426L511.023 30.0028L507.585 33.9517V43H503.196ZM529.759 43V13.9091H534.148V27.8011H534.503L546.705 13.9091H552.23L540.497 27.0057L552.273 43H546.989L537.585 30.0028L534.148 33.9517V43H529.759ZM556.321 43V13.9091H574.56V17.6875H560.71V26.5511H573.608V30.3153H560.71V39.2216H574.73V43H556.321Z" fill="url(#paint0_linear_3_55)"/>
<path d="M349.635 211L337.533 167.364H344.457L352.959 201.156H353.364L362.206 167.364H369.067L377.909 201.178H378.314L386.794 167.364H393.74L381.616 211H374.99L365.807 178.315H365.466L356.283 211H349.635ZM399.743 211V167.364H427.101V173.031H406.327V186.327H425.674V191.973H406.327V205.332H427.357V211H399.743ZM435.896 211V167.364H442.479V205.332H462.252V211H435.896ZM504.306 181.554H497.659C497.403 180.134 496.927 178.884 496.231 177.804C495.535 176.724 494.683 175.808 493.674 175.055C492.666 174.303 491.537 173.734 490.287 173.351C489.051 172.967 487.737 172.776 486.345 172.776C483.831 172.776 481.579 173.408 479.591 174.672C477.616 175.936 476.054 177.79 474.903 180.233C473.767 182.676 473.199 185.659 473.199 189.182C473.199 192.733 473.767 195.73 474.903 198.173C476.054 200.616 477.623 202.463 479.612 203.713C481.6 204.963 483.838 205.588 486.324 205.588C487.701 205.588 489.008 205.403 490.244 205.034C491.494 204.651 492.623 204.089 493.632 203.351C494.64 202.612 495.493 201.71 496.189 200.645C496.899 199.565 497.389 198.33 497.659 196.938L504.306 196.959C503.951 199.104 503.262 201.078 502.24 202.882C501.231 204.672 499.931 206.22 498.341 207.527C496.764 208.82 494.96 209.821 492.929 210.531C490.897 211.241 488.681 211.597 486.281 211.597C482.502 211.597 479.136 210.702 476.181 208.912C473.227 207.108 470.897 204.53 469.193 201.178C467.502 197.825 466.657 193.827 466.657 189.182C466.657 184.523 467.51 180.524 469.214 177.186C470.919 173.834 473.248 171.263 476.203 169.473C479.157 167.669 482.517 166.767 486.281 166.767C488.596 166.767 490.755 167.101 492.758 167.768C494.775 168.422 496.586 169.388 498.191 170.666C499.797 171.93 501.125 173.479 502.176 175.311C503.227 177.129 503.937 179.21 504.306 181.554ZM550.089 189.182C550.089 193.841 549.237 197.847 547.533 201.199C545.828 204.537 543.491 207.108 540.523 208.912C537.568 210.702 534.209 211.597 530.445 211.597C526.666 211.597 523.293 210.702 520.324 208.912C517.369 207.108 515.04 204.53 513.335 201.178C511.631 197.825 510.778 193.827 510.778 189.182C510.778 184.523 511.631 180.524 513.335 177.186C515.04 173.834 517.369 171.263 520.324 169.473C523.293 167.669 526.666 166.767 530.445 166.767C534.209 166.767 537.568 167.669 540.523 169.473C543.491 171.263 545.828 173.834 547.533 177.186C549.237 180.524 550.089 184.523 550.089 189.182ZM543.57 189.182C543.57 185.631 542.994 182.641 541.844 180.212C540.707 177.768 539.145 175.922 537.156 174.672C535.182 173.408 532.945 172.776 530.445 172.776C527.93 172.776 525.686 173.408 523.712 174.672C521.737 175.922 520.175 177.768 519.024 180.212C517.888 182.641 517.32 185.631 517.32 189.182C517.32 192.733 517.888 195.73 519.024 198.173C520.175 200.602 521.737 202.449 523.712 203.713C525.686 204.963 527.93 205.588 530.445 205.588C532.945 205.588 535.182 204.963 537.156 203.713C539.145 202.449 540.707 200.602 541.844 198.173C542.994 195.73 543.57 192.733 543.57 189.182ZM558.298 167.364H566.288L580.18 201.284H580.691L594.583 167.364H602.574V211H596.309V179.423H595.904L583.035 210.936H577.836L564.967 179.402H564.562V211H558.298V167.364ZM612.146 211V167.364H639.504V173.031H618.729V186.327H638.076V191.973H618.729V205.332H639.759V211H612.146ZM662.025 173.031V167.364H695.796V173.031H682.181V211H675.619V173.031H662.025ZM739.289 189.182C739.289 193.841 738.436 197.847 736.732 201.199C735.027 204.537 732.691 207.108 729.722 208.912C726.767 210.702 723.408 211.597 719.644 211.597C715.865 211.597 712.492 210.702 709.523 208.912C706.569 207.108 704.239 204.53 702.534 201.178C700.83 197.825 699.978 193.827 699.978 189.182C699.978 184.523 700.83 180.524 702.534 177.186C704.239 173.834 706.569 171.263 709.523 169.473C712.492 167.669 715.865 166.767 719.644 166.767C723.408 166.767 726.767 167.669 729.722 169.473C732.691 171.263 735.027 173.834 736.732 177.186C738.436 180.524 739.289 184.523 739.289 189.182ZM732.769 189.182C732.769 185.631 732.194 182.641 731.043 180.212C729.907 177.768 728.344 175.922 726.355 174.672C724.381 173.408 722.144 172.776 719.644 172.776C717.13 172.776 714.885 173.408 712.911 174.672C710.936 175.922 709.374 177.768 708.223 180.212C707.087 182.641 706.519 185.631 706.519 189.182C706.519 192.733 707.087 195.73 708.223 198.173C709.374 200.602 710.936 202.449 712.911 203.713C714.885 204.963 717.13 205.588 719.644 205.588C722.144 205.588 724.381 204.963 726.355 203.713C728.344 202.449 729.907 200.602 731.043 198.173C732.194 195.73 732.769 192.733 732.769 189.182Z" fill="black"/>
<path d="M468.665 301V242.818H477.444V270.602H478.154L502.558 242.818H513.609L490.143 269.011L513.694 301H503.126L484.319 275.006L477.444 282.903V301H468.665ZM521.79 301V242.818H530.569V270.602H531.279L555.683 242.818H566.734L543.268 269.011L566.819 301H556.251L537.444 275.006L530.569 282.903V301H521.79ZM574.915 301V242.818H611.393V250.375H583.694V268.102H609.489V275.631H583.694V293.443H611.734V301H574.915Z" fill="url(#paint1_linear_3_55)"/>
<path d="M394.543 549V546.955C394.543 546.351 394.657 545.715 394.884 545.048C395.111 544.38 395.427 543.741 395.832 543.13C396.237 542.519 396.713 541.997 397.26 541.564L398.836 542.693C398.403 543.325 398.034 543.986 397.728 544.675C397.423 545.364 397.27 546.113 397.27 546.923V549H394.543ZM399.976 549V546.955C399.976 546.351 400.09 545.715 400.317 545.048C400.544 544.38 400.861 543.741 401.265 543.13C401.67 542.519 402.146 541.997 402.693 541.564L404.27 542.693C403.836 543.325 403.467 543.986 403.162 544.675C402.856 545.364 402.704 546.113 402.704 546.923V549H399.976ZM414.06 564.33C412.448 564.33 411.059 563.986 409.895 563.297C408.737 562.601 407.842 561.624 407.21 560.367C406.585 559.103 406.272 557.622 406.272 555.925C406.272 554.249 406.585 552.771 407.21 551.493C407.842 550.214 408.723 549.217 409.852 548.499C410.988 547.782 412.316 547.423 413.836 547.423C414.76 547.423 415.655 547.576 416.521 547.881C417.388 548.187 418.165 548.666 418.854 549.32C419.543 549.973 420.086 550.822 420.484 551.866C420.882 552.903 421.081 554.163 421.081 555.648V556.777H408.073V554.391H417.959C417.959 553.553 417.789 552.81 417.448 552.164C417.107 551.511 416.628 550.996 416.01 550.619C415.399 550.243 414.682 550.055 413.858 550.055C412.963 550.055 412.182 550.275 411.514 550.715C410.853 551.148 410.342 551.717 409.98 552.42C409.625 553.116 409.447 553.872 409.447 554.689V556.553C409.447 557.647 409.639 558.577 410.022 559.344C410.413 560.112 410.956 560.697 411.652 561.102C412.348 561.5 413.162 561.699 414.092 561.699C414.696 561.699 415.246 561.614 415.743 561.443C416.241 561.266 416.67 561.003 417.032 560.655C417.395 560.307 417.672 559.877 417.863 559.366L420.878 559.909C420.637 560.797 420.204 561.575 419.579 562.242C418.961 562.903 418.183 563.418 417.245 563.787C416.315 564.149 415.253 564.33 414.06 564.33ZM424.615 570.136V547.636H427.726V550.289H427.992C428.177 549.948 428.443 549.554 428.791 549.107C429.139 548.659 429.622 548.268 430.24 547.935C430.858 547.594 431.675 547.423 432.69 547.423C434.011 547.423 435.19 547.757 436.227 548.425C437.264 549.092 438.077 550.055 438.667 551.312C439.263 552.569 439.562 554.082 439.562 555.85C439.562 557.619 439.267 559.135 438.677 560.399C438.088 561.656 437.278 562.626 436.248 563.308C435.219 563.982 434.043 564.32 432.722 564.32C431.728 564.32 430.915 564.153 430.283 563.819C429.658 563.485 429.168 563.094 428.812 562.647C428.457 562.2 428.184 561.802 427.992 561.454H427.8V570.136H424.615ZM427.736 555.818C427.736 556.969 427.903 557.977 428.237 558.844C428.571 559.71 429.054 560.388 429.686 560.879C430.318 561.362 431.092 561.603 432.008 561.603C432.96 561.603 433.756 561.351 434.395 560.847C435.034 560.335 435.517 559.643 435.844 558.769C436.177 557.896 436.344 556.912 436.344 555.818C436.344 554.739 436.181 553.769 435.854 552.91C435.535 552.05 435.052 551.372 434.405 550.875C433.766 550.378 432.967 550.129 432.008 550.129C431.085 550.129 430.304 550.367 429.665 550.843C429.033 551.319 428.553 551.983 428.226 552.835C427.9 553.687 427.736 554.682 427.736 555.818ZM443.131 564V547.636H446.316V564H443.131ZM444.739 545.112C444.185 545.112 443.709 544.927 443.312 544.558C442.921 544.181 442.726 543.734 442.726 543.215C442.726 542.69 442.921 542.242 443.312 541.873C443.709 541.496 444.185 541.308 444.739 541.308C445.293 541.308 445.766 541.496 446.156 541.873C446.554 542.242 446.753 542.69 446.753 543.215C446.753 543.734 446.554 544.181 446.156 544.558C445.766 544.927 445.293 545.112 444.739 545.112ZM457.494 564.33C455.91 564.33 454.547 563.972 453.403 563.254C452.267 562.53 451.393 561.532 450.782 560.261C450.172 558.989 449.866 557.533 449.866 555.893C449.866 554.231 450.179 552.764 450.804 551.493C451.429 550.214 452.309 549.217 453.446 548.499C454.582 547.782 455.921 547.423 457.462 547.423C458.705 547.423 459.813 547.654 460.786 548.116C461.759 548.57 462.544 549.21 463.14 550.033C463.744 550.857 464.103 551.82 464.216 552.92H461.116C460.946 552.153 460.555 551.493 459.944 550.939C459.341 550.385 458.531 550.108 457.515 550.108C456.628 550.108 455.85 550.342 455.182 550.811C454.522 551.273 454.007 551.933 453.638 552.793C453.268 553.645 453.084 554.653 453.084 555.818C453.084 557.011 453.265 558.041 453.627 558.908C453.989 559.774 454.5 560.445 455.161 560.921C455.829 561.397 456.613 561.635 457.515 561.635C458.119 561.635 458.666 561.525 459.156 561.305C459.653 561.077 460.069 560.754 460.402 560.335C460.743 559.916 460.981 559.412 461.116 558.822H464.216C464.103 559.881 463.758 560.825 463.183 561.656C462.608 562.487 461.837 563.141 460.871 563.616C459.912 564.092 458.787 564.33 457.494 564.33ZM475.562 564V547.636H478.641V550.236H478.812C479.11 549.355 479.635 548.663 480.388 548.158C481.148 547.647 482.008 547.391 482.966 547.391C483.165 547.391 483.4 547.398 483.669 547.413C483.946 547.427 484.163 547.445 484.319 547.466V550.513C484.191 550.477 483.964 550.438 483.638 550.396C483.311 550.346 482.984 550.321 482.657 550.321C481.905 550.321 481.233 550.481 480.644 550.8C480.062 551.113 479.6 551.55 479.259 552.111C478.918 552.665 478.748 553.297 478.748 554.007V564H475.562ZM491.691 564.362C490.655 564.362 489.717 564.17 488.879 563.787C488.041 563.396 487.377 562.832 486.887 562.093C486.404 561.354 486.162 560.449 486.162 559.376C486.162 558.453 486.34 557.693 486.695 557.097C487.05 556.5 487.53 556.028 488.133 555.68C488.737 555.332 489.412 555.069 490.157 554.891C490.903 554.714 491.663 554.579 492.437 554.487C493.417 554.373 494.213 554.281 494.824 554.21C495.434 554.131 495.878 554.007 496.155 553.837C496.432 553.666 496.571 553.389 496.571 553.006V552.931C496.571 552.001 496.308 551.28 495.782 550.768C495.264 550.257 494.49 550.001 493.46 550.001C492.388 550.001 491.542 550.239 490.924 550.715C490.314 551.184 489.891 551.706 489.657 552.281L486.663 551.599C487.018 550.605 487.537 549.803 488.218 549.192C488.907 548.574 489.699 548.126 490.594 547.849C491.489 547.565 492.43 547.423 493.417 547.423C494.071 547.423 494.763 547.501 495.495 547.658C496.233 547.807 496.922 548.084 497.562 548.489C498.208 548.893 498.737 549.472 499.149 550.225C499.561 550.971 499.767 551.94 499.767 553.134V564H496.656V561.763H496.528C496.322 562.175 496.013 562.58 495.601 562.977C495.189 563.375 494.66 563.705 494.014 563.968C493.368 564.231 492.593 564.362 491.691 564.362ZM492.384 561.805C493.265 561.805 494.017 561.631 494.642 561.283C495.275 560.935 495.754 560.481 496.081 559.92C496.415 559.352 496.581 558.744 496.581 558.098V555.989C496.468 556.102 496.248 556.209 495.921 556.308C495.601 556.401 495.236 556.482 494.824 556.553C494.412 556.617 494.01 556.678 493.62 556.734C493.229 556.784 492.902 556.827 492.64 556.862C492.022 556.94 491.457 557.072 490.946 557.256C490.441 557.441 490.037 557.707 489.731 558.055C489.433 558.396 489.284 558.851 489.284 559.419C489.284 560.207 489.575 560.804 490.157 561.209C490.74 561.607 491.482 561.805 492.384 561.805ZM507.195 554.284V564H504.009V547.636H507.067V550.3H507.269C507.646 549.433 508.235 548.737 509.038 548.212C509.848 547.686 510.867 547.423 512.095 547.423C513.21 547.423 514.187 547.658 515.025 548.126C515.863 548.588 516.513 549.277 516.975 550.193C517.436 551.109 517.667 552.242 517.667 553.592V564H514.482V553.975C514.482 552.789 514.173 551.862 513.555 551.195C512.937 550.52 512.088 550.183 511.009 550.183C510.27 550.183 509.613 550.342 509.038 550.662C508.47 550.982 508.019 551.45 507.685 552.068C507.358 552.679 507.195 553.418 507.195 554.284ZM528.065 564.32C526.744 564.32 525.565 563.982 524.528 563.308C523.498 562.626 522.688 561.656 522.099 560.399C521.517 559.135 521.225 557.619 521.225 555.85C521.225 554.082 521.52 552.569 522.11 551.312C522.706 550.055 523.523 549.092 524.56 548.425C525.597 547.757 526.772 547.423 528.086 547.423C529.102 547.423 529.919 547.594 530.536 547.935C531.161 548.268 531.644 548.659 531.985 549.107C532.333 549.554 532.603 549.948 532.795 550.289H532.987V542.182H536.172V564H533.061V561.454H532.795C532.603 561.802 532.326 562.2 531.964 562.647C531.609 563.094 531.119 563.485 530.494 563.819C529.869 564.153 529.059 564.32 528.065 564.32ZM528.768 561.603C529.684 561.603 530.458 561.362 531.09 560.879C531.73 560.388 532.213 559.71 532.539 558.844C532.873 557.977 533.04 556.969 533.04 555.818C533.04 554.682 532.877 553.687 532.55 552.835C532.223 551.983 531.744 551.319 531.112 550.843C530.48 550.367 529.698 550.129 528.768 550.129C527.809 550.129 527.01 550.378 526.371 550.875C525.732 551.372 525.249 552.05 524.922 552.91C524.603 553.769 524.443 554.739 524.443 555.818C524.443 556.912 524.606 557.896 524.933 558.769C525.259 559.643 525.742 560.335 526.382 560.847C527.028 561.351 527.823 561.603 528.768 561.603ZM547.611 564.33C546.077 564.33 544.738 563.979 543.595 563.276C542.451 562.572 541.564 561.589 540.932 560.325C540.299 559.06 539.983 557.583 539.983 555.893C539.983 554.195 540.299 552.711 540.932 551.44C541.564 550.168 542.451 549.181 543.595 548.478C544.738 547.775 546.077 547.423 547.611 547.423C549.145 547.423 550.484 547.775 551.628 548.478C552.771 549.181 553.659 550.168 554.291 551.44C554.923 552.711 555.239 554.195 555.239 555.893C555.239 557.583 554.923 559.06 554.291 560.325C553.659 561.589 552.771 562.572 551.628 563.276C550.484 563.979 549.145 564.33 547.611 564.33ZM547.622 561.656C548.616 561.656 549.44 561.393 550.093 560.868C550.747 560.342 551.23 559.643 551.542 558.769C551.862 557.896 552.022 556.933 552.022 555.882C552.022 554.838 551.862 553.879 551.542 553.006C551.23 552.125 550.747 551.418 550.093 550.886C549.44 550.353 548.616 550.087 547.622 550.087C546.62 550.087 545.79 550.353 545.129 550.886C544.476 551.418 543.989 552.125 543.669 553.006C543.357 553.879 543.201 554.838 543.201 555.882C543.201 556.933 543.357 557.896 543.669 558.769C543.989 559.643 544.476 560.342 545.129 560.868C545.79 561.393 546.62 561.656 547.622 561.656ZM558.795 564V547.636H561.852V550.3H562.055C562.396 549.398 562.953 548.695 563.727 548.19C564.501 547.679 565.428 547.423 566.508 547.423C567.601 547.423 568.518 547.679 569.256 548.19C570.002 548.702 570.552 549.405 570.908 550.3H571.078C571.469 549.426 572.09 548.73 572.942 548.212C573.795 547.686 574.81 547.423 575.989 547.423C577.474 547.423 578.685 547.888 579.622 548.819C580.567 549.749 581.039 551.152 581.039 553.027V564H577.854V553.325C577.854 552.217 577.552 551.415 576.948 550.918C576.344 550.42 575.623 550.172 574.785 550.172C573.748 550.172 572.942 550.491 572.367 551.131C571.792 551.763 571.504 552.576 571.504 553.57V564H568.329V553.123C568.329 552.235 568.052 551.521 567.498 550.982C566.945 550.442 566.224 550.172 565.336 550.172C564.732 550.172 564.175 550.332 563.663 550.651C563.159 550.964 562.751 551.401 562.438 551.962C562.133 552.523 561.98 553.173 561.98 553.911V564H558.795ZM604.295 570.136V561.454H604.104C603.912 561.802 603.635 562.2 603.273 562.647C602.918 563.094 602.427 563.485 601.802 563.819C601.177 564.153 600.368 564.32 599.373 564.32C598.052 564.32 596.873 563.982 595.837 563.308C594.807 562.626 593.997 561.656 593.408 560.399C592.825 559.135 592.534 557.619 592.534 555.85C592.534 554.082 592.829 552.569 593.418 551.312C594.015 550.055 594.832 549.092 595.869 548.425C596.905 547.757 598.081 547.423 599.395 547.423C600.41 547.423 601.227 547.594 601.845 547.935C602.47 548.268 602.953 548.659 603.294 549.107C603.642 549.554 603.912 549.948 604.104 550.289H604.37V547.636H607.481V570.136H604.295ZM600.077 561.603C600.993 561.603 601.767 561.362 602.399 560.879C603.038 560.388 603.521 559.71 603.848 558.844C604.182 557.977 604.349 556.969 604.349 555.818C604.349 554.682 604.185 553.687 603.859 552.835C603.532 551.983 603.052 551.319 602.42 550.843C601.788 550.367 601.007 550.129 600.077 550.129C599.118 550.129 598.319 550.378 597.68 550.875C597.04 551.372 596.557 552.05 596.231 552.91C595.911 553.769 595.751 554.739 595.751 555.818C595.751 556.912 595.915 557.896 596.241 558.769C596.568 559.643 597.051 560.335 597.69 560.847C598.337 561.351 599.132 561.603 600.077 561.603ZM622.129 557.214V547.636H625.325V564H622.193V561.166H622.023C621.646 562.04 621.043 562.768 620.212 563.35C619.388 563.925 618.361 564.213 617.133 564.213C616.082 564.213 615.151 563.982 614.342 563.521C613.539 563.052 612.907 562.359 612.445 561.443C611.991 560.527 611.763 559.394 611.763 558.045V547.636H614.949V557.661C614.949 558.776 615.258 559.664 615.876 560.325C616.494 560.985 617.296 561.315 618.283 561.315C618.88 561.315 619.473 561.166 620.062 560.868C620.659 560.57 621.153 560.119 621.543 559.515C621.941 558.911 622.136 558.144 622.129 557.214ZM636.498 564.33C634.964 564.33 633.625 563.979 632.482 563.276C631.338 562.572 630.45 561.589 629.818 560.325C629.186 559.06 628.87 557.583 628.87 555.893C628.87 554.195 629.186 552.711 629.818 551.44C630.45 550.168 631.338 549.181 632.482 548.478C633.625 547.775 634.964 547.423 636.498 547.423C638.032 547.423 639.371 547.775 640.514 548.478C641.658 549.181 642.546 550.168 643.178 551.44C643.81 552.711 644.126 554.195 644.126 555.893C644.126 557.583 643.81 559.06 643.178 560.325C642.546 561.589 641.658 562.572 640.514 563.276C639.371 563.979 638.032 564.33 636.498 564.33ZM636.509 561.656C637.503 561.656 638.327 561.393 638.98 560.868C639.634 560.342 640.117 559.643 640.429 558.769C640.749 557.896 640.908 556.933 640.908 555.882C640.908 554.838 640.749 553.879 640.429 553.006C640.117 552.125 639.634 551.418 638.98 550.886C638.327 550.353 637.503 550.087 636.509 550.087C635.507 550.087 634.676 550.353 634.016 550.886C633.362 551.418 632.876 552.125 632.556 553.006C632.244 553.879 632.087 554.838 632.087 555.882C632.087 556.933 632.244 557.896 632.556 558.769C632.876 559.643 633.362 560.342 634.016 560.868C634.676 561.393 635.507 561.656 636.509 561.656ZM655.32 547.636V550.193H646.382V547.636H655.32ZM648.779 543.716H651.964V559.195C651.964 559.813 652.056 560.278 652.241 560.591C652.426 560.896 652.664 561.106 652.955 561.219C653.253 561.326 653.576 561.379 653.924 561.379C654.18 561.379 654.404 561.362 654.595 561.326C654.787 561.29 654.936 561.262 655.043 561.241L655.618 563.872C655.434 563.943 655.171 564.014 654.83 564.085C654.489 564.163 654.063 564.206 653.551 564.213C652.713 564.227 651.932 564.078 651.208 563.766C650.483 563.453 649.897 562.97 649.45 562.317C649.002 561.663 648.779 560.843 648.779 559.856V543.716ZM665.72 564.33C664.108 564.33 662.72 563.986 661.555 563.297C660.397 562.601 659.502 561.624 658.87 560.367C658.245 559.103 657.933 557.622 657.933 555.925C657.933 554.249 658.245 552.771 658.87 551.493C659.502 550.214 660.383 549.217 661.512 548.499C662.649 547.782 663.977 547.423 665.497 547.423C666.42 547.423 667.315 547.576 668.181 547.881C669.048 548.187 669.825 548.666 670.514 549.32C671.203 549.973 671.747 550.822 672.144 551.866C672.542 552.903 672.741 554.163 672.741 555.648V556.777H659.733V554.391H669.619C669.619 553.553 669.449 552.81 669.108 552.164C668.767 551.511 668.288 550.996 667.67 550.619C667.059 550.243 666.342 550.055 665.518 550.055C664.623 550.055 663.842 550.275 663.174 550.715C662.514 551.148 662.002 551.717 661.64 552.42C661.285 553.116 661.107 553.872 661.107 554.689V556.553C661.107 557.647 661.299 558.577 661.683 559.344C662.073 560.112 662.617 560.697 663.313 561.102C664.009 561.5 664.822 561.699 665.752 561.699C666.356 561.699 666.906 561.614 667.403 561.443C667.901 561.266 668.33 561.003 668.693 560.655C669.055 560.307 669.332 559.877 669.524 559.366L672.538 559.909C672.297 560.797 671.864 561.575 671.239 562.242C670.621 562.903 669.843 563.418 668.906 563.787C667.975 564.149 666.913 564.33 665.72 564.33ZM679.013 542.182V544.227C679.013 544.831 678.899 545.467 678.672 546.134C678.452 546.795 678.139 547.43 677.735 548.041C677.33 548.652 676.854 549.178 676.307 549.618L674.73 548.489C675.149 547.878 675.512 547.228 675.817 546.539C676.13 545.85 676.286 545.09 676.286 544.259V542.182H679.013ZM684.436 542.182V544.227C684.436 544.831 684.322 545.467 684.095 546.134C683.875 546.795 683.562 547.43 683.157 548.041C682.752 548.652 682.277 549.178 681.73 549.618L680.153 548.489C680.572 547.878 680.934 547.228 681.24 546.539C681.552 545.85 681.708 545.09 681.708 544.259V542.182H684.436Z" fill="#5A6F71"/>
<path d="M331 392C331 376.915 331 369.373 335.686 364.686C340.373 360 347.915 360 363 360H717C732.085 360 739.627 360 744.314 364.686C749 369.373 749 376.915 749 392V430C749 445.085 749 452.627 744.314 457.314C739.627 462 732.085 462 717 462H363C347.915 462 340.373 462 335.686 457.314C331 452.627 331 445.085 331 430V392Z" fill="url(#paint2_linear_3_55)"/>
<path d="M509.94 419.168C508.772 419.168 507.716 418.968 506.772 418.568C505.844 418.168 505.108 417.592 504.564 416.84C504.02 416.088 503.74 415.2 503.724 414.176H507.324C507.372 414.864 507.612 415.408 508.044 415.808C508.492 416.208 509.1 416.408 509.868 416.408C510.652 416.408 511.268 416.224 511.716 415.856C512.164 415.472 512.388 414.976 512.388 414.368C512.388 413.872 512.236 413.464 511.932 413.144C511.628 412.824 511.244 412.576 510.78 412.4C510.332 412.208 509.708 412 508.908 411.776C507.82 411.456 506.932 411.144 506.244 410.84C505.572 410.52 504.988 410.048 504.492 409.424C504.012 408.784 503.772 407.936 503.772 406.88C503.772 405.888 504.02 405.024 504.516 404.288C505.012 403.552 505.708 402.992 506.604 402.608C507.5 402.208 508.524 402.008 509.676 402.008C511.404 402.008 512.804 402.432 513.876 403.28C514.964 404.112 515.564 405.28 515.676 406.784H511.98C511.948 406.208 511.7 405.736 511.236 405.368C510.788 404.984 510.188 404.792 509.436 404.792C508.78 404.792 508.252 404.96 507.852 405.296C507.468 405.632 507.276 406.12 507.276 406.76C507.276 407.208 507.42 407.584 507.708 407.888C508.012 408.176 508.38 408.416 508.812 408.608C509.26 408.784 509.884 408.992 510.684 409.232C511.772 409.552 512.66 409.872 513.348 410.192C514.036 410.512 514.628 410.992 515.124 411.632C515.62 412.272 515.868 413.112 515.868 414.152C515.868 415.048 515.636 415.88 515.172 416.648C514.708 417.416 514.028 418.032 513.132 418.496C512.236 418.944 511.172 419.168 509.94 419.168ZM530.181 402.248V404.96H525.717V419H522.357V404.96H517.893V402.248H530.181ZM542.905 415.808H536.233L535.129 419H531.601L537.625 402.224H541.537L547.561 419H544.009L542.905 415.808ZM541.993 413.12L539.569 406.112L537.145 413.12H541.993ZM558.452 419L554.756 412.472H553.172V419H549.812V402.248H556.1C557.396 402.248 558.5 402.48 559.412 402.944C560.324 403.392 561.004 404.008 561.452 404.792C561.916 405.56 562.148 406.424 562.148 407.384C562.148 408.488 561.828 409.488 561.188 410.384C560.548 411.264 559.596 411.872 558.332 412.208L562.34 419H558.452ZM553.172 409.952H555.98C556.892 409.952 557.572 409.736 558.02 409.304C558.468 408.856 558.692 408.24 558.692 407.456C558.692 406.688 558.468 406.096 558.02 405.68C557.572 405.248 556.892 405.032 555.98 405.032H553.172V409.952ZM576.587 402.248V404.96H572.123V419H568.763V404.96H564.299V402.248H576.587Z" fill="white"/>
<defs>
<linearGradient id="paint0_linear_3_55" x1="500" y1="29.5" x2="580" y2="29.5" gradientUnits="userSpaceOnUse">
<stop stop-color="#3CAADA"/>
<stop offset="1" stop-color="#4F6FE0"/>
</linearGradient>
<linearGradient id="paint1_linear_3_55" x1="336" y1="230.5" x2="743" y2="230.5" gradientUnits="userSpaceOnUse">
<stop stop-color="#3AA0CC"/>
<stop offset="0.0677083" stop-color="#71C1E7"/>
<stop offset="1" stop-color="#2489FF"/>
</linearGradient>
<linearGradient id="paint2_linear_3_55" x1="331" y1="411" x2="749" y2="411" gradientUnits="userSpaceOnUse">
<stop stop-color="#3AA0CC"/>
<stop offset="1" stop-color="#4F54E0"/>
</linearGradient>
</defs>
</svg>
