<svg width="1080" height="720" viewBox="0 0 1080 720" fill="none" xmlns="http://www.w3.org/2000/svg">
<rect width="1080" height="720" fill="#F0F0F0"/>
<path d="M11.4517 709.181C10.9332 709.181 10.4645 709.085 10.0455 708.893C9.62642 708.698 9.29439 708.416 9.04936 708.047C8.80788 707.677 8.68714 707.224 8.68714 706.688C8.68714 706.227 8.77592 705.847 8.95348 705.548C9.13104 705.25 9.37074 705.014 9.67259 704.84C9.97443 704.666 10.3118 704.534 10.6847 704.446C11.0575 704.357 11.4375 704.289 11.8246 704.243C12.3146 704.186 12.7124 704.14 13.0178 704.105C13.3232 704.066 13.5451 704.004 13.6836 703.918C13.8221 703.833 13.8913 703.695 13.8913 703.503V703.466C13.8913 703 13.7599 702.64 13.4972 702.384C13.2379 702.129 12.8509 702.001 12.3359 702.001C11.7997 702.001 11.3771 702.12 11.0682 702.358C10.7628 702.592 10.5515 702.853 10.4343 703.141L8.9375 702.8C9.11506 702.303 9.37429 701.901 9.7152 701.596C10.0597 701.287 10.4556 701.063 10.9031 700.925C11.3505 700.783 11.821 700.712 12.3146 700.712C12.6413 700.712 12.9876 700.751 13.3533 700.829C13.7227 700.903 14.0671 701.042 14.3867 701.244C14.7099 701.447 14.9744 701.736 15.1804 702.113C15.3864 702.485 15.4893 702.97 15.4893 703.567V709H13.9339V707.881H13.87C13.767 708.087 13.6126 708.29 13.4066 708.489C13.2006 708.687 12.9361 708.853 12.6129 708.984C12.2898 709.115 11.9027 709.181 11.4517 709.181ZM11.7979 707.903C12.2383 707.903 12.6147 707.816 12.9272 707.642C13.2433 707.468 13.483 707.24 13.6463 706.96C13.8132 706.676 13.8967 706.372 13.8967 706.049V704.994C13.8398 705.051 13.7298 705.104 13.5664 705.154C13.4066 705.2 13.2237 705.241 13.0178 705.277C12.8118 705.309 12.6112 705.339 12.4158 705.367C12.2205 705.392 12.0572 705.413 11.9258 705.431C11.6168 705.47 11.3345 705.536 11.0788 705.628C10.8267 705.721 10.6243 705.854 10.4716 706.028C10.3224 706.198 10.2479 706.425 10.2479 706.71C10.2479 707.104 10.3935 707.402 10.6847 707.604C10.9759 707.803 11.3469 707.903 11.7979 707.903ZM19.2034 698.091V709H17.6107V698.091H19.2034ZM21.3461 712.068V700.818H22.9015V702.145H23.0346C23.127 701.974 23.2601 701.777 23.4341 701.553C23.6081 701.33 23.8496 701.134 24.1586 700.967C24.4675 700.797 24.8759 700.712 25.3837 700.712C26.0442 700.712 26.6337 700.879 27.1522 701.212C27.6706 701.546 28.0772 702.027 28.372 702.656C28.6703 703.284 28.8194 704.041 28.8194 704.925C28.8194 705.809 28.6721 706.567 28.3773 707.2C28.0826 707.828 27.6777 708.313 27.1628 708.654C26.6479 708.991 26.0602 709.16 25.3997 709.16C24.9025 709.16 24.4959 709.076 24.1799 708.909C23.8674 708.743 23.6223 708.547 23.4448 708.324C23.2672 708.1 23.1305 707.901 23.0346 707.727H22.9387V712.068H21.3461ZM22.9068 704.909C22.9068 705.484 22.9902 705.989 23.1571 706.422C23.324 706.855 23.5655 707.194 23.8816 707.439C24.1976 707.681 24.5847 707.801 25.0428 707.801C25.5186 707.801 25.9164 707.675 26.236 707.423C26.5556 707.168 26.7971 706.821 26.9604 706.385C27.1273 705.948 27.2108 705.456 27.2108 704.909C27.2108 704.369 27.1291 703.885 26.9657 703.455C26.8059 703.025 26.5645 702.686 26.2413 702.438C25.9217 702.189 25.5222 702.065 25.0428 702.065C24.5811 702.065 24.1905 702.184 23.8709 702.422C23.5549 702.659 23.3152 702.991 23.1518 703.418C22.9885 703.844 22.9068 704.341 22.9068 704.909ZM32.1966 704.142V709H30.6039V698.091H32.1752V702.15H32.2765C32.4682 701.71 32.7612 701.36 33.1554 701.1C33.5495 700.841 34.0645 700.712 34.7001 700.712C35.2612 700.712 35.7512 700.827 36.1703 701.058C36.5929 701.289 36.9196 701.633 37.1504 702.091C37.3848 702.546 37.502 703.114 37.502 703.796V709H35.9093V703.988C35.9093 703.387 35.7548 702.922 35.4458 702.592C35.1369 702.258 34.7072 702.091 34.1568 702.091C33.7804 702.091 33.443 702.171 33.1447 702.331C32.85 702.491 32.6174 702.725 32.4469 703.034C32.28 703.339 32.1966 703.709 32.1966 704.142ZM42.0083 709.181C41.4899 709.181 41.0211 709.085 40.6021 708.893C40.1831 708.698 39.851 708.416 39.606 708.047C39.3645 707.677 39.2438 707.224 39.2438 706.688C39.2438 706.227 39.3326 705.847 39.5101 705.548C39.6877 705.25 39.9274 705.014 40.2292 704.84C40.5311 704.666 40.8684 704.534 41.2413 704.446C41.6142 704.357 41.9941 704.289 42.3812 704.243C42.8713 704.186 43.269 704.14 43.5744 704.105C43.8798 704.066 44.1017 704.004 44.2402 703.918C44.3787 703.833 44.448 703.695 44.448 703.503V703.466C44.448 703 44.3166 702.64 44.0538 702.384C43.7946 702.129 43.4075 702.001 42.8926 702.001C42.3564 702.001 41.9338 702.12 41.6248 702.358C41.3194 702.592 41.1081 702.853 40.9909 703.141L39.4941 702.8C39.6717 702.303 39.9309 701.901 40.2718 701.596C40.6163 701.287 41.0123 701.063 41.4597 700.925C41.9071 700.783 42.3777 700.712 42.8713 700.712C43.198 700.712 43.5442 700.751 43.91 700.829C44.2793 700.903 44.6238 701.042 44.9434 701.244C45.2665 701.447 45.5311 701.736 45.737 702.113C45.943 702.485 46.046 702.97 46.046 703.567V709H44.4906V707.881H44.4267C44.3237 708.087 44.1692 708.29 43.9632 708.489C43.7573 708.687 43.4927 708.853 43.1696 708.984C42.8464 709.115 42.4593 709.181 42.0083 709.181ZM42.3546 707.903C42.7949 707.903 43.1713 707.816 43.4838 707.642C43.7999 707.468 44.0396 707.24 44.2029 706.96C44.3699 706.676 44.4533 706.372 44.4533 706.049V704.994C44.3965 705.051 44.2864 705.104 44.123 705.154C43.9632 705.2 43.7804 705.241 43.5744 705.277C43.3684 705.309 43.1678 705.339 42.9725 705.367C42.7772 705.392 42.6138 705.413 42.4824 705.431C42.1735 705.47 41.8912 705.536 41.6355 705.628C41.3833 705.721 41.1809 705.854 41.0282 706.028C40.8791 706.198 40.8045 706.425 40.8045 706.71C40.8045 707.104 40.9501 707.402 41.2413 707.604C41.5325 707.803 41.9036 707.903 42.3546 707.903ZM59.1364 700.818L56.1694 709H54.4648L51.4925 700.818H53.2024L55.2745 707.114H55.3597L57.4265 700.818H59.1364ZM64.4098 709.181C63.5682 709.178 62.8491 708.956 62.2525 708.515C61.6559 708.075 61.1996 707.434 60.8835 706.592C60.5675 705.751 60.4094 704.737 60.4094 703.551C60.4094 702.368 60.5675 701.358 60.8835 700.52C61.2031 699.682 61.6612 699.043 62.2578 698.602C62.858 698.162 63.5753 697.942 64.4098 697.942C65.2443 697.942 65.9599 698.164 66.5565 698.608C67.1531 699.048 67.6094 699.687 67.9254 700.525C68.245 701.36 68.4048 702.368 68.4048 703.551C68.4048 704.74 68.2468 705.756 67.9308 706.598C67.6147 707.436 67.1584 708.077 66.5618 708.521C65.9652 708.961 65.2479 709.181 64.4098 709.181ZM64.4098 707.759C65.1484 707.759 65.7255 707.398 66.141 706.678C66.56 705.957 66.7695 704.914 66.7695 703.551C66.7695 702.645 66.6737 701.88 66.4819 701.255C66.2937 700.626 66.022 700.151 65.6669 699.827C65.3153 699.501 64.8963 699.337 64.4098 699.337C63.6747 699.337 63.0977 699.7 62.6786 700.424C62.2596 701.148 62.0483 702.191 62.0447 703.551C62.0447 704.46 62.1388 705.229 62.3271 705.857C62.5188 706.482 62.7905 706.956 63.142 707.279C63.4936 707.599 63.9162 707.759 64.4098 707.759ZM70.9696 709.101C70.6784 709.101 70.4281 708.998 70.2186 708.792C70.0091 708.583 69.9043 708.331 69.9043 708.036C69.9043 707.745 70.0091 707.496 70.2186 707.29C70.4281 707.081 70.6784 706.976 70.9696 706.976C71.2608 706.976 71.5112 707.081 71.7207 707.29C71.9302 707.496 72.035 707.745 72.035 708.036C72.035 708.231 71.9853 708.411 71.8858 708.574C71.79 708.734 71.6621 708.862 71.5023 708.957C71.3425 709.053 71.165 709.101 70.9696 709.101ZM77.5494 709.181C76.7078 709.178 75.9887 708.956 75.3921 708.515C74.7955 708.075 74.3392 707.434 74.0232 706.592C73.7071 705.751 73.5491 704.737 73.5491 703.551C73.5491 702.368 73.7071 701.358 74.0232 700.52C74.3428 699.682 74.8009 699.043 75.3975 698.602C75.9976 698.162 76.7149 697.942 77.5494 697.942C78.384 697.942 79.0995 698.164 79.6961 698.608C80.2927 699.048 80.749 699.687 81.0651 700.525C81.3847 701.36 81.5445 702.368 81.5445 703.551C81.5445 704.74 81.3865 705.756 81.0704 706.598C80.7544 707.436 80.298 708.077 79.7014 708.521C79.1048 708.961 78.3875 709.181 77.5494 709.181ZM77.5494 707.759C78.2881 707.759 78.8651 707.398 79.2806 706.678C79.6997 705.957 79.9092 704.914 79.9092 703.551C79.9092 702.645 79.8133 701.88 79.6215 701.255C79.4333 700.626 79.1617 700.151 78.8066 699.827C78.455 699.501 78.036 699.337 77.5494 699.337C76.8144 699.337 76.2373 699.7 75.8183 700.424C75.3992 701.148 75.1879 702.191 75.1844 703.551C75.1844 704.46 75.2785 705.229 75.4667 705.857C75.6585 706.482 75.9301 706.956 76.2817 707.279C76.6333 707.599 77.0558 707.759 77.5494 707.759ZM87.573 698.091V709H85.9217V699.742H85.8578L83.2477 701.447V699.87L85.9696 698.091H87.573Z" fill="black" fill-opacity="0.24"/>
<rect width="1080" height="58" fill="#454545"/>
<path d="M17 19H47M17 39H47M17 29H47" stroke="#DFDFDF" stroke-width="6"/>
<path d="M354.656 503.27C353.056 503.27 351.616 502.92 350.336 502.22C349.056 501.5 348.046 500.49 347.306 499.19C346.586 497.89 346.226 496.39 346.226 494.69C346.226 492.99 346.596 491.49 347.336 490.19C348.096 488.89 349.126 487.89 350.426 487.19C351.726 486.47 353.176 486.11 354.776 486.11C356.376 486.11 357.826 486.47 359.126 487.19C360.426 487.89 361.446 488.89 362.186 490.19C362.946 491.49 363.326 492.99 363.326 494.69C363.326 496.39 362.936 497.89 362.156 499.19C361.396 500.49 360.356 501.5 359.036 502.22C357.736 502.92 356.276 503.27 354.656 503.27ZM354.656 499.61C355.416 499.61 356.126 499.43 356.786 499.07C357.466 498.69 358.006 498.13 358.406 497.39C358.806 496.65 359.006 495.75 359.006 494.69C359.006 493.11 358.586 491.9 357.746 491.06C356.926 490.2 355.916 489.77 354.716 489.77C353.516 489.77 352.506 490.2 351.686 491.06C350.886 491.9 350.486 493.11 350.486 494.69C350.486 496.27 350.876 497.49 351.656 498.35C352.456 499.19 353.456 499.61 354.656 499.61ZM370.607 488.96C371.147 488.08 371.847 487.39 372.707 486.89C373.587 486.39 374.587 486.14 375.707 486.14V490.55H374.597C373.277 490.55 372.277 490.86 371.597 491.48C370.937 492.1 370.607 493.18 370.607 494.72V503H366.407V486.38H370.607V488.96Z" fill="black"/>
<path d="M389.824 482.06V495.02C389.824 496.44 390.194 497.53 390.934 498.29C391.674 499.03 392.714 499.4 394.054 499.4C395.414 499.4 396.464 499.03 397.204 498.29C397.944 497.53 398.314 496.44 398.314 495.02V482.06H402.544V494.99C402.544 496.77 402.154 498.28 401.374 499.52C400.614 500.74 399.584 501.66 398.284 502.28C397.004 502.9 395.574 503.21 393.994 503.21C392.434 503.21 391.014 502.9 389.734 502.28C388.474 501.66 387.474 500.74 386.734 499.52C385.994 498.28 385.624 496.77 385.624 494.99V482.06H389.824ZM421.872 488.54C421.872 489.66 421.602 490.71 421.062 491.69C420.542 492.67 419.712 493.46 418.572 494.06C417.452 494.66 416.032 494.96 414.312 494.96H410.802V503H406.602V482.06H414.312C415.932 482.06 417.312 482.34 418.452 482.9C419.592 483.46 420.442 484.23 421.002 485.21C421.582 486.19 421.872 487.3 421.872 488.54ZM414.132 491.57C415.292 491.57 416.152 491.31 416.712 490.79C417.272 490.25 417.552 489.5 417.552 488.54C417.552 486.5 416.412 485.48 414.132 485.48H410.802V491.57H414.132ZM429.054 499.67H435.954V503H424.854V482.06H429.054V499.67ZM448.344 503.21C446.384 503.21 444.584 502.75 442.944 501.83C441.304 500.91 440.004 499.64 439.044 498.02C438.084 496.38 437.604 494.53 437.604 492.47C437.604 490.43 438.084 488.6 439.044 486.98C440.004 485.34 441.304 484.06 442.944 483.14C444.584 482.22 446.384 481.76 448.344 481.76C450.324 481.76 452.124 482.22 453.744 483.14C455.384 484.06 456.674 485.34 457.614 486.98C458.574 488.6 459.054 490.43 459.054 492.47C459.054 494.53 458.574 496.38 457.614 498.02C456.674 499.64 455.384 500.91 453.744 501.83C452.104 502.75 450.304 503.21 448.344 503.21ZM448.344 499.46C449.604 499.46 450.714 499.18 451.674 498.62C452.634 498.04 453.384 497.22 453.924 496.16C454.464 495.1 454.734 493.87 454.734 492.47C454.734 491.07 454.464 489.85 453.924 488.81C453.384 487.75 452.634 486.94 451.674 486.38C450.714 485.82 449.604 485.54 448.344 485.54C447.084 485.54 445.964 485.82 444.984 486.38C444.024 486.94 443.274 487.75 442.734 488.81C442.194 489.85 441.924 491.07 441.924 492.47C441.924 493.87 442.194 495.1 442.734 496.16C443.274 497.22 444.024 498.04 444.984 498.62C445.964 499.18 447.084 499.46 448.344 499.46ZM475.018 499.01H466.678L465.298 503H460.888L468.418 482.03H473.308L480.838 503H476.398L475.018 499.01ZM473.878 495.65L470.848 486.89L467.818 495.65H473.878ZM490.973 482.06C493.173 482.06 495.103 482.49 496.763 483.35C498.443 484.21 499.733 485.44 500.633 487.04C501.553 488.62 502.013 490.46 502.013 492.56C502.013 494.66 501.553 496.5 500.633 498.08C499.733 499.64 498.443 500.85 496.763 501.71C495.103 502.57 493.173 503 490.973 503H483.653V482.06H490.973ZM490.823 499.43C493.023 499.43 494.723 498.83 495.923 497.63C497.123 496.43 497.723 494.74 497.723 492.56C497.723 490.38 497.123 488.68 495.923 487.46C494.723 486.22 493.023 485.6 490.823 485.6H487.853V499.43H490.823ZM522.025 503.21C520.065 503.21 518.265 502.75 516.625 501.83C514.985 500.91 513.685 499.64 512.725 498.02C511.765 496.38 511.285 494.53 511.285 492.47C511.285 490.43 511.765 488.6 512.725 486.98C513.685 485.34 514.985 484.06 516.625 483.14C518.265 482.22 520.065 481.76 522.025 481.76C524.005 481.76 525.805 482.22 527.425 483.14C529.065 484.06 530.355 485.34 531.295 486.98C532.255 488.6 532.735 490.43 532.735 492.47C532.735 494.53 532.255 496.38 531.295 498.02C530.355 499.64 529.065 500.91 527.425 501.83C525.785 502.75 523.985 503.21 522.025 503.21ZM522.025 499.46C523.285 499.46 524.395 499.18 525.355 498.62C526.315 498.04 527.065 497.22 527.605 496.16C528.145 495.1 528.415 493.87 528.415 492.47C528.415 491.07 528.145 489.85 527.605 488.81C527.065 487.75 526.315 486.94 525.355 486.38C524.395 485.82 523.285 485.54 522.025 485.54C520.765 485.54 519.645 485.82 518.665 486.38C517.705 486.94 516.955 487.75 516.415 488.81C515.875 489.85 515.605 491.07 515.605 492.47C515.605 493.87 515.875 495.1 516.415 496.16C516.955 497.22 517.705 498.04 518.665 498.62C519.645 499.18 520.765 499.46 522.025 499.46ZM550.11 482.06V485.45H544.53V503H540.33V485.45H534.75V482.06H550.11ZM570.544 482.06V503H566.344V494.09H557.374V503H553.174V482.06H557.374V490.67H566.344V482.06H570.544ZM578.878 485.45V490.7H585.928V494.03H578.878V499.58H586.828V503H574.678V482.03H586.828V485.45H578.878ZM601.445 503L596.825 494.84H594.845V503H590.645V482.06H598.505C600.125 482.06 601.505 482.35 602.645 482.93C603.785 483.49 604.635 484.26 605.195 485.24C605.775 486.2 606.065 487.28 606.065 488.48C606.065 489.86 605.665 491.11 604.865 492.23C604.065 493.33 602.875 494.09 601.295 494.51L606.305 503H601.445ZM594.845 491.69H598.355C599.495 491.69 600.345 491.42 600.905 490.88C601.465 490.32 601.745 489.55 601.745 488.57C601.745 487.61 601.465 486.87 600.905 486.35C600.345 485.81 599.495 485.54 598.355 485.54H594.845V491.69Z" fill="#1A97CD"/>
<path d="M331 392C331 376.915 331 369.373 335.686 364.686C340.373 360 347.915 360 363 360H717C732.085 360 739.627 360 744.314 364.686C749 369.373 749 376.915 749 392V430C749 445.085 749 452.627 744.314 457.314C739.627 462 732.085 462 717 462H363C347.915 462 340.373 462 335.686 457.314C331 452.627 331 445.085 331 430V392Z" fill="url(#paint0_linear_10_39)"/>
<path d="M483.84 410.6C483.84 408.952 484.208 407.48 484.944 406.184C485.696 404.872 486.712 403.856 487.992 403.136C489.288 402.4 490.736 402.032 492.336 402.032C494.208 402.032 495.848 402.512 497.256 403.472C498.664 404.432 499.648 405.76 500.208 407.456H496.344C495.96 406.656 495.416 406.056 494.712 405.656C494.024 405.256 493.224 405.056 492.312 405.056C491.336 405.056 490.464 405.288 489.696 405.752C488.944 406.2 488.352 406.84 487.92 407.672C487.504 408.504 487.296 409.48 487.296 410.6C487.296 411.704 487.504 412.68 487.92 413.528C488.352 414.36 488.944 415.008 489.696 415.472C490.464 415.92 491.336 416.144 492.312 416.144C493.224 416.144 494.024 415.944 494.712 415.544C495.416 415.128 495.96 414.52 496.344 413.72H500.208C499.648 415.432 498.664 416.768 497.256 417.728C495.864 418.672 494.224 419.144 492.336 419.144C490.736 419.144 489.288 418.784 487.992 418.064C486.712 417.328 485.696 416.312 484.944 415.016C484.208 413.72 483.84 412.248 483.84 410.6ZM510.854 419.168C509.286 419.168 507.846 418.8 506.534 418.064C505.222 417.328 504.182 416.312 503.414 415.016C502.646 413.704 502.262 412.224 502.262 410.576C502.262 408.944 502.646 407.48 503.414 406.184C504.182 404.872 505.222 403.848 506.534 403.112C507.846 402.376 509.286 402.008 510.854 402.008C512.438 402.008 513.878 402.376 515.174 403.112C516.486 403.848 517.518 404.872 518.27 406.184C519.038 407.48 519.422 408.944 519.422 410.576C519.422 412.224 519.038 413.704 518.27 415.016C517.518 416.312 516.486 417.328 515.174 418.064C513.862 418.8 512.422 419.168 510.854 419.168ZM510.854 416.168C511.862 416.168 512.75 415.944 513.518 415.496C514.286 415.032 514.886 414.376 515.318 413.528C515.75 412.68 515.966 411.696 515.966 410.576C515.966 409.456 515.75 408.48 515.318 407.648C514.886 406.8 514.286 406.152 513.518 405.704C512.75 405.256 511.862 405.032 510.854 405.032C509.846 405.032 508.95 405.256 508.166 405.704C507.398 406.152 506.798 406.8 506.366 407.648C505.934 408.48 505.718 409.456 505.718 410.576C505.718 411.696 505.934 412.68 506.366 413.528C506.798 414.376 507.398 415.032 508.166 415.496C508.95 415.944 509.846 416.168 510.854 416.168ZM536.25 419H532.89L525.282 407.504V419H521.922V402.224H525.282L532.89 413.744V402.224H536.25V419ZM550.97 402.248V404.96H546.506V419H543.146V404.96H538.682V402.248H550.97ZM562.062 419L558.366 412.472H556.782V419H553.422V402.248H559.71C561.006 402.248 562.11 402.48 563.022 402.944C563.934 403.392 564.614 404.008 565.062 404.792C565.526 405.56 565.758 406.424 565.758 407.384C565.758 408.488 565.438 409.488 564.798 410.384C564.158 411.264 563.206 411.872 561.942 412.208L565.95 419H562.062ZM556.782 409.952H559.59C560.502 409.952 561.182 409.736 561.63 409.304C562.078 408.856 562.302 408.24 562.302 407.456C562.302 406.688 562.078 406.096 561.63 405.68C561.182 405.248 560.502 405.032 559.59 405.032H556.782V409.952ZM576.573 419.168C575.005 419.168 573.565 418.8 572.253 418.064C570.941 417.328 569.901 416.312 569.133 415.016C568.365 413.704 567.981 412.224 567.981 410.576C567.981 408.944 568.365 407.48 569.133 406.184C569.901 404.872 570.941 403.848 572.253 403.112C573.565 402.376 575.005 402.008 576.573 402.008C578.157 402.008 579.597 402.376 580.893 403.112C582.205 403.848 583.237 404.872 583.989 406.184C584.757 407.48 585.141 408.944 585.141 410.576C585.141 412.224 584.757 413.704 583.989 415.016C583.237 416.312 582.205 417.328 580.893 418.064C579.581 418.8 578.141 419.168 576.573 419.168ZM576.573 416.168C577.581 416.168 578.469 415.944 579.237 415.496C580.005 415.032 580.605 414.376 581.037 413.528C581.469 412.68 581.685 411.696 581.685 410.576C581.685 409.456 581.469 408.48 581.037 407.648C580.605 406.8 580.005 406.152 579.237 405.704C578.469 405.256 577.581 405.032 576.573 405.032C575.565 405.032 574.669 405.256 573.885 405.704C573.117 406.152 572.517 406.8 572.085 407.648C571.653 408.48 571.437 409.456 571.437 410.576C571.437 411.696 571.653 412.68 572.085 413.528C572.517 414.376 573.117 415.032 573.885 415.496C574.669 415.944 575.565 416.168 576.573 416.168ZM591 416.336H596.52V419H587.64V402.248H591V416.336Z" fill="white"/>
<path d="M1052.24 21.9289L1052.77 22.4592L1052.77 22.4592L1052.24 21.9289ZM1051.84 22.3312L1052.37 22.8616L1051.84 22.3312ZM1055.07 23.3431L1055.6 22.8128V22.8128L1055.07 23.3431ZM1053.66 21.9289L1053.13 22.4592L1053.13 22.4592L1053.66 21.9289ZM1054.67 25.1596L1055.2 25.6899L1055.2 25.6899L1054.67 25.1596ZM1055.07 24.7573L1054.54 24.227V24.227L1055.07 24.7573ZM1056 27V26.25V27ZM1055.43 27V27.75V27ZM1055.07 33.2426L1055.6 32.7123L1055.6 32.7123L1055.07 33.2426ZM1054.67 32.8403L1054.14 33.3707V33.3707L1054.67 32.8403ZM1053.66 36.071L1053.13 35.5407V35.5407L1053.66 36.071ZM1055.07 34.6568L1055.6 35.1872V35.1872L1055.07 34.6568ZM1051.84 35.6688L1052.37 35.1384H1052.37L1051.84 35.6688ZM1052.24 36.071L1051.71 36.6014L1051.71 36.6014L1052.24 36.071ZM1043.76 36.071L1044.29 36.6014H1044.29L1043.76 36.071ZM1044.16 35.6688L1044.69 36.1991L1044.69 36.1991L1044.16 35.6688ZM1040.93 34.6568L1041.46 34.1265V34.1265L1040.93 34.6568ZM1042.34 36.071L1041.81 36.6014H1041.81L1042.34 36.071ZM1041.33 32.8403L1041.86 33.3706L1041.86 33.3706L1041.33 32.8403ZM1040.93 33.2426L1041.46 33.7729L1040.93 33.2426ZM1040.57 27V26.25H1040.57L1040.57 27ZM1040 27V27.75H1040L1040 27ZM1040.93 24.7573L1040.4 25.2877H1040.4L1040.93 24.7573ZM1041.33 25.1597L1041.86 24.6293H1041.86L1041.33 25.1597ZM1042.34 21.9289L1042.87 22.4592V22.4592L1042.34 21.9289ZM1040.93 23.3431L1041.46 23.8735H1041.46L1040.93 23.3431ZM1044.16 22.3312L1043.63 22.8616V22.8616L1044.16 22.3312ZM1043.76 21.9289L1044.29 21.3986V21.3986L1043.76 21.9289ZM1045.32 22.5323L1045.61 23.225H1045.61L1045.32 22.5323ZM1041.53 26.3178L1042.22 26.6053L1041.53 26.3178ZM1041.53 31.6822L1042.22 31.3946L1041.53 31.6822ZM1045.32 35.4677L1045.61 34.775H1045.61L1045.32 35.4677ZM1050.68 35.4677L1050.39 34.775L1050.68 35.4677ZM1054.47 31.6822L1055.16 31.9698L1054.47 31.6822ZM1054.47 26.3177L1053.78 26.6053V26.6053L1054.47 26.3177ZM1050.68 22.5323L1050.39 23.225L1050.68 22.5323ZM1049 19.25H1047V20.75H1049V19.25ZM1050.75 21.5688V21H1049.25V21.5688H1050.75ZM1051.71 21.3986L1051.31 21.8009L1052.37 22.8616L1052.77 22.4592L1051.71 21.3986ZM1055.6 22.8128L1054.19 21.3986L1053.13 22.4592L1054.54 23.8735L1055.6 22.8128ZM1055.2 25.6899L1055.6 25.2877L1054.54 24.227L1054.14 24.6293L1055.2 25.6899ZM1056 26.25L1055.43 26.25V27.75L1056 27.75V26.25ZM1057.75 30V28H1056.25V30H1057.75ZM1055.43 31.75H1056V30.25H1055.43V31.75ZM1055.6 32.7123L1055.2 32.31L1054.14 33.3707L1054.54 33.773L1055.6 32.7123ZM1054.19 36.6014L1055.6 35.1872L1054.54 34.1265L1053.13 35.5407L1054.19 36.6014ZM1051.31 36.1991L1051.71 36.6014L1052.77 35.5407L1052.37 35.1384L1051.31 36.1991ZM1050.75 37V36.4312H1049.25V37H1050.75ZM1047 38.75H1049V37.25H1047V38.75ZM1045.25 36.4313V37H1046.75V36.4313H1045.25ZM1044.29 36.6014L1044.69 36.1991L1043.63 35.1384L1043.23 35.5407L1044.29 36.6014ZM1040.4 35.1872L1041.81 36.6014L1042.87 35.5407L1041.46 34.1265L1040.4 35.1872ZM1040.8 32.3099L1040.4 32.7123L1041.46 33.7729L1041.86 33.3706L1040.8 32.3099ZM1040 31.75H1040.57V30.25H1040V31.75ZM1038.25 28V30H1039.75V28H1038.25ZM1040.57 26.25L1040 26.25L1040 27.75L1040.57 27.75L1040.57 26.25ZM1040.4 25.2877L1040.8 25.69L1041.86 24.6293L1041.46 24.227L1040.4 25.2877ZM1041.81 21.3986L1040.4 22.8128L1041.46 23.8735L1042.87 22.4592L1041.81 21.3986ZM1044.69 21.8009L1044.29 21.3986L1043.23 22.4592L1043.63 22.8616L1044.69 21.8009ZM1045.25 21V21.5688H1046.75V21H1045.25ZM1045.61 23.225C1046.24 22.9634 1046.75 22.3456 1046.75 21.5688H1045.25C1045.25 21.6476 1045.19 21.7731 1045.03 21.8396L1045.61 23.225ZM1043.63 22.8616C1044.18 23.4074 1044.97 23.4892 1045.61 23.225L1045.03 21.8396C1044.88 21.9036 1044.75 21.8603 1044.69 21.8009L1043.63 22.8616ZM1042.87 22.4592C1042.97 22.3616 1043.13 22.3616 1043.23 22.4592L1044.29 21.3986C1043.6 20.7152 1042.5 20.7152 1041.81 21.3986L1042.87 22.4592ZM1041.46 24.227C1041.36 24.1294 1041.36 23.9711 1041.46 23.8735L1040.4 22.8128C1039.72 23.4962 1039.72 24.6043 1040.4 25.2877L1041.46 24.227ZM1042.22 26.6053C1042.49 25.969 1042.41 25.1752 1041.86 24.6293L1040.8 25.69C1040.86 25.7494 1040.9 25.876 1040.84 26.0302L1042.22 26.6053ZM1040.57 27.75C1041.35 27.75 1041.96 27.2355 1042.22 26.6053L1040.84 26.0302C1040.77 26.1903 1040.65 26.25 1040.57 26.25V27.75ZM1039.75 28C1039.75 27.8619 1039.86 27.75 1040 27.75V26.25C1039.03 26.25 1038.25 27.0335 1038.25 28H1039.75ZM1040 30.25C1039.86 30.25 1039.75 30.1381 1039.75 30H1038.25C1038.25 30.9665 1039.03 31.75 1040 31.75V30.25ZM1042.22 31.3946C1041.96 30.7645 1041.35 30.25 1040.57 30.25V31.75C1040.65 31.75 1040.77 31.8097 1040.84 31.9698L1042.22 31.3946ZM1041.86 33.3706C1042.41 32.8248 1042.49 32.031 1042.22 31.3946L1040.84 31.9698C1040.9 32.124 1040.86 32.2506 1040.8 32.31L1041.86 33.3706ZM1041.46 34.1265C1041.36 34.0289 1041.36 33.8706 1041.46 33.7729L1040.4 32.7123C1039.72 33.3957 1039.72 34.5037 1040.4 35.1872L1041.46 34.1265ZM1043.23 35.5407C1043.13 35.6383 1042.97 35.6383 1042.87 35.5407L1041.81 36.6014C1042.5 37.2848 1043.6 37.2848 1044.29 36.6014L1043.23 35.5407ZM1045.61 34.775C1044.97 34.5108 1044.18 34.5926 1043.63 35.1384L1044.69 36.1991C1044.75 36.1397 1044.88 36.0964 1045.03 36.1604L1045.61 34.775ZM1046.75 36.4313C1046.75 35.6544 1046.24 35.0366 1045.61 34.775L1045.03 36.1604C1045.19 36.2269 1045.25 36.3524 1045.25 36.4313H1046.75ZM1047 37.25C1046.86 37.25 1046.75 37.1381 1046.75 37H1045.25C1045.25 37.9665 1046.03 38.75 1047 38.75V37.25ZM1049.25 37C1049.25 37.1381 1049.14 37.25 1049 37.25V38.75C1049.97 38.75 1050.75 37.9665 1050.75 37H1049.25ZM1050.39 34.775C1049.76 35.0366 1049.25 35.6544 1049.25 36.4312H1050.75C1050.75 36.3524 1050.81 36.2269 1050.97 36.1604L1050.39 34.775ZM1052.37 35.1384C1051.82 34.5926 1051.03 34.5108 1050.39 34.775L1050.97 36.1604C1051.12 36.0964 1051.25 36.1397 1051.31 36.1991L1052.37 35.1384ZM1053.13 35.5407C1053.03 35.6383 1052.87 35.6383 1052.77 35.5407L1051.71 36.6014C1052.4 37.2848 1053.5 37.2848 1054.19 36.6014L1053.13 35.5407ZM1054.54 33.773C1054.64 33.8706 1054.64 34.0289 1054.54 34.1265L1055.6 35.1872C1056.28 34.5037 1056.28 33.3957 1055.6 32.7123L1054.54 33.773ZM1053.78 31.3947C1053.51 32.031 1053.59 32.8248 1054.14 33.3707L1055.2 32.31C1055.14 32.2506 1055.1 32.124 1055.16 31.9698L1053.78 31.3947ZM1055.43 30.25C1054.65 30.25 1054.04 30.7645 1053.78 31.3947L1055.16 31.9698C1055.23 31.8097 1055.35 31.75 1055.43 31.75V30.25ZM1056.25 30C1056.25 30.1381 1056.14 30.25 1056 30.25V31.75C1056.97 31.75 1057.75 30.9665 1057.75 30H1056.25ZM1056 27.75C1056.14 27.75 1056.25 27.8619 1056.25 28H1057.75C1057.75 27.0335 1056.97 26.25 1056 26.25V27.75ZM1053.78 26.6053C1054.04 27.2355 1054.65 27.75 1055.43 27.75V26.25C1055.35 26.25 1055.23 26.1903 1055.16 26.0302L1053.78 26.6053ZM1054.14 24.6293C1053.59 25.1751 1053.51 25.969 1053.78 26.6053L1055.16 26.0302C1055.1 25.876 1055.14 25.7493 1055.2 25.6899L1054.14 24.6293ZM1054.54 23.8735C1054.64 23.9711 1054.64 24.1294 1054.54 24.227L1055.6 25.2877C1056.28 24.6042 1056.28 23.4962 1055.6 22.8128L1054.54 23.8735ZM1052.77 22.4592C1052.87 22.3616 1053.03 22.3616 1053.13 22.4592L1054.19 21.3986C1053.5 20.7152 1052.4 20.7152 1051.71 21.3986L1052.77 22.4592ZM1050.39 23.225C1051.03 23.4892 1051.82 23.4074 1052.37 22.8616L1051.31 21.8009C1051.25 21.8603 1051.12 21.9036 1050.97 21.8396L1050.39 23.225ZM1049.25 21.5688C1049.25 22.3456 1049.76 22.9634 1050.39 23.225L1050.97 21.8396C1050.81 21.7731 1050.75 21.6476 1050.75 21.5688H1049.25ZM1047 19.25C1046.03 19.25 1045.25 20.0335 1045.25 21H1046.75C1046.75 20.8619 1046.86 20.75 1047 20.75V19.25ZM1049 20.75C1049.14 20.75 1049.25 20.8619 1049.25 21H1050.75C1050.75 20.0335 1049.97 19.25 1049 19.25V20.75ZM1049.25 29C1049.25 29.6904 1048.69 30.25 1048 30.25V31.75C1049.52 31.75 1050.75 30.5188 1050.75 29H1049.25ZM1048 30.25C1047.31 30.25 1046.75 29.6904 1046.75 29H1045.25C1045.25 30.5188 1046.48 31.75 1048 31.75V30.25ZM1046.75 29C1046.75 28.3096 1047.31 27.75 1048 27.75V26.25C1046.48 26.25 1045.25 27.4812 1045.25 29H1046.75ZM1048 27.75C1048.69 27.75 1049.25 28.3096 1049.25 29H1050.75C1050.75 27.4812 1049.52 26.25 1048 26.25V27.75Z" fill="white"/>
<path d="M1006.12 37.1213L1006.65 37.6517L1006.12 37.1213ZM1005.15 37.7716L1004.86 37.0787L1005.15 37.7716ZM1002.85 37.7716L1002.56 38.4645L1002.85 37.7716ZM1001.88 37.1213L1001.35 37.6517L1001.88 37.1213ZM1001.23 36.1481L1000.54 36.4351L1001.23 36.1481ZM1001.75 34C1001.75 33.5858 1001.41 33.25 1001 33.25C1000.59 33.25 1000.25 33.5858 1000.25 34H1001.75ZM1007.75 34C1007.75 33.5858 1007.41 33.25 1007 33.25C1006.59 33.25 1006.25 33.5858 1006.25 34H1007.75ZM1012 34V34.75C1012.25 34.75 1012.48 34.6266 1012.62 34.4205C1012.76 34.2144 1012.79 33.9525 1012.7 33.7215L1012 34ZM996 34L995.329 33.6646C995.213 33.8971 995.225 34.1732 995.362 34.3943C995.499 34.6154 995.74 34.75 996 34.75V34ZM1006.25 35C1006.25 35.2955 1006.19 35.5881 1006.08 35.861L1007.46 36.4351C1007.65 35.9801 1007.75 35.4925 1007.75 35H1006.25ZM1006.08 35.861C1005.97 36.134 1005.8 36.3821 1005.59 36.591L1006.65 37.6517C1007 37.3034 1007.28 36.89 1007.46 36.4351L1006.08 35.861ZM1005.59 36.591C1005.38 36.7999 1005.13 36.9657 1004.86 37.0787L1005.44 38.4645C1005.89 38.2761 1006.3 37.9999 1006.65 37.6517L1005.59 36.591ZM1004.86 37.0787C1004.59 37.1918 1004.3 37.25 1004 37.25V38.75C1004.49 38.75 1004.98 38.653 1005.44 38.4645L1004.86 37.0787ZM1004 37.25C1003.7 37.25 1003.41 37.1918 1003.14 37.0787L1002.56 38.4645C1003.02 38.653 1003.51 38.75 1004 38.75V37.25ZM1003.14 37.0787C1002.87 36.9657 1002.62 36.7999 1002.41 36.591L1001.35 37.6517C1001.7 37.9999 1002.11 38.2761 1002.56 38.4645L1003.14 37.0787ZM1002.41 36.591C1002.2 36.3821 1002.03 36.134 1001.92 35.861L1000.54 36.4351C1000.72 36.89 1001 37.3034 1001.35 37.6517L1002.41 36.591ZM1001.92 35.861C1001.81 35.5881 1001.75 35.2955 1001.75 35H1000.25C1000.25 35.4925 1000.35 35.9801 1000.54 36.4351L1001.92 35.861ZM1001.75 35V34H1000.25V35H1001.75ZM1007.75 35V34H1006.25V35H1007.75ZM1009.25 26C1009.25 27.6222 1009.78 29.7163 1010.28 31.3456C1010.54 32.1729 1010.79 32.9039 1010.98 33.4282C1011.08 33.6905 1011.16 33.9017 1011.21 34.0479C1011.24 34.121 1011.26 34.1779 1011.28 34.2169C1011.29 34.2364 1011.29 34.2515 1011.3 34.2618C1011.3 34.267 1011.3 34.271 1011.3 34.2738C1011.3 34.2752 1011.3 34.2763 1011.3 34.2771C1011.3 34.2775 1011.3 34.2778 1011.3 34.278C1011.3 34.2782 1011.3 34.2783 1011.3 34.2783C1011.3 34.2785 1011.3 34.2785 1012 34C1012.7 33.7215 1012.7 33.7215 1012.7 33.7215C1012.7 33.7215 1012.7 33.7215 1012.7 33.7215C1012.7 33.7215 1012.7 33.7213 1012.7 33.7211C1012.7 33.7207 1012.7 33.72 1012.7 33.719C1012.69 33.7169 1012.69 33.7137 1012.69 33.7093C1012.69 33.7006 1012.68 33.6872 1012.68 33.6693C1012.66 33.6336 1012.64 33.5802 1012.61 33.5107C1012.56 33.3718 1012.48 33.1688 1012.39 32.9156C1012.21 32.4086 1011.96 31.7021 1011.72 30.9044C1011.22 29.2837 1010.75 27.3778 1010.75 26H1009.25ZM996 34C996.671 34.3354 996.671 34.3353 996.671 34.3351C996.671 34.335 996.671 34.3348 996.671 34.3347C996.671 34.3344 996.672 34.334 996.672 34.3336C996.672 34.3328 996.673 34.3317 996.673 34.3304C996.675 34.3277 996.676 34.3241 996.679 34.3195C996.683 34.3104 996.69 34.2974 996.698 34.2808C996.714 34.2475 996.737 34.1994 996.766 34.1375C996.823 34.0137 996.905 33.8346 997.002 33.6079C997.196 33.155 997.454 32.5104 997.712 31.7372C998.224 30.1997 998.75 28.1134 998.75 26H997.25C997.25 27.8866 996.776 29.8003 996.288 31.2628C996.046 31.9896 995.804 32.595 995.623 33.0171C995.533 33.2279 995.458 33.3925 995.406 33.5031C995.38 33.5584 995.361 33.6002 995.347 33.6274C995.341 33.6411 995.336 33.651 995.333 33.6573C995.331 33.6604 995.33 33.6626 995.33 33.6638C995.329 33.6644 995.329 33.6648 995.329 33.6649C995.329 33.665 995.329 33.665 995.329 33.6649C995.329 33.6649 995.329 33.6648 995.329 33.6648C995.329 33.6647 995.329 33.6646 996 34ZM1012 33.25H996V34.75H1012V33.25ZM1004 19.25C1000.32 19.25 997.25 22.3178 997.25 26H998.75C998.75 23.1462 1001.15 20.75 1004 20.75V19.25ZM1010.75 26C1010.75 22.3178 1007.68 19.25 1004 19.25V20.75C1006.85 20.75 1009.25 23.1462 1009.25 26H1010.75Z" fill="white"/>
<path d="M338.28 161.08V178.36C338.28 180.253 338.773 181.707 339.76 182.72C340.747 183.707 342.133 184.2 343.92 184.2C345.733 184.2 347.133 183.707 348.12 182.72C349.107 181.707 349.6 180.253 349.6 178.36V161.08H355.24V178.32C355.24 180.693 354.72 182.707 353.68 184.36C352.667 185.987 351.293 187.213 349.56 188.04C347.853 188.867 345.947 189.28 343.84 189.28C341.76 189.28 339.867 188.867 338.16 188.04C336.48 187.213 335.147 185.987 334.16 184.36C333.173 182.707 332.68 180.693 332.68 178.32V161.08H338.28ZM381.011 169.72C381.011 171.213 380.651 172.613 379.931 173.92C379.237 175.227 378.131 176.28 376.611 177.08C375.117 177.88 373.224 178.28 370.931 178.28H366.251V189H360.651V161.08H370.931C373.091 161.08 374.931 161.453 376.451 162.2C377.971 162.947 379.104 163.973 379.851 165.28C380.624 166.587 381.011 168.067 381.011 169.72ZM370.691 173.76C372.237 173.76 373.384 173.413 374.131 172.72C374.877 172 375.251 171 375.251 169.72C375.251 167 373.731 165.64 370.691 165.64H366.251V173.76H370.691ZM390.587 184.56H399.787V189H384.987V161.08H390.587V184.56ZM416.306 189.28C413.693 189.28 411.293 188.667 409.106 187.44C406.919 186.213 405.186 184.52 403.906 182.36C402.626 180.173 401.986 177.707 401.986 174.96C401.986 172.24 402.626 169.8 403.906 167.64C405.186 165.453 406.919 163.747 409.106 162.52C411.293 161.293 413.693 160.68 416.306 160.68C418.946 160.68 421.346 161.293 423.506 162.52C425.693 163.747 427.413 165.453 428.666 167.64C429.946 169.8 430.586 172.24 430.586 174.96C430.586 177.707 429.946 180.173 428.666 182.36C427.413 184.52 425.693 186.213 423.506 187.44C421.319 188.667 418.919 189.28 416.306 189.28ZM416.306 184.28C417.986 184.28 419.466 183.907 420.746 183.16C422.026 182.387 423.026 181.293 423.746 179.88C424.466 178.467 424.826 176.827 424.826 174.96C424.826 173.093 424.466 171.467 423.746 170.08C423.026 168.667 422.026 167.587 420.746 166.84C419.466 166.093 417.986 165.72 416.306 165.72C414.626 165.72 413.133 166.093 411.826 166.84C410.546 167.587 409.546 168.667 408.826 170.08C408.106 171.467 407.746 173.093 407.746 174.96C407.746 176.827 408.106 178.467 408.826 179.88C409.546 181.293 410.546 182.387 411.826 183.16C413.133 183.907 414.626 184.28 416.306 184.28ZM451.872 183.68H440.752L438.912 189H433.032L443.072 161.04H449.592L459.632 189H453.712L451.872 183.68ZM450.352 179.2L446.312 167.52L442.272 179.2H450.352ZM473.145 161.08C476.078 161.08 478.652 161.653 480.865 162.8C483.105 163.947 484.825 165.587 486.025 167.72C487.252 169.827 487.865 172.28 487.865 175.08C487.865 177.88 487.252 180.333 486.025 182.44C484.825 184.52 483.105 186.133 480.865 187.28C478.652 188.427 476.078 189 473.145 189H463.385V161.08H473.145ZM472.945 184.24C475.878 184.24 478.145 183.44 479.745 181.84C481.345 180.24 482.145 177.987 482.145 175.08C482.145 172.173 481.345 169.907 479.745 168.28C478.145 166.627 475.878 165.8 472.945 165.8H468.985V184.24H472.945ZM511.228 189.28C509.281 189.28 507.521 188.947 505.948 188.28C504.401 187.613 503.175 186.653 502.268 185.4C501.361 184.147 500.895 182.667 500.868 180.96H506.868C506.948 182.107 507.348 183.013 508.068 183.68C508.815 184.347 509.828 184.68 511.108 184.68C512.415 184.68 513.441 184.373 514.188 183.76C514.935 183.12 515.308 182.293 515.308 181.28C515.308 180.453 515.055 179.773 514.548 179.24C514.041 178.707 513.401 178.293 512.628 178C511.881 177.68 510.841 177.333 509.508 176.96C507.695 176.427 506.215 175.907 505.068 175.4C503.948 174.867 502.975 174.08 502.148 173.04C501.348 171.973 500.948 170.56 500.948 168.8C500.948 167.147 501.361 165.707 502.188 164.48C503.015 163.253 504.175 162.32 505.668 161.68C507.161 161.013 508.868 160.68 510.788 160.68C513.668 160.68 516.001 161.387 517.788 162.8C519.601 164.187 520.601 166.133 520.788 168.64H514.628C514.575 167.68 514.161 166.893 513.388 166.28C512.641 165.64 511.641 165.32 510.388 165.32C509.295 165.32 508.415 165.6 507.748 166.16C507.108 166.72 506.788 167.533 506.788 168.6C506.788 169.347 507.028 169.973 507.508 170.48C508.015 170.96 508.628 171.36 509.348 171.68C510.095 171.973 511.135 172.32 512.468 172.72C514.281 173.253 515.761 173.787 516.908 174.32C518.055 174.853 519.041 175.653 519.868 176.72C520.695 177.787 521.108 179.187 521.108 180.92C521.108 182.413 520.721 183.8 519.948 185.08C519.175 186.36 518.041 187.387 516.548 188.16C515.055 188.907 513.281 189.28 511.228 189.28ZM531.483 161.08V178.36C531.483 180.253 531.976 181.707 532.963 182.72C533.95 183.707 535.336 184.2 537.123 184.2C538.936 184.2 540.336 183.707 541.323 182.72C542.31 181.707 542.803 180.253 542.803 178.36V161.08H548.443V178.32C548.443 180.693 547.923 182.707 546.883 184.36C545.87 185.987 544.496 187.213 542.763 188.04C541.056 188.867 539.15 189.28 537.043 189.28C534.963 189.28 533.07 188.867 531.363 188.04C529.683 187.213 528.35 185.987 527.363 184.36C526.376 182.707 525.883 180.693 525.883 178.32V161.08H531.483ZM552.494 175C552.494 172.253 553.107 169.8 554.334 167.64C555.587 165.453 557.28 163.76 559.414 162.56C561.574 161.333 563.987 160.72 566.654 160.72C569.774 160.72 572.507 161.52 574.854 163.12C577.2 164.72 578.84 166.933 579.774 169.76H573.334C572.694 168.427 571.787 167.427 570.614 166.76C569.467 166.093 568.134 165.76 566.614 165.76C564.987 165.76 563.534 166.147 562.254 166.92C561 167.667 560.014 168.733 559.294 170.12C558.6 171.507 558.254 173.133 558.254 175C558.254 176.84 558.6 178.467 559.294 179.88C560.014 181.267 561 182.347 562.254 183.12C563.534 183.867 564.987 184.24 566.614 184.24C568.134 184.24 569.467 183.907 570.614 183.24C571.787 182.547 572.694 181.533 573.334 180.2H579.774C578.84 183.053 577.2 185.28 574.854 186.88C572.534 188.453 569.8 189.24 566.654 189.24C563.987 189.24 561.574 188.64 559.414 187.44C557.28 186.213 555.587 184.52 554.334 182.36C553.107 180.2 552.494 177.747 552.494 175ZM583.197 175C583.197 172.253 583.81 169.8 585.037 167.64C586.29 165.453 587.984 163.76 590.117 162.56C592.277 161.333 594.69 160.72 597.357 160.72C600.477 160.72 603.21 161.52 605.557 163.12C607.904 164.72 609.544 166.933 610.477 169.76H604.037C603.397 168.427 602.49 167.427 601.317 166.76C600.17 166.093 598.837 165.76 597.317 165.76C595.69 165.76 594.237 166.147 592.957 166.92C591.704 167.667 590.717 168.733 589.997 170.12C589.304 171.507 588.957 173.133 588.957 175C588.957 176.84 589.304 178.467 589.997 179.88C590.717 181.267 591.704 182.347 592.957 183.12C594.237 183.867 595.69 184.24 597.317 184.24C598.837 184.24 600.17 183.907 601.317 183.24C602.49 182.547 603.397 181.533 604.037 180.2H610.477C609.544 183.053 607.904 185.28 605.557 186.88C603.237 188.453 600.504 189.24 597.357 189.24C594.69 189.24 592.277 188.64 590.117 187.44C587.984 186.213 586.29 184.52 585.037 182.36C583.81 180.2 583.197 177.747 583.197 175ZM620.86 165.6V172.6H630.26V177.04H620.86V184.44H631.46V189H615.26V161.04H631.46V165.6H620.86ZM646.189 189.28C644.242 189.28 642.482 188.947 640.909 188.28C639.362 187.613 638.136 186.653 637.229 185.4C636.322 184.147 635.856 182.667 635.829 180.96H641.829C641.909 182.107 642.309 183.013 643.029 183.68C643.776 184.347 644.789 184.68 646.069 184.68C647.376 184.68 648.402 184.373 649.149 183.76C649.896 183.12 650.269 182.293 650.269 181.28C650.269 180.453 650.016 179.773 649.509 179.24C649.002 178.707 648.362 178.293 647.589 178C646.842 177.68 645.802 177.333 644.469 176.96C642.656 176.427 641.176 175.907 640.029 175.4C638.909 174.867 637.936 174.08 637.109 173.04C636.309 171.973 635.909 170.56 635.909 168.8C635.909 167.147 636.322 165.707 637.149 164.48C637.976 163.253 639.136 162.32 640.629 161.68C642.122 161.013 643.829 160.68 645.749 160.68C648.629 160.68 650.962 161.387 652.749 162.8C654.562 164.187 655.562 166.133 655.749 168.64H649.589C649.536 167.68 649.122 166.893 648.349 166.28C647.602 165.64 646.602 165.32 645.349 165.32C644.256 165.32 643.376 165.6 642.709 166.16C642.069 166.72 641.749 167.533 641.749 168.6C641.749 169.347 641.989 169.973 642.469 170.48C642.976 170.96 643.589 171.36 644.309 171.68C645.056 171.973 646.096 172.32 647.429 172.72C649.242 173.253 650.722 173.787 651.869 174.32C653.016 174.853 654.002 175.653 654.829 176.72C655.656 177.787 656.069 179.187 656.069 180.92C656.069 182.413 655.682 183.8 654.909 185.08C654.136 186.36 653.002 187.387 651.509 188.16C650.016 188.907 648.242 189.28 646.189 189.28ZM670.564 189.28C668.617 189.28 666.857 188.947 665.284 188.28C663.737 187.613 662.511 186.653 661.604 185.4C660.697 184.147 660.231 182.667 660.204 180.96H666.204C666.284 182.107 666.684 183.013 667.404 183.68C668.151 184.347 669.164 184.68 670.444 184.68C671.751 184.68 672.777 184.373 673.524 183.76C674.271 183.12 674.644 182.293 674.644 181.28C674.644 180.453 674.391 179.773 673.884 179.24C673.377 178.707 672.737 178.293 671.964 178C671.217 177.68 670.177 177.333 668.844 176.96C667.031 176.427 665.551 175.907 664.404 175.4C663.284 174.867 662.311 174.08 661.484 173.04C660.684 171.973 660.284 170.56 660.284 168.8C660.284 167.147 660.697 165.707 661.524 164.48C662.351 163.253 663.511 162.32 665.004 161.68C666.497 161.013 668.204 160.68 670.124 160.68C673.004 160.68 675.337 161.387 677.124 162.8C678.937 164.187 679.937 166.133 680.124 168.64H673.964C673.911 167.68 673.497 166.893 672.724 166.28C671.977 165.64 670.977 165.32 669.724 165.32C668.631 165.32 667.751 165.6 667.084 166.16C666.444 166.72 666.124 167.533 666.124 168.6C666.124 169.347 666.364 169.973 666.844 170.48C667.351 170.96 667.964 171.36 668.684 171.68C669.431 171.973 670.471 172.32 671.804 172.72C673.617 173.253 675.097 173.787 676.244 174.32C677.391 174.853 678.377 175.653 679.204 176.72C680.031 177.787 680.444 179.187 680.444 180.92C680.444 182.413 680.057 183.8 679.284 185.08C678.511 186.36 677.377 187.387 675.884 188.16C674.391 188.907 672.617 189.28 670.564 189.28ZM702.539 161.08V165.6H690.899V172.76H699.819V177.2H690.899V189H685.299V161.08H702.539ZM712.03 161.08V178.36C712.03 180.253 712.523 181.707 713.51 182.72C714.497 183.707 715.883 184.2 717.67 184.2C719.483 184.2 720.883 183.707 721.87 182.72C722.857 181.707 723.35 180.253 723.35 178.36V161.08H728.99V178.32C728.99 180.693 728.47 182.707 727.43 184.36C726.417 185.987 725.043 187.213 723.31 188.04C721.603 188.867 719.697 189.28 717.59 189.28C715.51 189.28 713.617 188.867 711.91 188.04C710.23 187.213 708.897 185.987 707.91 184.36C706.923 182.707 706.43 180.693 706.43 178.32V161.08H712.03ZM740.001 184.56H749.201V189H734.401V161.08H740.001V184.56Z" fill="black"/>
<path d="M503.196 43V13.9091H507.585V27.8011H507.94L520.142 13.9091H525.668L513.935 27.0057L525.71 43H520.426L511.023 30.0028L507.585 33.9517V43H503.196ZM529.759 43V13.9091H534.148V27.8011H534.503L546.705 13.9091H552.23L540.497 27.0057L552.273 43H546.989L537.585 30.0028L534.148 33.9517V43H529.759ZM556.321 43V13.9091H574.56V17.6875H560.71V26.5511H573.608V30.3153H560.71V39.2216H574.73V43H556.321Z" fill="url(#paint1_linear_10_39)"/>
<defs>
<linearGradient id="paint0_linear_10_39" x1="331" y1="411" x2="749" y2="411" gradientUnits="userSpaceOnUse">
<stop stop-color="#3AA0CC"/>
<stop offset="1" stop-color="#4F54E0"/>
</linearGradient>
<linearGradient id="paint1_linear_10_39" x1="500" y1="29.5" x2="580" y2="29.5" gradientUnits="userSpaceOnUse">
<stop stop-color="#3CAADA"/>
<stop offset="1" stop-color="#4F6FE0"/>
</linearGradient>
</defs>
</svg>
